<svg xmlns="http://www.w3.org/2000/svg" xmlns:xlink="http://www.w3.org/1999/xlink" viewBox="0 0 93.45 80"><defs><style>.cls-1{fill:none;}.cls-2{clip-path:url(#clip-path);}.cls-3{fill:#922459;}.cls-4{fill:#932358;}.cls-5{fill:#942358;}.cls-6{fill:#952357;}.cls-7{fill:#962356;}.cls-8{fill:#972356;}.cls-9{fill:#982355;}.cls-10{fill:#992354;}.cls-11{fill:#9a2354;}.cls-12{fill:#9b2353;}.cls-13{fill:#9c2352;}.cls-14{fill:#9d2251;}.cls-15{fill:#9f2251;}.cls-16{fill:#a02250;}.cls-17{fill:#a1224f;}.cls-18{fill:#a2224e;}.cls-19{fill:#a3224e;}.cls-20{fill:#a5224d;}.cls-21{fill:#a6224c;}.cls-22{fill:#a7224b;}.cls-23{fill:#a8214a;}.cls-24{fill:#aa214a;}.cls-25{fill:#862561;}.cls-26{fill:#872560;}.cls-27{fill:#88245f;}.cls-28{fill:#89245f;}.cls-29{fill:#8a245e;}.cls-30{fill:#8b245e;}.cls-31{fill:#8c245d;}.cls-32{fill:#8d245c;}.cls-33{fill:#8e245b;}.cls-34{fill:#8f245b;}.cls-35{fill:#90245a;}.cls-36{fill:#91245a;}.cls-37{fill:#ab2149;}.cls-38{fill:#ac2148;}.cls-39{fill:#ae2147;}.cls-40{fill:#af2146;}.cls-41{fill:#b02145;}.cls-42{fill:#b22144;}.cls-43{fill:#b32043;}.cls-44{fill:#b42042;}.cls-45{fill:#b62042;}.cls-46{fill:#b72041;}.cls-47{fill:#b92040;}.cls-48{fill:#ba203f;}.cls-49{fill:#bc203e;}.cls-50{fill:#bd203d;}.cls-51{fill:#bf1f3c;}.cls-52{fill:#c01f3b;}.cls-53{fill:#c21f3a;}.cls-54{fill:#c31f39;}.cls-55{fill:#c51f38;}.cls-56{fill:#c61f37;}.cls-57{fill:#c81f36;}.cls-58{fill:#c91e35;}.cls-59{fill:#cb1e34;}.cls-60{fill:#cd1e33;}.cls-61{fill:#ce1e32;}.cls-62{fill:#d01e30;}.cls-63{fill:#d21e2f;}.cls-64{fill:#d31d2e;}.cls-65{fill:#d51d2d;}.cls-66{fill:#d71d2c;}.cls-67{fill:#d81d2b;}.cls-68{fill:#da1d2a;}.cls-69{fill:#dc1d29;}.cls-70{fill:#de1d28;}.cls-71{fill:#df1c26;}.cls-72{fill:#e11c25;}.cls-73{fill:#e31c24;}.cls-74{clip-path:url(#clip-path-2);}.cls-75{fill:#b12144;}.cls-76{fill:#b52042;}.cls-77{fill:#b62041;}.cls-78{fill:#b82040;}.cls-79{fill:#bb203e;}.cls-80{fill:#be1f3c;}.cls-81{fill:#c11f3a;}.cls-82{fill:#c41f39;}.cls-83{fill:#c71f37;}.cls-84{fill:#ca1e35;}.cls-85{fill:#ca1e34;}.cls-86{fill:#cb1e33;}.cls-87{fill:#cc1e33;}.cls-88{fill:#cd1e32;}.cls-89{fill:#cf1e31;}.cls-90{fill:#d11e30;}.cls-91{fill:#d41d2e;}.cls-92{fill:#d61d2d;}.cls-93{fill:#d91d2b;}.cls-94{fill:#d91d2a;}.cls-95{fill:#db1d29;}.cls-96{fill:#dd1d28;}.cls-97{fill:#de1c27;}.cls-98{fill:#df1c27;}.cls-99{fill:#e01c26;}.cls-100{fill:#e21c25;}</style><clipPath id="clip-path"><path class="cls-1" d="M32.32,71.22c-16.49,0-25-10.79-25-27.12C7.35,23.17,19.42,8.78,38.5,8.78a46.77,46.77,0,0,1,14,1.93l-1.93,10.8a36.75,36.75,0,0,0-10.23-1.39c-13.27,0-17.78,7.1-19.17,17.9,3.32-3.51,7.84-5.45,14.38-5.45C47.07,32.57,55,40.42,55,51.21,55,62.37,45.78,71.22,32.32,71.22Zm-.73-27.95c-6.36,0-10.42,3.79-10.42,8.58,0,5.54,5,8.21,10.14,8.21,6.73,0,10.41-4.06,10.41-8.39C41.72,46.41,37.58,43.27,31.59,43.27Z"/></clipPath><clipPath id="clip-path-2"><path class="cls-1" d="M79.13,39.49l-5.75-8.33-5.69,8.33H60.86L70,26.16,61.08,13.3H67.9l5.48,8.18,5.53-8.18h6.83l-9,12.86L85.9,39.49Z"/></clipPath></defs><g id="Layer_1" data-name="Layer 1"><g class="cls-2"><polygon class="cls-3" points="21.17 59.66 41.72 59.84 41.72 60.06 21.17 60.06 21.17 59.66"/><polygon class="cls-4" points="21.17 58.85 41.72 59.03 41.72 59.84 21.17 59.66 21.17 58.85"/><polygon class="cls-5" points="21.17 58.05 41.72 58.23 41.72 59.03 21.17 58.85 21.17 58.05"/><polygon class="cls-6" points="21.17 57.25 41.72 57.43 41.72 58.23 21.17 58.05 21.17 57.25"/><polygon class="cls-7" points="21.17 56.45 41.72 56.63 41.72 57.43 21.17 57.25 21.17 56.45"/><polygon class="cls-8" points="21.17 55.64 41.72 55.83 41.72 56.63 21.17 56.45 21.17 55.64"/><polygon class="cls-9" points="21.17 54.84 41.72 55.02 41.72 55.83 21.17 55.64 21.17 54.84"/><polygon class="cls-10" points="21.17 54.04 41.72 54.22 41.72 55.02 21.17 54.84 21.17 54.04"/><polygon class="cls-11" points="21.17 53.24 41.72 53.42 41.72 54.22 21.17 54.04 21.17 53.24"/><polygon class="cls-12" points="21.17 52.43 41.72 52.62 41.72 53.42 21.17 53.24 21.17 52.43"/><polygon class="cls-13" points="21.17 51.63 41.72 51.81 41.72 52.62 21.17 52.43 21.17 51.63"/><polygon class="cls-14" points="21.17 50.83 41.72 51.01 41.72 51.81 21.17 51.63 21.17 50.83"/><polygon class="cls-15" points="21.17 50.03 41.72 50.21 41.72 51.01 21.17 50.83 21.17 50.03"/><polygon class="cls-16" points="21.17 49.22 41.72 49.41 41.72 50.21 21.17 50.03 21.17 49.22"/><polygon class="cls-17" points="21.17 48.42 41.72 48.6 41.72 49.41 21.17 49.22 21.17 48.42"/><polygon class="cls-18" points="21.17 47.62 41.72 47.8 41.72 48.6 21.17 48.42 21.17 47.62"/><polygon class="cls-19" points="21.17 46.81 41.72 47 41.72 47.8 21.17 47.62 21.17 46.81"/><polygon class="cls-20" points="21.17 46.01 41.72 46.2 41.72 47 21.17 46.81 21.17 46.01"/><polygon class="cls-21" points="21.17 45.21 41.72 45.39 41.72 46.2 21.17 46.01 21.17 45.21"/><polygon class="cls-22" points="21.17 44.41 41.72 44.59 41.72 45.39 21.17 45.21 21.17 44.41"/><polygon class="cls-23" points="21.17 43.6 41.72 43.79 41.72 44.59 21.17 44.41 21.17 43.6"/><polygon class="cls-24" points="41.72 43.79 21.17 43.6 21.17 43.27 41.72 43.27 41.72 43.79"/><polygon class="cls-25" points="7.35 70.77 54.99 71.19 54.99 71.22 7.35 71.22 7.35 70.77"/><polygon class="cls-26" points="7.35 69.97 54.99 70.39 54.99 71.19 7.35 70.77 7.35 69.97"/><polygon class="cls-26" points="7.35 69.16 54.99 69.59 54.99 70.39 7.35 69.97 7.35 69.16"/><polygon class="cls-27" points="7.35 68.36 54.99 68.78 54.99 69.59 7.35 69.16 7.35 68.36"/><polygon class="cls-28" points="7.35 67.56 54.99 67.98 54.99 68.78 7.35 68.36 7.35 67.56"/><polygon class="cls-29" points="7.35 66.76 54.99 67.18 54.99 67.98 7.35 67.56 7.35 66.76"/><polygon class="cls-30" points="7.35 65.95 54.99 66.38 54.99 67.18 7.35 66.76 7.35 65.95"/><polygon class="cls-31" points="7.35 65.15 54.99 65.57 54.99 66.38 7.35 65.95 7.35 65.15"/><polygon class="cls-31" points="7.35 64.35 54.99 64.77 54.99 65.57 7.35 65.15 7.35 64.35"/><polygon class="cls-32" points="7.35 63.55 54.99 63.97 54.99 64.77 7.35 64.35 7.35 63.55"/><polygon class="cls-33" points="7.35 62.74 54.99 63.16 54.99 63.97 7.35 63.55 7.35 62.74"/><polygon class="cls-34" points="7.35 61.94 54.99 62.36 54.99 63.16 7.35 62.74 7.35 61.94"/><polygon class="cls-35" points="7.35 61.14 54.99 61.56 54.99 62.36 7.35 61.94 7.35 61.14"/><polygon class="cls-36" points="7.35 60.34 54.99 60.76 54.99 61.56 7.35 61.14 7.35 60.34"/><polygon class="cls-3" points="7.35 59.53 54.99 59.95 54.99 60.76 7.35 60.34 7.35 59.53"/><polygon class="cls-4" points="7.35 58.73 54.99 59.15 54.99 59.95 7.35 59.53 7.35 58.73"/><polygon class="cls-5" points="7.35 57.93 54.99 58.35 54.99 59.15 7.35 58.73 7.35 57.93"/><polygon class="cls-6" points="7.35 57.13 54.99 57.55 54.99 58.35 7.35 57.93 7.35 57.13"/><polygon class="cls-7" points="7.35 56.32 54.99 56.74 54.99 57.55 7.35 57.13 7.35 56.32"/><polygon class="cls-8" points="7.35 55.52 54.99 55.94 54.99 56.74 7.35 56.32 7.35 55.52"/><polygon class="cls-9" points="7.35 54.72 54.99 55.14 54.99 55.94 7.35 55.52 7.35 54.72"/><polygon class="cls-10" points="7.35 53.92 54.99 54.34 54.99 55.14 7.35 54.72 7.35 53.92"/><polygon class="cls-11" points="7.35 53.11 54.99 53.53 54.99 54.34 7.35 53.92 7.35 53.11"/><polygon class="cls-12" points="7.35 52.31 54.99 52.73 54.99 53.53 7.35 53.11 7.35 52.31"/><polygon class="cls-13" points="7.35 51.51 54.99 51.93 54.99 52.73 7.35 52.31 7.35 51.51"/><polygon class="cls-14" points="7.35 50.71 54.99 51.13 54.99 51.93 7.35 51.51 7.35 50.71"/><polygon class="cls-15" points="7.35 49.9 54.99 50.33 54.99 51.13 7.35 50.71 7.35 49.9"/><polygon class="cls-16" points="7.35 49.1 54.99 49.52 54.99 50.33 7.35 49.9 7.35 49.1"/><polygon class="cls-17" points="7.35 48.3 54.99 48.72 54.99 49.52 7.35 49.1 7.35 48.3"/><polygon class="cls-18" points="7.35 47.5 54.99 47.92 54.99 48.72 7.35 48.3 7.35 47.5"/><polygon class="cls-19" points="7.35 46.69 54.99 47.12 54.99 47.92 7.35 47.5 7.35 46.69"/><polygon class="cls-20" points="7.35 45.89 54.99 46.31 54.99 47.12 7.35 46.69 7.35 45.89"/><polygon class="cls-21" points="7.35 45.09 54.99 45.51 54.99 46.31 7.35 45.89 7.35 45.09"/><polygon class="cls-22" points="7.35 44.29 54.99 44.71 54.99 45.51 7.35 45.09 7.35 44.29"/><polygon class="cls-23" points="7.35 43.48 54.99 43.91 54.99 44.71 7.35 44.29 7.35 43.48"/><polygon class="cls-24" points="7.35 42.68 54.99 43.1 54.99 43.91 7.35 43.48 7.35 42.68"/><polygon class="cls-37" points="7.35 41.88 54.99 42.3 54.99 43.1 7.35 42.68 7.35 41.88"/><polygon class="cls-38" points="7.35 41.08 54.99 41.5 54.99 42.3 7.35 41.88 7.35 41.08"/><polygon class="cls-39" points="7.35 40.27 54.99 40.69 54.99 41.5 7.35 41.08 7.35 40.27"/><polygon class="cls-40" points="7.35 39.47 54.99 39.89 54.99 40.69 7.35 40.27 7.35 39.47"/><polygon class="cls-41" points="7.35 38.67 54.99 39.09 54.99 39.89 7.35 39.47 7.35 38.67"/><polygon class="cls-42" points="7.35 37.87 54.99 38.29 54.99 39.09 7.35 38.67 7.35 37.87"/><polygon class="cls-43" points="7.35 37.06 54.99 37.48 54.99 38.29 7.35 37.87 7.35 37.06"/><polygon class="cls-44" points="7.35 36.26 54.99 36.68 54.99 37.48 7.35 37.06 7.35 36.26"/><polygon class="cls-45" points="7.35 35.46 54.99 35.88 54.99 36.68 7.35 36.26 7.35 35.46"/><polygon class="cls-46" points="7.35 34.66 54.99 35.08 54.99 35.88 7.35 35.46 7.35 34.66"/><polygon class="cls-47" points="7.35 33.85 54.99 34.27 54.99 35.08 7.35 34.66 7.35 33.85"/><polygon class="cls-48" points="7.35 33.05 54.99 33.47 54.99 34.27 7.35 33.85 7.35 33.05"/><polygon class="cls-49" points="7.35 32.25 54.99 32.67 54.99 33.47 7.35 33.05 7.35 32.25"/><polygon class="cls-50" points="7.35 31.45 54.99 31.87 54.99 32.67 7.35 32.25 7.35 31.45"/><polygon class="cls-51" points="7.35 30.64 54.99 31.06 54.99 31.87 7.35 31.45 7.35 30.64"/><polygon class="cls-52" points="7.35 29.84 54.99 30.26 54.99 31.06 7.35 30.64 7.35 29.84"/><polygon class="cls-53" points="7.35 29.04 54.99 29.46 54.99 30.26 7.35 29.84 7.35 29.04"/><polygon class="cls-54" points="7.35 28.23 54.99 28.66 54.99 29.46 7.35 29.04 7.35 28.23"/><polygon class="cls-55" points="7.35 27.43 54.99 27.85 54.99 28.66 7.35 28.23 7.35 27.43"/><polygon class="cls-56" points="7.35 26.63 54.99 27.05 54.99 27.85 7.35 27.43 7.35 26.63"/><polygon class="cls-57" points="7.35 25.83 54.99 26.25 54.99 27.05 7.35 26.63 7.35 25.83"/><polygon class="cls-58" points="7.35 25.02 54.99 25.45 54.99 26.25 7.35 25.83 7.35 25.02"/><polygon class="cls-59" points="7.35 24.22 54.99 24.64 54.99 25.45 7.35 25.02 7.35 24.22"/><polygon class="cls-60" points="7.35 23.42 54.99 23.84 54.99 24.64 7.35 24.22 7.35 23.42"/><polygon class="cls-61" points="7.35 22.62 54.99 23.04 54.99 23.84 7.35 23.42 7.35 22.62"/><polygon class="cls-62" points="7.35 21.82 54.99 22.24 54.99 23.04 7.35 22.62 7.35 21.82"/><polygon class="cls-63" points="7.35 21.01 54.99 21.43 54.99 22.24 7.35 21.82 7.35 21.01"/><polygon class="cls-64" points="7.35 20.21 54.99 20.63 54.99 21.43 7.35 21.01 7.35 20.21"/><polygon class="cls-65" points="7.35 19.41 54.99 19.83 54.99 20.63 7.35 20.21 7.35 19.41"/><polygon class="cls-66" points="7.35 18.61 54.99 19.03 54.99 19.83 7.35 19.41 7.35 18.61"/><polygon class="cls-67" points="7.35 17.8 54.99 18.22 54.99 19.03 7.35 18.61 7.35 17.8"/><polygon class="cls-68" points="7.35 17 54.99 17.42 54.99 18.22 7.35 17.8 7.35 17"/><polygon class="cls-69" points="7.35 16.2 54.99 16.62 54.99 17.42 7.35 17 7.35 16.2"/><polygon class="cls-70" points="7.35 15.39 54.99 15.82 54.99 16.62 7.35 16.2 7.35 15.39"/><polygon class="cls-71" points="7.35 14.59 54.99 15.01 54.99 15.82 7.35 15.39 7.35 14.59"/><polygon class="cls-72" points="7.35 13.79 54.99 14.21 54.99 15.01 7.35 14.59 7.35 13.79"/><polygon class="cls-73" points="7.35 12.99 54.99 13.41 54.99 14.21 7.35 13.79 7.35 12.99"/><polygon class="cls-73" points="54.99 13.41 7.35 12.99 7.35 8.78 54.99 8.78 54.99 13.41"/></g><g class="cls-74"><rect class="cls-41" x="60.86" y="39.39" width="25.04" height="0.11"/><rect class="cls-75" x="60.86" y="38.88" width="25.04" height="0.51"/><rect class="cls-42" x="60.86" y="38.37" width="25.04" height="0.51"/><rect class="cls-43" x="60.86" y="37.87" width="25.04" height="0.51"/><rect class="cls-44" x="60.86" y="37.36" width="25.04" height="0.51"/><rect class="cls-76" x="60.86" y="36.86" width="25.04" height="0.51"/><rect class="cls-77" x="60.86" y="36.35" width="25.04" height="0.51"/><rect class="cls-78" x="60.86" y="35.85" width="25.04" height="0.51"/><rect class="cls-47" x="60.86" y="35.34" width="25.04" height="0.51"/><rect class="cls-48" x="60.86" y="34.83" width="25.04" height="0.51"/><rect class="cls-79" x="60.86" y="34.33" width="25.04" height="0.51"/><rect class="cls-49" x="60.86" y="33.82" width="25.04" height="0.51"/><rect class="cls-50" x="60.86" y="33.32" width="25.04" height="0.51"/><rect class="cls-80" x="60.86" y="32.81" width="25.04" height="0.51"/><rect class="cls-51" x="60.86" y="32.3" width="25.04" height="0.51"/><rect class="cls-52" x="60.86" y="31.8" width="25.04" height="0.51"/><rect class="cls-81" x="60.86" y="31.29" width="25.04" height="0.51"/><rect class="cls-53" x="60.86" y="30.79" width="25.04" height="0.51"/><rect class="cls-54" x="60.86" y="30.28" width="25.04" height="0.51"/><rect class="cls-82" x="60.86" y="29.78" width="25.04" height="0.51"/><rect class="cls-55" x="60.86" y="29.27" width="25.04" height="0.51"/><rect class="cls-56" x="60.86" y="28.76" width="25.04" height="0.51"/><rect class="cls-83" x="60.86" y="28.26" width="25.04" height="0.51"/><rect class="cls-57" x="60.86" y="27.75" width="25.04" height="0.51"/><rect class="cls-58" x="60.86" y="27.25" width="25.04" height="0.51"/><rect class="cls-84" x="60.86" y="26.74" width="25.04" height="0.51"/><rect class="cls-85" x="60.86" y="26.24" width="25.04" height="0.51"/><rect class="cls-86" x="60.86" y="25.73" width="25.04" height="0.51"/><rect class="cls-87" x="60.86" y="25.22" width="25.04" height="0.51"/><rect class="cls-88" x="60.86" y="24.72" width="25.04" height="0.51"/><rect class="cls-61" x="60.86" y="24.21" width="25.04" height="0.51"/><rect class="cls-89" x="60.86" y="23.71" width="25.04" height="0.51"/><rect class="cls-62" x="60.86" y="23.2" width="25.04" height="0.51"/><rect class="cls-90" x="60.86" y="22.7" width="25.04" height="0.51"/><rect class="cls-63" x="60.86" y="22.19" width="25.04" height="0.51"/><rect class="cls-64" x="60.86" y="21.68" width="25.04" height="0.51"/><rect class="cls-91" x="60.86" y="21.18" width="25.04" height="0.51"/><rect class="cls-65" x="60.86" y="20.67" width="25.04" height="0.51"/><rect class="cls-92" x="60.86" y="20.17" width="25.04" height="0.51"/><rect class="cls-66" x="60.86" y="19.66" width="25.04" height="0.51"/><rect class="cls-67" x="60.86" y="19.16" width="25.04" height="0.51"/><rect class="cls-93" x="60.86" y="18.65" width="25.04" height="0.51"/><rect class="cls-94" x="60.86" y="18.14" width="25.04" height="0.51"/><rect class="cls-68" x="60.86" y="17.64" width="25.04" height="0.51"/><rect class="cls-95" x="60.86" y="17.13" width="25.04" height="0.51"/><rect class="cls-69" x="60.86" y="16.63" width="25.04" height="0.51"/><rect class="cls-96" x="60.86" y="16.12" width="25.04" height="0.51"/><rect class="cls-97" x="60.86" y="15.62" width="25.04" height="0.51"/><rect class="cls-98" x="60.86" y="15.11" width="25.04" height="0.51"/><rect class="cls-71" x="60.86" y="14.6" width="25.04" height="0.51"/><rect class="cls-99" x="60.86" y="14.1" width="25.04" height="0.51"/><rect class="cls-72" x="60.86" y="13.59" width="25.04" height="0.51"/><rect class="cls-100" x="60.86" y="13.3" width="25.04" height="0.29"/></g></g></svg>