<svg xmlns="http://www.w3.org/2000/svg" xmlns:xlink="http://www.w3.org/1999/xlink" viewBox="0 0 164.3 80"><defs><style>.cls-1{fill:none;}.cls-2{clip-path:url(#clip-path);}.cls-3{fill:#c11f3a;}.cls-4{fill:#c21f3a;}.cls-5{fill:#c31f39;}.cls-6{fill:#c41f39;}.cls-7{fill:#c51f38;}.cls-8{fill:#c61f37;}.cls-9{fill:#c71f37;}.cls-10{fill:#c81f36;}.cls-11{fill:#c91e35;}.cls-12{fill:#ca1e35;}.cls-13{fill:#ca1e34;}.cls-14{fill:#cb1e33;}.cls-15{fill:#cc1e33;}.cls-16{fill:#cd1e32;}.cls-17{fill:#ce1e32;}.cls-18{fill:#cf1e31;}.cls-19{fill:#d01e30;}.cls-20{fill:#d11e30;}.cls-21{fill:#d21e2f;}.cls-22{fill:#d31d2e;}.cls-23{fill:#d41d2e;}.cls-24{fill:#d51d2d;}.cls-25{fill:#d61d2d;}.cls-26{fill:#d71d2c;}.cls-27{fill:#d81d2b;}.cls-28{fill:#d91d2b;}.cls-29{fill:#d91d2a;}.cls-30{fill:#da1d2a;}.cls-31{fill:#db1d29;}.cls-32{fill:#dc1d29;}.cls-33{fill:#dd1d28;}.cls-34{fill:#de1c27;}.cls-35{fill:#df1c27;}.cls-36{fill:#df1c26;}.cls-37{fill:#e01c26;}.cls-38{fill:#e11c25;}.cls-39{fill:#e21c25;}.cls-40{fill:#e21c24;}.cls-41{fill:#78266a;}.cls-42{fill:#792669;}.cls-43{fill:#7a2669;}.cls-44{fill:#7b2668;}.cls-45{fill:#7c2667;}.cls-46{fill:#7e2566;}.cls-47{fill:#7f2566;}.cls-48{fill:#802565;}.cls-49{fill:#812564;}.cls-50{fill:#822563;}.cls-51{fill:#832563;}.cls-52{fill:#842562;}.cls-53{fill:#852561;}.cls-54{fill:#862561;}.cls-55{fill:#882560;}.cls-56{fill:#89245f;}.cls-57{fill:#8a245e;}.cls-58{fill:#8b245e;}.cls-59{fill:#8c245d;}.cls-60{fill:#8d245c;}.cls-61{fill:#8e245c;}.cls-62{fill:#8f245b;}.cls-63{fill:#90245a;}.cls-64{fill:#912459;}.cls-65{fill:#922459;}.cls-66{fill:#942358;}.cls-67{fill:#952357;}.cls-68{fill:#962357;}.cls-69{fill:#972356;}.cls-70{fill:#982355;}.cls-71{fill:#992354;}.cls-72{fill:#9a2354;}.cls-73{fill:#9b2353;}.cls-74{fill:#9c2352;}.cls-75{fill:#9d2352;}.cls-76{fill:#9e2251;}.cls-77{fill:#9f2250;}.cls-78{fill:#a02250;}.cls-79{fill:#a2224f;}.cls-80{fill:#a3224e;}.cls-81{fill:#a4224d;}.cls-82{fill:#a5224d;}.cls-83{fill:#a6224c;}.cls-84{fill:#a7224b;}.cls-85{fill:#a8224b;}.cls-86{fill:#a9214a;}.cls-87{fill:#aa2149;}.cls-88{fill:#ab2149;}.cls-89{fill:#ac2148;}.cls-90{fill:#ad2147;}.cls-91{fill:#ae2147;}.cls-92{fill:#af2146;}.cls-93{fill:#b02145;}.cls-94{fill:#b12144;}.cls-95{fill:#b22144;}.cls-96{fill:#b32043;}.cls-97{fill:#b42042;}.cls-98{fill:#b52042;}.cls-99{fill:#b62041;}.cls-100{fill:#b82040;}.cls-101{fill:#b92040;}.cls-102{fill:#ba203f;}.cls-103{fill:#bb203e;}.cls-104{fill:#bc203e;}.cls-105{fill:#bd203d;}.cls-106{fill:#be1f3c;}.cls-107{fill:#bf1f3c;}.cls-108{fill:#c01f3b;}.cls-109{fill:#e31c24;}.cls-110{clip-path:url(#clip-path-2);}.cls-111{fill:#7c2668;}.cls-112{fill:#7d2667;}.cls-113{fill:#7f2565;}.cls-114{fill:#822564;}.cls-115{fill:#852562;}.cls-116{fill:#872560;}.cls-117{fill:#932358;}.cls-118{fill:#962356;}.cls-119{fill:#a1224f;}.cls-120{fill:#a5224c;}.cls-121{fill:#b12145;}.cls-122{fill:#b32144;}.cls-123{fill:#b42043;}.cls-124{fill:#b9203f;}.cls-125{fill:#c21f39;}.cls-126{fill:#c41f38;}.cls-127{fill:#c51f37;}.cls-128{fill:#cb1e34;}.cls-129{clip-path:url(#clip-path-3);}.cls-130{fill:#8b245d;}.cls-131{fill:#8e245b;}.cls-132{fill:#91245a;}.cls-133{fill:#992355;}.cls-134{fill:#79266a;}.cls-135{fill:#7a2668;}.cls-136{fill:#7d2566;}.cls-137{fill:#9c2353;}.cls-138{fill:#9f2251;}.cls-139{fill:#a8214a;}.cls-140{fill:#aa214a;}.cls-141{fill:#b72041;}.cls-142{fill:#c71f36;}.cls-143{fill:#d01e31;}.cls-144{fill:#dc1d28;}</style><clipPath id="clip-path"><path class="cls-1" d="M22.87,72.9A44.54,44.54,0,0,1,9.42,71L11.2,60.69A35.91,35.91,0,0,0,21.09,62c12.82,0,17.19-6.86,18.52-17.29C36.49,48,32,50,25.72,50,14.59,50,7,42.41,7,32c0-10.79,8.9-19.43,21.9-19.43,15.95,0,24,10.43,24,26.21C53,59,41.3,72.9,22.87,72.9Zm7-49.57c-6.51,0-10.07,4-10.07,8.21,0,5.08,4.1,8,9.89,8,6.14,0,10-3.57,10-8.2C39.61,26,34.8,23.33,29.82,23.33Z"/></clipPath><clipPath id="clip-path-2"><path class="cls-1" d="M84.32,72.9a56.22,56.22,0,0,1-21.11-4.28l2.94-10a55.54,55.54,0,0,0,18.17,3.29c8.19,0,12.2-3.74,12.2-8.37,0-4.82-3.66-7.94-10.51-7.94a21.45,21.45,0,0,0-9.71,2.05L66,42.05l2.94-28.61H105.6V24.58H79.86l-1.07,12a31.78,31.78,0,0,1,10.33-1.7c13,0,20.22,7.94,20.22,18.37S101.15,72.9,84.32,72.9Z"/></clipPath><clipPath id="clip-path-3"><path class="cls-1" d="M124.83,25.81c-5.25,0-8.52-4.21-8.52-9.41s3.27-9.3,8.52-9.3,8.46,4.11,8.46,9.3S130.07,25.81,124.83,25.81Zm0-14.4c-2.55,0-3.48,2.5-3.48,5s.93,5.1,3.48,5.1,3.42-2.6,3.42-5.1S127.37,11.41,124.83,11.41Zm5,30.82h-5.24L143.78,7.62H149Zm19,.57c-5.25,0-8.52-4.21-8.52-9.4s3.27-9.31,8.52-9.31,8.46,4.11,8.46,9.31S154.06,42.8,148.82,42.8Zm0-14.39c-2.55,0-3.48,2.49-3.48,5s.93,5.09,3.48,5.09,3.42-2.6,3.42-5.09S151.36,28.41,148.82,28.41Z"/></clipPath></defs><g id="Layer_1" data-name="Layer 1"><g class="cls-2"><polygon class="cls-3" points="21.96 39.56 39.61 39.25 39.61 39.56 21.96 39.56"/><polygon class="cls-4" points="19.75 39.15 39.61 38.8 39.61 39.25 21.96 39.56 19.75 39.56 19.75 39.15"/><polygon class="cls-5" points="19.75 38.7 39.61 38.35 39.61 38.8 19.75 39.15 19.75 38.7"/><polygon class="cls-6" points="19.75 38.26 39.61 37.9 39.61 38.35 19.75 38.7 19.75 38.26"/><polygon class="cls-7" points="19.75 37.81 39.61 37.46 39.61 37.9 19.75 38.26 19.75 37.81"/><polygon class="cls-8" points="19.75 37.36 39.61 37.01 39.61 37.46 19.75 37.81 19.75 37.36"/><polygon class="cls-9" points="19.75 36.91 39.61 36.56 39.61 37.01 19.75 37.36 19.75 36.91"/><polygon class="cls-10" points="19.75 36.46 39.61 36.11 39.61 36.56 19.75 36.91 19.75 36.46"/><polygon class="cls-11" points="19.75 36.02 39.61 35.66 39.61 36.11 19.75 36.46 19.75 36.02"/><polygon class="cls-12" points="19.75 35.57 39.61 35.22 39.61 35.66 19.75 36.02 19.75 35.57"/><polygon class="cls-13" points="19.75 35.12 39.61 34.77 39.61 35.22 19.75 35.57 19.75 35.12"/><polygon class="cls-14" points="19.75 34.67 39.61 34.32 39.61 34.77 19.75 35.12 19.75 34.67"/><polygon class="cls-15" points="19.75 34.23 39.61 33.87 39.61 34.32 19.75 34.67 19.75 34.23"/><polygon class="cls-16" points="19.75 33.78 39.61 33.43 39.61 33.87 19.75 34.23 19.75 33.78"/><polygon class="cls-17" points="19.75 33.33 39.61 32.98 39.61 33.43 19.75 33.78 19.75 33.33"/><polygon class="cls-18" points="19.75 32.88 39.61 32.53 39.61 32.98 19.75 33.33 19.75 32.88"/><polygon class="cls-19" points="19.75 32.43 39.61 32.08 39.61 32.53 19.75 32.88 19.75 32.43"/><polygon class="cls-20" points="19.75 31.99 39.61 31.64 39.61 32.08 19.75 32.43 19.75 31.99"/><polygon class="cls-21" points="19.75 31.54 39.61 31.19 39.61 31.64 19.75 31.99 19.75 31.54"/><polygon class="cls-22" points="19.75 31.09 39.61 30.74 39.61 31.19 19.75 31.54 19.75 31.09"/><polygon class="cls-23" points="19.75 30.64 39.61 30.29 39.61 30.74 19.75 31.09 19.75 30.64"/><polygon class="cls-24" points="19.75 30.2 39.61 29.84 39.61 30.29 19.75 30.64 19.75 30.2"/><polygon class="cls-25" points="19.75 29.75 39.61 29.4 39.61 29.84 19.75 30.2 19.75 29.75"/><polygon class="cls-26" points="19.75 29.3 39.61 28.95 39.61 29.4 19.75 29.75 19.75 29.3"/><polygon class="cls-27" points="19.75 28.85 39.61 28.5 39.61 28.95 19.75 29.3 19.75 28.85"/><polygon class="cls-28" points="19.75 28.41 39.61 28.05 39.61 28.5 19.75 28.85 19.75 28.41"/><polygon class="cls-29" points="19.75 27.96 39.61 27.61 39.61 28.05 19.75 28.41 19.75 27.96"/><polygon class="cls-30" points="19.75 27.51 39.61 27.16 39.61 27.61 19.75 27.96 19.75 27.51"/><polygon class="cls-31" points="19.75 27.06 39.61 26.71 39.61 27.16 19.75 27.51 19.75 27.06"/><polygon class="cls-32" points="19.75 26.61 39.61 26.26 39.61 26.71 19.75 27.06 19.75 26.61"/><polygon class="cls-33" points="19.75 26.17 39.61 25.82 39.61 26.26 19.75 26.61 19.75 26.17"/><polygon class="cls-34" points="19.75 25.72 39.61 25.37 39.61 25.82 19.75 26.17 19.75 25.72"/><polygon class="cls-35" points="19.75 25.27 39.61 24.92 39.61 25.37 19.75 25.72 19.75 25.27"/><polygon class="cls-36" points="19.75 24.82 39.61 24.47 39.61 24.92 19.75 25.27 19.75 24.82"/><polygon class="cls-37" points="19.75 24.38 39.61 24.02 39.61 24.47 19.75 24.82 19.75 24.38"/><polygon class="cls-38" points="19.75 23.93 39.61 23.58 39.61 24.02 19.75 24.38 19.75 23.93"/><polygon class="cls-39" points="19.75 23.48 28 23.33 39.61 23.33 39.61 23.58 19.75 23.93 19.75 23.48"/><polygon class="cls-40" points="28 23.33 19.75 23.48 19.75 23.33 28 23.33"/><polygon class="cls-41" points="7.02 70.72 52.97 69.9 52.97 72.9 7.02 72.9 7.02 70.72"/><polygon class="cls-41" points="7.02 70.27 52.97 69.46 52.97 69.9 7.02 70.72 7.02 70.27"/><polygon class="cls-42" points="7.02 69.82 52.97 69.01 52.97 69.46 7.02 70.27 7.02 69.82"/><polygon class="cls-43" points="7.02 69.37 52.97 68.56 52.97 69.01 7.02 69.82 7.02 69.37"/><polygon class="cls-44" points="7.02 68.92 52.97 68.11 52.97 68.56 7.02 69.37 7.02 68.92"/><polygon class="cls-45" points="7.02 68.48 52.97 67.67 52.97 68.11 7.02 68.92 7.02 68.48"/><polygon class="cls-46" points="7.02 68.03 52.97 67.22 52.97 67.67 7.02 68.48 7.02 68.03"/><polygon class="cls-47" points="7.02 67.58 52.97 66.77 52.97 67.22 7.02 68.03 7.02 67.58"/><polygon class="cls-48" points="7.02 67.13 52.97 66.32 52.97 66.77 7.02 67.58 7.02 67.13"/><polygon class="cls-49" points="7.02 66.69 52.97 65.88 52.97 66.32 7.02 67.13 7.02 66.69"/><polygon class="cls-50" points="7.02 66.24 52.97 65.43 52.97 65.88 7.02 66.69 7.02 66.24"/><polygon class="cls-51" points="7.02 65.79 52.97 64.98 52.97 65.43 7.02 66.24 7.02 65.79"/><polygon class="cls-52" points="7.02 65.34 52.97 64.53 52.97 64.98 7.02 65.79 7.02 65.34"/><polygon class="cls-53" points="7.02 64.9 52.97 64.08 52.97 64.53 7.02 65.34 7.02 64.9"/><polygon class="cls-54" points="7.02 64.45 52.97 63.64 52.97 64.08 7.02 64.9 7.02 64.45"/><polygon class="cls-55" points="7.02 64 52.97 63.19 52.97 63.64 7.02 64.45 7.02 64"/><polygon class="cls-56" points="7.02 63.55 52.97 62.74 52.97 63.19 7.02 64 7.02 63.55"/><polygon class="cls-57" points="7.02 63.1 52.97 62.29 52.97 62.74 7.02 63.55 7.02 63.1"/><polygon class="cls-58" points="7.02 62.66 52.97 61.84 52.97 62.29 7.02 63.1 7.02 62.66"/><polygon class="cls-59" points="7.02 62.21 52.97 61.4 52.97 61.84 7.02 62.66 7.02 62.21"/><polygon class="cls-60" points="7.02 61.76 52.97 60.95 52.97 61.4 7.02 62.21 7.02 61.76"/><polygon class="cls-61" points="7.02 61.31 52.97 60.5 52.97 60.95 7.02 61.76 7.02 61.31"/><polygon class="cls-62" points="7.02 60.87 52.97 60.05 52.97 60.5 7.02 61.31 7.02 60.87"/><polygon class="cls-63" points="7.02 60.42 52.97 59.61 52.97 60.05 7.02 60.87 7.02 60.42"/><polygon class="cls-64" points="7.02 59.97 52.97 59.16 52.97 59.61 7.02 60.42 7.02 59.97"/><polygon class="cls-65" points="7.02 59.52 52.97 58.71 52.97 59.16 7.02 59.97 7.02 59.52"/><polygon class="cls-66" points="7.02 59.08 52.97 58.26 52.97 58.71 7.02 59.52 7.02 59.08"/><polygon class="cls-67" points="7.02 58.63 52.97 57.82 52.97 58.26 7.02 59.08 7.02 58.63"/><polygon class="cls-68" points="7.02 58.18 52.97 57.37 52.97 57.82 7.02 58.63 7.02 58.18"/><polygon class="cls-69" points="7.02 57.73 52.97 56.92 52.97 57.37 7.02 58.18 7.02 57.73"/><polygon class="cls-70" points="7.02 57.28 52.97 56.47 52.97 56.92 7.02 57.73 7.02 57.28"/><polygon class="cls-71" points="7.02 56.84 52.97 56.02 52.97 56.47 7.02 57.28 7.02 56.84"/><polygon class="cls-72" points="7.02 56.39 52.97 55.58 52.97 56.02 7.02 56.84 7.02 56.39"/><polygon class="cls-73" points="7.02 55.94 52.97 55.13 52.97 55.58 7.02 56.39 7.02 55.94"/><polygon class="cls-74" points="7.02 55.49 52.97 54.68 52.97 55.13 7.02 55.94 7.02 55.49"/><polygon class="cls-75" points="7.02 55.05 52.97 54.23 52.97 54.68 7.02 55.49 7.02 55.05"/><polygon class="cls-76" points="7.02 54.6 52.97 53.79 52.97 54.23 7.02 55.05 7.02 54.6"/><polygon class="cls-77" points="7.02 54.15 52.97 53.34 52.97 53.79 7.02 54.6 7.02 54.15"/><polygon class="cls-78" points="7.02 53.7 52.97 52.89 52.97 53.34 7.02 54.15 7.02 53.7"/><polygon class="cls-79" points="7.02 53.26 52.97 52.44 52.97 52.89 7.02 53.7 7.02 53.26"/><polygon class="cls-80" points="7.02 52.81 52.97 51.99 52.97 52.44 7.02 53.26 7.02 52.81"/><polygon class="cls-81" points="7.02 52.36 52.97 51.55 52.97 51.99 7.02 52.81 7.02 52.36"/><polygon class="cls-82" points="7.02 51.91 52.97 51.1 52.97 51.55 7.02 52.36 7.02 51.91"/><polygon class="cls-83" points="7.02 51.46 52.97 50.65 52.97 51.1 7.02 51.91 7.02 51.46"/><polygon class="cls-84" points="7.02 51.02 52.97 50.2 52.97 50.65 7.02 51.46 7.02 51.02"/><polygon class="cls-85" points="7.02 50.57 52.97 49.76 52.97 50.2 7.02 51.02 7.02 50.57"/><polygon class="cls-86" points="7.02 50.12 52.97 49.31 52.97 49.76 7.02 50.57 7.02 50.12"/><polygon class="cls-87" points="7.02 49.67 52.97 48.86 52.97 49.31 7.02 50.12 7.02 49.67"/><polygon class="cls-88" points="7.02 49.23 52.97 48.41 52.97 48.86 7.02 49.67 7.02 49.23"/><polygon class="cls-89" points="7.02 48.78 52.97 47.97 52.97 48.41 7.02 49.23 7.02 48.78"/><polygon class="cls-90" points="7.02 48.33 52.97 47.52 52.97 47.97 7.02 48.78 7.02 48.33"/><polygon class="cls-91" points="7.02 47.88 52.97 47.07 52.97 47.52 7.02 48.33 7.02 47.88"/><polygon class="cls-92" points="7.02 47.43 52.97 46.62 52.97 47.07 7.02 47.88 7.02 47.43"/><polygon class="cls-93" points="7.02 46.99 52.97 46.17 52.97 46.62 7.02 47.43 7.02 46.99"/><polygon class="cls-94" points="7.02 46.54 52.97 45.73 52.97 46.17 7.02 46.99 7.02 46.54"/><polygon class="cls-95" points="7.02 46.09 52.97 45.28 52.97 45.73 7.02 46.54 7.02 46.09"/><polygon class="cls-96" points="7.02 45.64 52.97 44.83 52.97 45.28 7.02 46.09 7.02 45.64"/><polygon class="cls-97" points="7.02 45.2 52.97 44.38 52.97 44.83 7.02 45.64 7.02 45.2"/><polygon class="cls-98" points="7.02 44.75 52.97 43.94 52.97 44.38 7.02 45.2 7.02 44.75"/><polygon class="cls-99" points="7.02 44.3 52.97 43.49 52.97 43.94 7.02 44.75 7.02 44.3"/><polygon class="cls-100" points="7.02 43.85 52.97 43.04 52.97 43.49 7.02 44.3 7.02 43.85"/><polygon class="cls-101" points="7.02 43.41 52.97 42.59 52.97 43.04 7.02 43.85 7.02 43.41"/><polygon class="cls-102" points="7.02 42.96 52.97 42.15 52.97 42.59 7.02 43.41 7.02 42.96"/><polygon class="cls-103" points="7.02 42.51 52.97 41.7 52.97 42.15 7.02 42.96 7.02 42.51"/><polygon class="cls-104" points="7.02 42.06 52.97 41.25 52.97 41.7 7.02 42.51 7.02 42.06"/><polygon class="cls-105" points="7.02 41.61 52.97 40.8 52.97 41.25 7.02 42.06 7.02 41.61"/><polygon class="cls-106" points="7.02 41.17 52.97 40.35 52.97 40.8 7.02 41.61 7.02 41.17"/><polygon class="cls-107" points="7.02 40.72 52.97 39.91 52.97 40.35 7.02 41.17 7.02 40.72"/><polygon class="cls-108" points="7.02 40.27 52.97 39.46 52.97 39.91 7.02 40.72 7.02 40.27"/><polygon class="cls-3" points="7.02 39.82 52.97 39.01 52.97 39.46 7.02 40.27 7.02 39.82"/><polygon class="cls-4" points="7.02 39.38 52.97 38.56 52.97 39.01 7.02 39.82 7.02 39.38"/><polygon class="cls-5" points="7.02 38.93 52.97 38.12 52.97 38.56 7.02 39.38 7.02 38.93"/><polygon class="cls-6" points="7.02 38.48 52.97 37.67 52.97 38.12 7.02 38.93 7.02 38.48"/><polygon class="cls-7" points="7.02 38.03 52.97 37.22 52.97 37.67 7.02 38.48 7.02 38.03"/><polygon class="cls-8" points="7.02 37.58 52.97 36.77 52.97 37.22 7.02 38.03 7.02 37.58"/><polygon class="cls-9" points="7.02 37.14 52.97 36.33 52.97 36.77 7.02 37.58 7.02 37.14"/><polygon class="cls-10" points="7.02 36.69 52.97 35.88 52.97 36.33 7.02 37.14 7.02 36.69"/><polygon class="cls-11" points="7.02 36.24 52.97 35.43 52.97 35.88 7.02 36.69 7.02 36.24"/><polygon class="cls-12" points="7.02 35.79 52.97 34.98 52.97 35.43 7.02 36.24 7.02 35.79"/><polygon class="cls-13" points="7.02 35.35 52.97 34.53 52.97 34.98 7.02 35.79 7.02 35.35"/><polygon class="cls-14" points="7.02 34.9 52.97 34.09 52.97 34.53 7.02 35.35 7.02 34.9"/><polygon class="cls-15" points="7.02 34.45 52.97 33.64 52.97 34.09 7.02 34.9 7.02 34.45"/><polygon class="cls-16" points="7.02 34 52.97 33.19 52.97 33.64 7.02 34.45 7.02 34"/><polygon class="cls-17" points="7.02 33.55 52.97 32.74 52.97 33.19 7.02 34 7.02 33.55"/><polygon class="cls-18" points="7.02 33.11 52.97 32.3 52.97 32.74 7.02 33.55 7.02 33.11"/><polygon class="cls-19" points="7.02 32.66 52.97 31.85 52.97 32.3 7.02 33.11 7.02 32.66"/><polygon class="cls-20" points="7.02 32.21 52.97 31.4 52.97 31.85 7.02 32.66 7.02 32.21"/><polygon class="cls-21" points="7.02 31.76 52.97 30.95 52.97 31.4 7.02 32.21 7.02 31.76"/><polygon class="cls-22" points="7.02 31.32 52.97 30.5 52.97 30.95 7.02 31.76 7.02 31.32"/><polygon class="cls-23" points="7.02 30.87 52.97 30.06 52.97 30.5 7.02 31.32 7.02 30.87"/><polygon class="cls-24" points="7.02 30.42 52.97 29.61 52.97 30.06 7.02 30.87 7.02 30.42"/><polygon class="cls-25" points="7.02 29.97 52.97 29.16 52.97 29.61 7.02 30.42 7.02 29.97"/><polygon class="cls-26" points="7.02 29.52 52.97 28.71 52.97 29.16 7.02 29.97 7.02 29.52"/><polygon class="cls-27" points="7.02 29.08 52.97 28.27 52.97 28.71 7.02 29.52 7.02 29.08"/><polygon class="cls-28" points="7.02 28.63 52.97 27.82 52.97 28.27 7.02 29.08 7.02 28.63"/><polygon class="cls-29" points="7.02 28.18 52.97 27.37 52.97 27.82 7.02 28.63 7.02 28.18"/><polygon class="cls-30" points="7.02 27.73 52.97 26.92 52.97 27.37 7.02 28.18 7.02 27.73"/><polygon class="cls-31" points="7.02 27.29 52.97 26.48 52.97 26.92 7.02 27.73 7.02 27.29"/><polygon class="cls-32" points="7.02 26.84 52.97 26.03 52.97 26.48 7.02 27.29 7.02 26.84"/><polygon class="cls-33" points="7.02 26.39 52.97 25.58 52.97 26.03 7.02 26.84 7.02 26.39"/><polygon class="cls-34" points="7.02 25.94 52.97 25.13 52.97 25.58 7.02 26.39 7.02 25.94"/><polygon class="cls-35" points="7.02 25.5 52.97 24.68 52.97 25.13 7.02 25.94 7.02 25.5"/><polygon class="cls-36" points="7.02 25.05 52.97 24.24 52.97 24.68 7.02 25.5 7.02 25.05"/><polygon class="cls-37" points="7.02 24.6 52.97 23.79 52.97 24.24 7.02 25.05 7.02 24.6"/><polygon class="cls-38" points="7.02 24.15 52.97 23.34 52.97 23.79 7.02 24.6 7.02 24.15"/><polygon class="cls-39" points="7.02 23.7 52.97 22.89 52.97 23.34 7.02 24.15 7.02 23.7"/><polygon class="cls-40" points="7.02 23.26 52.97 22.45 52.97 22.89 7.02 23.7 7.02 23.26"/><polygon class="cls-109" points="7.02 22.81 52.97 22 52.97 22.45 7.02 23.26 7.02 22.81"/><polygon class="cls-109" points="52.97 22 7.02 22.81 7.02 12.55 52.97 12.55 52.97 22"/></g><g class="cls-110"><polygon class="cls-43" points="91.31 72.9 109.34 72.5 109.34 72.9 91.31 72.9"/><polygon class="cls-43" points="73.24 72.9 109.34 72.11 109.34 72.5 91.31 72.9 73.24 72.9"/><polygon class="cls-43" points="63.21 72.72 109.34 71.71 109.34 72.11 73.24 72.9 63.21 72.9 63.21 72.72"/><polygon class="cls-44" points="63.21 72.33 109.34 71.31 109.34 71.71 63.21 72.72 63.21 72.33"/><polygon class="cls-44" points="63.21 71.93 109.34 70.91 109.34 71.31 63.21 72.33 63.21 71.93"/><polygon class="cls-111" points="63.21 71.53 109.34 70.52 109.34 70.91 63.21 71.93 63.21 71.53"/><polygon class="cls-45" points="63.21 71.13 109.34 70.12 109.34 70.52 63.21 71.53 63.21 71.13"/><polygon class="cls-112" points="63.21 70.74 109.34 69.72 109.34 70.12 63.21 71.13 63.21 70.74"/><polygon class="cls-112" points="63.21 70.34 109.34 69.32 109.34 69.72 63.21 70.74 63.21 70.34"/><polygon class="cls-46" points="63.21 69.94 109.34 68.93 109.34 69.32 63.21 70.34 63.21 69.94"/><polygon class="cls-46" points="63.21 69.54 109.34 68.53 109.34 68.93 63.21 69.94 63.21 69.54"/><polygon class="cls-47" points="63.21 69.15 109.34 68.13 109.34 68.53 63.21 69.54 63.21 69.15"/><polygon class="cls-113" points="63.21 68.75 109.34 67.73 109.34 68.13 63.21 69.15 63.21 68.75"/><polygon class="cls-48" points="63.21 68.35 109.34 67.34 109.34 67.73 63.21 68.75 63.21 68.35"/><polygon class="cls-49" points="63.21 67.95 109.34 66.94 109.34 67.34 63.21 68.35 63.21 67.95"/><polygon class="cls-49" points="63.21 67.56 109.34 66.54 109.34 66.94 63.21 67.95 63.21 67.56"/><polygon class="cls-114" points="63.21 67.16 109.34 66.14 109.34 66.54 63.21 67.56 63.21 67.16"/><polygon class="cls-51" points="63.21 66.76 109.34 65.75 109.34 66.14 63.21 67.16 63.21 66.76"/><polygon class="cls-51" points="63.21 66.36 109.34 65.35 109.34 65.75 63.21 66.76 63.21 66.36"/><polygon class="cls-52" points="63.21 65.97 109.34 64.95 109.34 65.35 63.21 66.36 63.21 65.97"/><polygon class="cls-115" points="63.21 65.57 109.34 64.56 109.34 64.95 63.21 65.97 63.21 65.57"/><polygon class="cls-53" points="63.21 65.17 109.34 64.16 109.34 64.56 63.21 65.57 63.21 65.17"/><polygon class="cls-54" points="63.21 64.78 109.34 63.76 109.34 64.16 63.21 65.17 63.21 64.78"/><polygon class="cls-116" points="63.21 64.38 109.34 63.36 109.34 63.76 63.21 64.78 63.21 64.38"/><polygon class="cls-55" points="63.21 63.98 109.34 62.97 109.34 63.36 63.21 64.38 63.21 63.98"/><polygon class="cls-56" points="63.21 63.58 109.34 62.57 109.34 62.97 63.21 63.98 63.21 63.58"/><polygon class="cls-56" points="63.21 63.19 109.34 62.17 109.34 62.57 63.21 63.58 63.21 63.19"/><polygon class="cls-57" points="63.21 62.79 109.34 61.77 109.34 62.17 63.21 63.19 63.21 62.79"/><polygon class="cls-58" points="63.21 62.39 109.34 61.38 109.34 61.77 63.21 62.79 63.21 62.39"/><polygon class="cls-59" points="63.21 61.99 109.34 60.98 109.34 61.38 63.21 62.39 63.21 61.99"/><polygon class="cls-60" points="63.21 61.6 109.34 60.58 109.34 60.98 63.21 61.99 63.21 61.6"/><polygon class="cls-61" points="63.21 61.2 109.34 60.18 109.34 60.58 63.21 61.6 63.21 61.2"/><polygon class="cls-62" points="63.21 60.8 109.34 59.79 109.34 60.18 63.21 61.2 63.21 60.8"/><polygon class="cls-62" points="63.21 60.4 109.34 59.39 109.34 59.79 63.21 60.8 63.21 60.4"/><polygon class="cls-63" points="63.21 60.01 109.34 58.99 109.34 59.39 63.21 60.4 63.21 60.01"/><polygon class="cls-64" points="63.21 59.61 109.34 58.59 109.34 58.99 63.21 60.01 63.21 59.61"/><polygon class="cls-65" points="63.21 59.21 109.34 58.2 109.34 58.59 63.21 59.61 63.21 59.21"/><polygon class="cls-117" points="63.21 58.81 109.34 57.8 109.34 58.2 63.21 59.21 63.21 58.81"/><polygon class="cls-66" points="63.21 58.42 109.34 57.4 109.34 57.8 63.21 58.81 63.21 58.42"/><polygon class="cls-67" points="63.21 58.02 109.34 57.01 109.34 57.4 63.21 58.42 63.21 58.02"/><polygon class="cls-118" points="63.21 57.62 109.34 56.61 109.34 57.01 63.21 58.02 63.21 57.62"/><polygon class="cls-69" points="63.21 57.23 109.34 56.21 109.34 56.61 63.21 57.62 63.21 57.23"/><polygon class="cls-70" points="63.21 56.83 109.34 55.81 109.34 56.21 63.21 57.23 63.21 56.83"/><polygon class="cls-71" points="63.21 56.43 109.34 55.42 109.34 55.81 63.21 56.83 63.21 56.43"/><polygon class="cls-72" points="63.21 56.03 109.34 55.02 109.34 55.42 63.21 56.43 63.21 56.03"/><polygon class="cls-73" points="63.21 55.63 109.34 54.62 109.34 55.02 63.21 56.03 63.21 55.63"/><polygon class="cls-74" points="63.21 55.24 109.34 54.22 109.34 54.62 63.21 55.63 63.21 55.24"/><polygon class="cls-75" points="63.21 54.84 109.34 53.83 109.34 54.22 63.21 55.24 63.21 54.84"/><polygon class="cls-76" points="63.21 54.44 109.34 53.43 109.34 53.83 63.21 54.84 63.21 54.44"/><polygon class="cls-78" points="63.21 54.05 109.34 53.03 109.34 53.43 63.21 54.44 63.21 54.05"/><polygon class="cls-119" points="63.21 53.65 109.34 52.63 109.34 53.03 63.21 54.05 63.21 53.65"/><polygon class="cls-79" points="63.21 53.25 109.34 52.24 109.34 52.63 63.21 53.65 63.21 53.25"/><polygon class="cls-80" points="63.21 52.85 109.34 51.84 109.34 52.24 63.21 53.25 63.21 52.85"/><polygon class="cls-81" points="63.21 52.46 109.34 51.44 109.34 51.84 63.21 52.85 63.21 52.46"/><polygon class="cls-120" points="63.21 52.06 109.34 51.04 109.34 51.44 63.21 52.46 63.21 52.06"/><polygon class="cls-83" points="63.21 51.66 109.34 50.65 109.34 51.04 63.21 52.06 63.21 51.66"/><polygon class="cls-85" points="63.21 51.26 109.34 50.25 109.34 50.65 63.21 51.66 63.21 51.26"/><polygon class="cls-86" points="63.21 50.87 109.34 49.85 109.34 50.25 63.21 51.26 63.21 50.87"/><polygon class="cls-87" points="63.21 50.47 109.34 49.45 109.34 49.85 63.21 50.87 63.21 50.47"/><polygon class="cls-88" points="63.21 50.07 109.34 49.06 109.34 49.45 63.21 50.47 63.21 50.07"/><polygon class="cls-89" points="63.21 49.67 109.34 48.66 109.34 49.06 63.21 50.07 63.21 49.67"/><polygon class="cls-91" points="63.21 49.28 109.34 48.26 109.34 48.66 63.21 49.67 63.21 49.28"/><polygon class="cls-92" points="63.21 48.88 109.34 47.87 109.34 48.26 63.21 49.28 63.21 48.88"/><polygon class="cls-93" points="63.21 48.48 109.34 47.47 109.34 47.87 63.21 48.88 63.21 48.48"/><polygon class="cls-121" points="63.21 48.09 109.34 47.07 109.34 47.47 63.21 48.48 63.21 48.09"/><polygon class="cls-122" points="63.21 47.69 109.34 46.67 109.34 47.07 63.21 48.09 63.21 47.69"/><polygon class="cls-123" points="63.21 47.29 109.34 46.27 109.34 46.67 63.21 47.69 63.21 47.29"/><polygon class="cls-98" points="63.21 46.89 109.34 45.88 109.34 46.27 63.21 47.29 63.21 46.89"/><polygon class="cls-99" points="63.21 46.49 109.34 45.48 109.34 45.88 63.21 46.89 63.21 46.49"/><polygon class="cls-100" points="63.21 46.1 109.34 45.08 109.34 45.48 63.21 46.49 63.21 46.1"/><polygon class="cls-124" points="63.21 45.7 109.34 44.69 109.34 45.08 63.21 46.1 63.21 45.7"/><polygon class="cls-102" points="63.21 45.3 109.34 44.29 109.34 44.69 63.21 45.7 63.21 45.3"/><polygon class="cls-104" points="63.21 44.91 109.34 43.89 109.34 44.29 63.21 45.3 63.21 44.91"/><polygon class="cls-105" points="63.21 44.51 109.34 43.49 109.34 43.89 63.21 44.91 63.21 44.51"/><polygon class="cls-106" points="63.21 44.11 109.34 43.1 109.34 43.49 63.21 44.51 63.21 44.11"/><polygon class="cls-108" points="63.21 43.71 109.34 42.7 109.34 43.1 63.21 44.11 63.21 43.71"/><polygon class="cls-3" points="63.21 43.32 109.34 42.3 109.34 42.7 63.21 43.71 63.21 43.32"/><polygon class="cls-125" points="63.21 42.92 109.34 41.9 109.34 42.3 63.21 43.32 63.21 42.92"/><polygon class="cls-126" points="63.21 42.52 109.34 41.51 109.34 41.9 63.21 42.92 63.21 42.52"/><polygon class="cls-127" points="63.21 42.12 109.34 41.11 109.34 41.51 63.21 42.52 63.21 42.12"/><polygon class="cls-9" points="63.21 41.73 109.34 40.71 109.34 41.11 63.21 42.12 63.21 41.73"/><polygon class="cls-10" points="63.21 41.33 109.34 40.31 109.34 40.71 63.21 41.73 63.21 41.33"/><polygon class="cls-11" points="63.21 40.93 109.34 39.92 109.34 40.31 63.21 41.33 63.21 40.93"/><polygon class="cls-128" points="63.21 40.53 109.34 39.52 109.34 39.92 63.21 40.93 63.21 40.53"/><polygon class="cls-15" points="63.21 40.14 109.34 39.12 109.34 39.52 63.21 40.53 63.21 40.14"/><polygon class="cls-17" points="63.21 39.74 109.34 38.73 109.34 39.12 63.21 40.14 63.21 39.74"/><polygon class="cls-18" points="63.21 39.34 109.34 38.33 109.34 38.73 63.21 39.74 63.21 39.34"/><polygon class="cls-20" points="63.21 38.94 109.34 37.93 109.34 38.33 63.21 39.34 63.21 38.94"/><polygon class="cls-21" points="63.21 38.55 109.34 37.53 109.34 37.93 63.21 38.94 63.21 38.55"/><polygon class="cls-23" points="63.21 38.15 109.34 37.13 109.34 37.53 63.21 38.55 63.21 38.15"/><polygon class="cls-24" points="63.21 37.75 109.34 36.74 109.34 37.13 63.21 38.15 63.21 37.75"/><polygon class="cls-26" points="63.21 37.35 109.34 36.34 109.34 36.74 63.21 37.75 63.21 37.35"/><polygon class="cls-27" points="63.21 36.96 109.34 35.94 109.34 36.34 63.21 37.35 63.21 36.96"/><polygon class="cls-30" points="63.21 36.56 109.34 35.55 109.34 35.94 63.21 36.96 63.21 36.56"/><polygon class="cls-31" points="63.21 36.16 109.34 35.15 109.34 35.55 63.21 36.56 63.21 36.16"/><polygon class="cls-33" points="63.21 35.77 109.34 34.75 109.34 35.15 63.21 36.16 63.21 35.77"/><polygon class="cls-34" points="63.21 35.37 109.34 34.35 109.34 34.75 63.21 35.77 63.21 35.37"/><polygon class="cls-37" points="63.21 34.97 109.34 33.96 109.34 34.35 63.21 35.37 63.21 34.97"/><polygon class="cls-38" points="63.21 34.57 109.34 33.56 109.34 33.96 63.21 34.97 63.21 34.57"/><polygon class="cls-109" points="63.21 34.18 109.34 33.16 109.34 33.56 63.21 34.57 63.21 34.18"/><polygon class="cls-109" points="109.34 33.16 63.21 34.18 63.21 13.44 109.34 13.44 109.34 33.16"/></g><g class="cls-129"><polygon class="cls-113" points="145.34 38.37 152.25 38.3 152.25 38.49 145.34 38.49 145.34 38.37"/><polygon class="cls-48" points="145.34 38.02 152.25 37.94 152.25 38.3 145.34 38.37 145.34 38.02"/><polygon class="cls-49" points="145.34 37.66 152.25 37.59 152.25 37.94 145.34 38.02 145.34 37.66"/><polygon class="cls-114" points="145.34 37.31 152.25 37.24 152.25 37.59 145.34 37.66 145.34 37.31"/><polygon class="cls-50" points="145.34 36.96 152.25 36.88 152.25 37.24 145.34 37.31 145.34 36.96"/><polygon class="cls-51" points="145.34 36.6 152.25 36.53 152.25 36.88 145.34 36.96 145.34 36.6"/><polygon class="cls-52" points="145.34 36.25 152.25 36.18 152.25 36.53 145.34 36.6 145.34 36.25"/><polygon class="cls-115" points="145.34 35.9 152.25 35.83 152.25 36.18 145.34 36.25 145.34 35.9"/><polygon class="cls-54" points="145.34 35.55 152.25 35.47 152.25 35.83 145.34 35.9 145.34 35.55"/><polygon class="cls-54" points="145.34 35.19 152.25 35.12 152.25 35.47 145.34 35.55 145.34 35.19"/><polygon class="cls-116" points="145.34 34.84 152.25 34.77 152.25 35.12 145.34 35.19 145.34 34.84"/><polygon class="cls-55" points="145.34 34.49 152.25 34.41 152.25 34.77 145.34 34.84 145.34 34.49"/><polygon class="cls-56" points="145.34 34.13 152.25 34.06 152.25 34.41 145.34 34.49 145.34 34.13"/><polygon class="cls-57" points="145.34 33.78 152.25 33.71 152.25 34.06 145.34 34.13 145.34 33.78"/><polygon class="cls-58" points="145.34 33.43 152.25 33.36 152.25 33.71 145.34 33.78 145.34 33.43"/><polygon class="cls-130" points="145.34 33.08 152.25 33 152.25 33.36 145.34 33.43 145.34 33.08"/><polygon class="cls-59" points="145.34 32.72 152.25 32.65 152.25 33 145.34 33.08 145.34 32.72"/><polygon class="cls-60" points="145.34 32.37 152.25 32.3 152.25 32.65 145.34 32.72 145.34 32.37"/><polygon class="cls-131" points="145.34 32.02 152.25 31.94 152.25 32.3 145.34 32.37 145.34 32.02"/><polygon class="cls-62" points="145.34 31.66 152.25 31.59 152.25 31.94 145.34 32.02 145.34 31.66"/><polygon class="cls-63" points="145.34 31.31 152.25 31.24 152.25 31.59 145.34 31.66 145.34 31.31"/><polygon class="cls-132" points="145.34 30.96 152.25 30.89 152.25 31.24 145.34 31.31 145.34 30.96"/><polygon class="cls-65" points="145.34 30.61 152.25 30.53 152.25 30.89 145.34 30.96 145.34 30.61"/><polygon class="cls-117" points="145.34 30.25 152.25 30.18 152.25 30.53 145.34 30.61 145.34 30.25"/><polygon class="cls-66" points="145.34 29.9 152.25 29.83 152.25 30.18 145.34 30.25 145.34 29.9"/><polygon class="cls-67" points="145.34 29.55 152.25 29.47 152.25 29.83 145.34 29.9 145.34 29.55"/><polygon class="cls-68" points="145.34 29.19 152.25 29.12 152.25 29.47 145.34 29.55 145.34 29.19"/><polygon class="cls-69" points="145.34 28.84 152.25 28.77 152.25 29.12 145.34 29.19 145.34 28.84"/><polygon class="cls-70" points="145.34 28.49 152.25 28.42 152.25 28.77 145.34 28.84 145.34 28.49"/><polygon class="cls-133" points="152.25 28.42 145.34 28.49 145.34 28.41 152.25 28.41 152.25 28.42"/><polygon class="cls-134" points="140.3 42.66 157.28 42.48 157.28 42.8 140.3 42.8 140.3 42.66"/><polygon class="cls-42" points="140.3 42.3 157.28 42.12 157.28 42.48 140.3 42.66 140.3 42.3"/><polygon class="cls-42" points="140.3 41.95 157.28 41.77 157.28 42.12 140.3 42.3 140.3 41.95"/><polygon class="cls-43" points="140.3 41.6 157.28 41.42 157.28 41.77 140.3 41.95 140.3 41.6"/><polygon class="cls-135" points="140.3 41.24 157.28 41.06 157.28 41.42 140.3 41.6 140.3 41.24"/><polygon class="cls-44" points="140.3 40.89 157.28 40.71 157.28 41.06 140.3 41.24 140.3 40.89"/><polygon class="cls-111" points="140.3 40.54 157.28 40.36 157.28 40.71 140.3 40.89 140.3 40.54"/><polygon class="cls-45" points="140.3 40.19 157.28 40.01 157.28 40.36 140.3 40.54 140.3 40.19"/><polygon class="cls-112" points="140.3 39.83 157.28 39.65 157.28 40.01 140.3 40.19 140.3 39.83"/><polygon class="cls-136" points="140.3 39.48 157.28 39.3 157.28 39.65 140.3 39.83 140.3 39.48"/><polygon class="cls-46" points="140.3 39.13 157.28 38.95 157.28 39.3 140.3 39.48 140.3 39.13"/><polygon class="cls-47" points="140.3 38.77 157.28 38.59 157.28 38.95 140.3 39.13 140.3 38.77"/><polygon class="cls-113" points="140.3 38.42 157.28 38.24 157.28 38.59 140.3 38.77 140.3 38.42"/><polygon class="cls-48" points="140.3 38.07 157.28 37.89 157.28 38.24 140.3 38.42 140.3 38.07"/><polygon class="cls-49" points="140.3 37.72 157.28 37.54 157.28 37.89 140.3 38.07 140.3 37.72"/><polygon class="cls-114" points="140.3 37.36 157.28 37.18 157.28 37.54 140.3 37.72 140.3 37.36"/><polygon class="cls-50" points="140.3 37.01 157.28 36.83 157.28 37.18 140.3 37.36 140.3 37.01"/><polygon class="cls-51" points="140.3 36.66 157.28 36.48 157.28 36.83 140.3 37.01 140.3 36.66"/><polygon class="cls-52" points="140.3 36.3 157.28 36.13 157.28 36.48 140.3 36.66 140.3 36.3"/><polygon class="cls-115" points="140.3 35.95 157.28 35.77 157.28 36.13 140.3 36.3 140.3 35.95"/><polygon class="cls-54" points="140.3 35.6 157.28 35.42 157.28 35.77 140.3 35.95 140.3 35.6"/><polygon class="cls-54" points="140.3 35.25 157.28 35.07 157.28 35.42 140.3 35.6 140.3 35.25"/><polygon class="cls-116" points="140.3 34.89 157.28 34.71 157.28 35.07 140.3 35.25 140.3 34.89"/><polygon class="cls-55" points="140.3 34.54 157.28 34.36 157.28 34.71 140.3 34.89 140.3 34.54"/><polygon class="cls-56" points="140.3 34.19 157.28 34.01 157.28 34.36 140.3 34.54 140.3 34.19"/><polygon class="cls-57" points="140.3 33.83 157.28 33.66 157.28 34.01 140.3 34.19 140.3 33.83"/><polygon class="cls-58" points="140.3 33.48 157.28 33.3 157.28 33.66 140.3 33.83 140.3 33.48"/><polygon class="cls-130" points="140.3 33.13 157.28 32.95 157.28 33.3 140.3 33.48 140.3 33.13"/><polygon class="cls-59" points="140.3 32.78 157.28 32.6 157.28 32.95 140.3 33.13 140.3 32.78"/><polygon class="cls-60" points="140.3 32.42 157.28 32.24 157.28 32.6 140.3 32.78 140.3 32.42"/><polygon class="cls-131" points="140.3 32.07 157.28 31.89 157.28 32.24 140.3 32.42 140.3 32.07"/><polygon class="cls-62" points="140.3 31.72 157.28 31.54 157.28 31.89 140.3 32.07 140.3 31.72"/><polygon class="cls-63" points="140.3 31.36 157.28 31.19 157.28 31.54 140.3 31.72 140.3 31.36"/><polygon class="cls-132" points="140.3 31.01 157.28 30.83 157.28 31.19 140.3 31.36 140.3 31.01"/><polygon class="cls-65" points="140.3 30.66 157.28 30.48 157.28 30.83 140.3 31.01 140.3 30.66"/><polygon class="cls-117" points="140.3 30.31 157.28 30.13 157.28 30.48 140.3 30.66 140.3 30.31"/><polygon class="cls-66" points="140.3 29.95 157.28 29.77 157.28 30.13 140.3 30.31 140.3 29.95"/><polygon class="cls-67" points="140.3 29.6 157.28 29.42 157.28 29.77 140.3 29.95 140.3 29.6"/><polygon class="cls-68" points="140.3 29.25 157.28 29.07 157.28 29.42 140.3 29.6 140.3 29.25"/><polygon class="cls-69" points="140.3 28.89 157.28 28.72 157.28 29.07 140.3 29.25 140.3 28.89"/><polygon class="cls-70" points="140.3 28.54 157.28 28.36 157.28 28.72 140.3 28.89 140.3 28.54"/><polygon class="cls-133" points="140.3 28.19 157.28 28.01 157.28 28.36 140.3 28.54 140.3 28.19"/><polygon class="cls-72" points="140.3 27.84 157.28 27.66 157.28 28.01 140.3 28.19 140.3 27.84"/><polygon class="cls-73" points="140.3 27.48 157.28 27.3 157.28 27.66 140.3 27.84 140.3 27.48"/><polygon class="cls-137" points="140.3 27.13 157.28 26.95 157.28 27.3 140.3 27.48 140.3 27.13"/><polygon class="cls-75" points="140.3 26.78 157.28 26.6 157.28 26.95 140.3 27.13 140.3 26.78"/><polygon class="cls-76" points="140.3 26.43 157.28 26.25 157.28 26.6 140.3 26.78 140.3 26.43"/><polygon class="cls-138" points="140.3 26.07 157.28 25.89 157.28 26.25 140.3 26.43 140.3 26.07"/><polygon class="cls-78" points="140.3 25.72 157.28 25.54 157.28 25.89 140.3 26.07 140.3 25.72"/><polygon class="cls-119" points="140.3 25.37 157.28 25.19 157.28 25.54 140.3 25.72 140.3 25.37"/><polygon class="cls-79" points="140.3 25.01 157.28 24.83 157.28 25.19 140.3 25.37 140.3 25.01"/><polygon class="cls-80" points="140.3 24.66 157.28 24.48 157.28 24.83 140.3 25.01 140.3 24.66"/><polygon class="cls-81" points="140.3 24.31 157.28 24.13 157.28 24.48 140.3 24.66 140.3 24.31"/><polygon class="cls-120" points="157.28 24.13 140.3 24.31 140.3 24.09 157.28 24.09 157.28 24.13"/><polygon class="cls-42" points="147.09 42.23 149.03 42.21 149.03 42.23 147.09 42.23"/><polygon class="cls-42" points="124.62 42.12 149.03 41.86 149.03 42.21 147.09 42.23 124.62 42.23 124.62 42.12"/><polygon class="cls-43" points="124.62 41.76 149.03 41.51 149.03 41.86 124.62 42.12 124.62 41.76"/><polygon class="cls-135" points="124.62 41.41 149.03 41.15 149.03 41.51 124.62 41.76 124.62 41.41"/><polygon class="cls-44" points="124.62 41.06 149.03 40.8 149.03 41.15 124.62 41.41 124.62 41.06"/><polygon class="cls-111" points="124.62 40.7 149.03 40.45 149.03 40.8 124.62 41.06 124.62 40.7"/><polygon class="cls-45" points="124.62 40.35 149.03 40.09 149.03 40.45 124.62 40.7 124.62 40.35"/><polygon class="cls-112" points="124.62 40 149.03 39.74 149.03 40.09 124.62 40.35 124.62 40"/><polygon class="cls-136" points="124.62 39.65 149.03 39.39 149.03 39.74 124.62 40 124.62 39.65"/><polygon class="cls-46" points="124.62 39.29 149.03 39.03 149.03 39.39 124.62 39.65 124.62 39.29"/><polygon class="cls-47" points="124.62 38.94 149.03 38.68 149.03 39.03 124.62 39.29 124.62 38.94"/><polygon class="cls-113" points="124.62 38.59 149.03 38.33 149.03 38.68 124.62 38.94 124.62 38.59"/><polygon class="cls-48" points="124.62 38.23 149.03 37.98 149.03 38.33 124.62 38.59 124.62 38.23"/><polygon class="cls-49" points="124.62 37.88 149.03 37.62 149.03 37.98 124.62 38.23 124.62 37.88"/><polygon class="cls-114" points="124.62 37.53 149.03 37.27 149.03 37.62 124.62 37.88 124.62 37.53"/><polygon class="cls-50" points="124.62 37.17 149.03 36.92 149.03 37.27 124.62 37.53 124.62 37.17"/><polygon class="cls-51" points="124.62 36.82 149.03 36.56 149.03 36.92 124.62 37.17 124.62 36.82"/><polygon class="cls-52" points="124.62 36.47 149.03 36.21 149.03 36.56 124.62 36.82 124.62 36.47"/><polygon class="cls-115" points="124.62 36.12 149.03 35.86 149.03 36.21 124.62 36.47 124.62 36.12"/><polygon class="cls-54" points="124.62 35.76 149.03 35.51 149.03 35.86 124.62 36.12 124.62 35.76"/><polygon class="cls-54" points="124.62 35.41 149.03 35.15 149.03 35.51 124.62 35.76 124.62 35.41"/><polygon class="cls-116" points="124.62 35.06 149.03 34.8 149.03 35.15 124.62 35.41 124.62 35.06"/><polygon class="cls-55" points="124.62 34.7 149.03 34.45 149.03 34.8 124.62 35.06 124.62 34.7"/><polygon class="cls-56" points="124.62 34.35 149.03 34.09 149.03 34.45 124.62 34.7 124.62 34.35"/><polygon class="cls-57" points="124.62 34 149.03 33.74 149.03 34.09 124.62 34.35 124.62 34"/><polygon class="cls-58" points="124.62 33.65 149.03 33.39 149.03 33.74 124.62 34 124.62 33.65"/><polygon class="cls-130" points="124.62 33.29 149.03 33.04 149.03 33.39 124.62 33.65 124.62 33.29"/><polygon class="cls-59" points="124.62 32.94 149.03 32.68 149.03 33.04 124.62 33.29 124.62 32.94"/><polygon class="cls-60" points="124.62 32.59 149.03 32.33 149.03 32.68 124.62 32.94 124.62 32.59"/><polygon class="cls-131" points="124.62 32.24 149.03 31.98 149.03 32.33 124.62 32.59 124.62 32.24"/><polygon class="cls-62" points="124.62 31.88 149.03 31.63 149.03 31.98 124.62 32.24 124.62 31.88"/><polygon class="cls-63" points="124.62 31.53 149.03 31.27 149.03 31.63 124.62 31.88 124.62 31.53"/><polygon class="cls-132" points="124.62 31.18 149.03 30.92 149.03 31.27 124.62 31.53 124.62 31.18"/><polygon class="cls-65" points="124.62 30.82 149.03 30.57 149.03 30.92 124.62 31.18 124.62 30.82"/><polygon class="cls-117" points="124.62 30.47 149.03 30.21 149.03 30.57 124.62 30.82 124.62 30.47"/><polygon class="cls-66" points="124.62 30.12 149.03 29.86 149.03 30.21 124.62 30.47 124.62 30.12"/><polygon class="cls-67" points="124.62 29.77 149.03 29.51 149.03 29.86 124.62 30.12 124.62 29.77"/><polygon class="cls-68" points="124.62 29.41 149.03 29.16 149.03 29.51 124.62 29.77 124.62 29.41"/><polygon class="cls-69" points="124.62 29.06 149.03 28.8 149.03 29.16 124.62 29.41 124.62 29.06"/><polygon class="cls-70" points="124.62 28.71 149.03 28.45 149.03 28.8 124.62 29.06 124.62 28.71"/><polygon class="cls-133" points="124.62 28.35 149.03 28.1 149.03 28.45 124.62 28.71 124.62 28.35"/><polygon class="cls-72" points="124.62 28 149.03 27.74 149.03 28.1 124.62 28.35 124.62 28"/><polygon class="cls-73" points="124.62 27.65 149.03 27.39 149.03 27.74 124.62 28 124.62 27.65"/><polygon class="cls-137" points="124.62 27.3 149.03 27.04 149.03 27.39 124.62 27.65 124.62 27.3"/><polygon class="cls-75" points="124.62 26.94 149.03 26.69 149.03 27.04 124.62 27.3 124.62 26.94"/><polygon class="cls-76" points="124.62 26.59 149.03 26.33 149.03 26.69 124.62 26.94 124.62 26.59"/><polygon class="cls-138" points="124.62 26.24 149.03 25.98 149.03 26.33 124.62 26.59 124.62 26.24"/><polygon class="cls-78" points="124.62 25.88 149.03 25.63 149.03 25.98 124.62 26.24 124.62 25.88"/><polygon class="cls-119" points="124.62 25.53 149.03 25.27 149.03 25.63 124.62 25.88 124.62 25.53"/><polygon class="cls-79" points="124.62 25.18 149.03 24.92 149.03 25.27 124.62 25.53 124.62 25.18"/><polygon class="cls-80" points="124.62 24.83 149.03 24.57 149.03 24.92 124.62 25.18 124.62 24.83"/><polygon class="cls-81" points="124.62 24.47 149.03 24.22 149.03 24.57 124.62 24.83 124.62 24.47"/><polygon class="cls-120" points="124.62 24.12 149.03 23.86 149.03 24.22 124.62 24.47 124.62 24.12"/><polygon class="cls-83" points="124.62 23.77 149.03 23.51 149.03 23.86 124.62 24.12 124.62 23.77"/><polygon class="cls-84" points="124.62 23.41 149.03 23.16 149.03 23.51 124.62 23.77 124.62 23.41"/><polygon class="cls-139" points="124.62 23.06 149.03 22.8 149.03 23.16 124.62 23.41 124.62 23.06"/><polygon class="cls-140" points="124.62 22.71 149.03 22.45 149.03 22.8 124.62 23.06 124.62 22.71"/><polygon class="cls-88" points="124.62 22.36 149.03 22.1 149.03 22.45 124.62 22.71 124.62 22.36"/><polygon class="cls-89" points="124.62 22 149.03 21.75 149.03 22.1 124.62 22.36 124.62 22"/><polygon class="cls-90" points="124.62 21.65 149.03 21.39 149.03 21.75 124.62 22 124.62 21.65"/><polygon class="cls-91" points="124.62 21.3 149.03 21.04 149.03 21.39 124.62 21.65 124.62 21.3"/><polygon class="cls-92" points="124.62 20.94 149.03 20.69 149.03 21.04 124.62 21.3 124.62 20.94"/><polygon class="cls-93" points="124.62 20.59 149.03 20.33 149.03 20.69 124.62 20.94 124.62 20.59"/><polygon class="cls-94" points="124.62 20.24 149.03 19.98 149.03 20.33 124.62 20.59 124.62 20.24"/><polygon class="cls-122" points="124.62 19.89 149.03 19.63 149.03 19.98 124.62 20.24 124.62 19.89"/><polygon class="cls-123" points="124.62 19.53 149.03 19.28 149.03 19.63 124.62 19.89 124.62 19.53"/><polygon class="cls-98" points="124.62 19.18 149.03 18.92 149.03 19.28 124.62 19.53 124.62 19.18"/><polygon class="cls-99" points="124.62 18.83 149.03 18.57 149.03 18.92 124.62 19.18 124.62 18.83"/><polygon class="cls-141" points="124.62 18.47 149.03 18.22 149.03 18.57 124.62 18.83 124.62 18.47"/><polygon class="cls-100" points="124.62 18.12 149.03 17.86 149.03 18.22 124.62 18.47 124.62 18.12"/><polygon class="cls-102" points="124.62 17.77 149.03 17.51 149.03 17.86 124.62 18.12 124.62 17.77"/><polygon class="cls-103" points="124.62 17.42 149.03 17.16 149.03 17.51 124.62 17.77 124.62 17.42"/><polygon class="cls-104" points="124.62 17.06 149.03 16.81 149.03 17.16 124.62 17.42 124.62 17.06"/><polygon class="cls-105" points="124.62 16.71 149.03 16.45 149.03 16.81 124.62 17.06 124.62 16.71"/><polygon class="cls-106" points="124.62 16.36 149.03 16.1 149.03 16.45 124.62 16.71 124.62 16.36"/><polygon class="cls-108" points="124.62 16 149.03 15.75 149.03 16.1 124.62 16.36 124.62 16"/><polygon class="cls-3" points="124.62 15.65 149.03 15.39 149.03 15.75 124.62 16 124.62 15.65"/><polygon class="cls-4" points="124.62 15.3 149.03 15.04 149.03 15.39 124.62 15.65 124.62 15.3"/><polygon class="cls-5" points="124.62 14.95 149.03 14.69 149.03 15.04 124.62 15.3 124.62 14.95"/><polygon class="cls-126" points="124.62 14.59 149.03 14.34 149.03 14.69 124.62 14.95 124.62 14.59"/><polygon class="cls-8" points="124.62 14.24 149.03 13.98 149.03 14.34 124.62 14.59 124.62 14.24"/><polygon class="cls-142" points="124.62 13.89 149.03 13.63 149.03 13.98 124.62 14.24 124.62 13.89"/><polygon class="cls-10" points="124.62 13.53 149.03 13.28 149.03 13.63 124.62 13.89 124.62 13.53"/><polygon class="cls-11" points="124.62 13.18 149.03 12.92 149.03 13.28 124.62 13.53 124.62 13.18"/><polygon class="cls-128" points="124.62 12.83 149.03 12.57 149.03 12.92 124.62 13.18 124.62 12.83"/><polygon class="cls-15" points="124.62 12.48 149.03 12.22 149.03 12.57 124.62 12.83 124.62 12.48"/><polygon class="cls-16" points="124.62 12.12 149.03 11.87 149.03 12.22 124.62 12.48 124.62 12.12"/><polygon class="cls-17" points="124.62 11.77 149.03 11.51 149.03 11.87 124.62 12.12 124.62 11.77"/><polygon class="cls-143" points="124.62 11.42 149.03 11.16 149.03 11.51 124.62 11.77 124.62 11.42"/><polygon class="cls-20" points="124.62 11.06 149.03 10.81 149.03 11.16 124.62 11.42 124.62 11.06"/><polygon class="cls-21" points="124.62 10.71 149.03 10.45 149.03 10.81 124.62 11.06 124.62 10.71"/><polygon class="cls-22" points="124.62 10.36 149.03 10.1 149.03 10.45 124.62 10.71 124.62 10.36"/><polygon class="cls-24" points="124.62 10.01 149.03 9.75 149.03 10.1 124.62 10.36 124.62 10.01"/><polygon class="cls-25" points="124.62 9.65 149.03 9.4 149.03 9.75 124.62 10.01 124.62 9.65"/><polygon class="cls-26" points="124.62 9.3 149.03 9.04 149.03 9.4 124.62 9.65 124.62 9.3"/><polygon class="cls-28" points="124.62 8.95 149.03 8.69 149.03 9.04 124.62 9.3 124.62 8.95"/><polygon class="cls-30" points="124.62 8.59 149.03 8.34 149.03 8.69 124.62 8.95 124.62 8.59"/><polygon class="cls-31" points="124.62 8.24 149.03 7.98 149.03 8.34 124.62 8.59 124.62 8.24"/><polygon class="cls-144" points="124.62 7.89 149.03 7.63 149.03 7.98 124.62 8.24 124.62 7.89"/><polygon class="cls-34" points="149.03 7.63 124.62 7.89 124.62 7.62 149.03 7.62 149.03 7.63"/><polygon class="cls-91" points="121.35 21.33 128.25 21.26 128.25 21.5 121.35 21.5 121.35 21.33"/><polygon class="cls-92" points="121.35 20.98 128.25 20.91 128.25 21.26 121.35 21.33 121.35 20.98"/><polygon class="cls-93" points="121.35 20.63 128.25 20.55 128.25 20.91 121.35 20.98 121.35 20.63"/><polygon class="cls-94" points="121.35 20.27 128.25 20.2 128.25 20.55 121.35 20.63 121.35 20.27"/><polygon class="cls-122" points="121.35 19.92 128.25 19.85 128.25 20.2 121.35 20.27 121.35 19.92"/><polygon class="cls-123" points="121.35 19.57 128.25 19.49 128.25 19.85 121.35 19.92 121.35 19.57"/><polygon class="cls-98" points="121.35 19.21 128.25 19.14 128.25 19.49 121.35 19.57 121.35 19.21"/><polygon class="cls-99" points="121.35 18.86 128.25 18.79 128.25 19.14 121.35 19.21 121.35 18.86"/><polygon class="cls-141" points="121.35 18.51 128.25 18.44 128.25 18.79 121.35 18.86 121.35 18.51"/><polygon class="cls-100" points="121.35 18.16 128.25 18.08 128.25 18.44 121.35 18.51 121.35 18.16"/><polygon class="cls-102" points="121.35 17.8 128.25 17.73 128.25 18.08 121.35 18.16 121.35 17.8"/><polygon class="cls-103" points="121.35 17.45 128.25 17.38 128.25 17.73 121.35 17.8 121.35 17.45"/><polygon class="cls-104" points="121.35 17.1 128.25 17.02 128.25 17.38 121.35 17.45 121.35 17.1"/><polygon class="cls-105" points="121.35 16.74 128.25 16.67 128.25 17.02 121.35 17.1 121.35 16.74"/><polygon class="cls-106" points="121.35 16.39 128.25 16.32 128.25 16.67 121.35 16.74 121.35 16.39"/><polygon class="cls-108" points="121.35 16.04 128.25 15.97 128.25 16.32 121.35 16.39 121.35 16.04"/><polygon class="cls-3" points="121.35 15.69 128.25 15.61 128.25 15.97 121.35 16.04 121.35 15.69"/><polygon class="cls-4" points="121.35 15.33 128.25 15.26 128.25 15.61 121.35 15.69 121.35 15.33"/><polygon class="cls-5" points="121.35 14.98 128.25 14.91 128.25 15.26 121.35 15.33 121.35 14.98"/><polygon class="cls-126" points="121.35 14.63 128.25 14.55 128.25 14.91 121.35 14.98 121.35 14.63"/><polygon class="cls-8" points="121.35 14.27 128.25 14.2 128.25 14.55 121.35 14.63 121.35 14.27"/><polygon class="cls-142" points="121.35 13.92 128.25 13.85 128.25 14.2 121.35 14.27 121.35 13.92"/><polygon class="cls-10" points="121.35 13.57 128.25 13.5 128.25 13.85 121.35 13.92 121.35 13.57"/><polygon class="cls-11" points="121.35 13.22 128.25 13.14 128.25 13.5 121.35 13.57 121.35 13.22"/><polygon class="cls-128" points="121.35 12.86 128.25 12.79 128.25 13.14 121.35 13.22 121.35 12.86"/><polygon class="cls-15" points="121.35 12.51 128.25 12.44 128.25 12.79 121.35 12.86 121.35 12.51"/><polygon class="cls-16" points="121.35 12.16 128.25 12.09 128.25 12.44 121.35 12.51 121.35 12.16"/><polygon class="cls-17" points="121.35 11.8 128.25 11.73 128.25 12.09 121.35 12.16 121.35 11.8"/><polygon class="cls-143" points="121.35 11.45 124.97 11.41 128.25 11.41 128.25 11.73 121.35 11.8 121.35 11.45"/><polygon class="cls-20" points="124.97 11.41 121.35 11.45 121.35 11.41 124.97 11.41"/><polygon class="cls-78" points="131.75 25.81 133.29 25.79 133.29 25.81 131.75 25.81"/><polygon class="cls-119" points="116.31 25.62 133.29 25.44 133.29 25.79 131.75 25.81 116.31 25.81 116.31 25.62"/><polygon class="cls-79" points="116.31 25.27 133.29 25.09 133.29 25.44 116.31 25.62 116.31 25.27"/><polygon class="cls-80" points="116.31 24.91 133.29 24.73 133.29 25.09 116.31 25.27 116.31 24.91"/><polygon class="cls-81" points="116.31 24.56 133.29 24.38 133.29 24.73 116.31 24.91 116.31 24.56"/><polygon class="cls-120" points="116.31 24.21 133.29 24.03 133.29 24.38 116.31 24.56 116.31 24.21"/><polygon class="cls-83" points="116.31 23.86 133.29 23.68 133.29 24.03 116.31 24.21 116.31 23.86"/><polygon class="cls-84" points="116.31 23.5 133.29 23.32 133.29 23.68 116.31 23.86 116.31 23.5"/><polygon class="cls-139" points="116.31 23.15 133.29 22.97 133.29 23.32 116.31 23.5 116.31 23.15"/><polygon class="cls-140" points="116.31 22.8 133.29 22.62 133.29 22.97 116.31 23.15 116.31 22.8"/><polygon class="cls-88" points="116.31 22.44 133.29 22.26 133.29 22.62 116.31 22.8 116.31 22.44"/><polygon class="cls-89" points="116.31 22.09 133.29 21.91 133.29 22.26 116.31 22.44 116.31 22.09"/><polygon class="cls-90" points="116.31 21.74 133.29 21.56 133.29 21.91 116.31 22.09 116.31 21.74"/><polygon class="cls-91" points="116.31 21.39 133.29 21.21 133.29 21.56 116.31 21.74 116.31 21.39"/><polygon class="cls-92" points="116.31 21.03 133.29 20.85 133.29 21.21 116.31 21.39 116.31 21.03"/><polygon class="cls-93" points="116.31 20.68 133.29 20.5 133.29 20.85 116.31 21.03 116.31 20.68"/><polygon class="cls-94" points="116.31 20.33 133.29 20.15 133.29 20.5 116.31 20.68 116.31 20.33"/><polygon class="cls-122" points="116.31 19.97 133.29 19.79 133.29 20.15 116.31 20.33 116.31 19.97"/><polygon class="cls-123" points="116.31 19.62 133.29 19.44 133.29 19.79 116.31 19.97 116.31 19.62"/><polygon class="cls-98" points="116.31 19.27 133.29 19.09 133.29 19.44 116.31 19.62 116.31 19.27"/><polygon class="cls-99" points="116.31 18.91 133.29 18.74 133.29 19.09 116.31 19.27 116.31 18.91"/><polygon class="cls-141" points="116.31 18.56 133.29 18.38 133.29 18.74 116.31 18.91 116.31 18.56"/><polygon class="cls-100" points="116.31 18.21 133.29 18.03 133.29 18.38 116.31 18.56 116.31 18.21"/><polygon class="cls-102" points="116.31 17.86 133.29 17.68 133.29 18.03 116.31 18.21 116.31 17.86"/><polygon class="cls-103" points="116.31 17.5 133.29 17.32 133.29 17.68 116.31 17.86 116.31 17.5"/><polygon class="cls-104" points="116.31 17.15 133.29 16.97 133.29 17.32 116.31 17.5 116.31 17.15"/><polygon class="cls-105" points="116.31 16.8 133.29 16.62 133.29 16.97 116.31 17.15 116.31 16.8"/><polygon class="cls-106" points="116.31 16.45 133.29 16.27 133.29 16.62 116.31 16.8 116.31 16.45"/><polygon class="cls-108" points="116.31 16.09 133.29 15.91 133.29 16.27 116.31 16.45 116.31 16.09"/><polygon class="cls-3" points="116.31 15.74 133.29 15.56 133.29 15.91 116.31 16.09 116.31 15.74"/><polygon class="cls-4" points="116.31 15.39 133.29 15.21 133.29 15.56 116.31 15.74 116.31 15.39"/><polygon class="cls-5" points="116.31 15.03 133.29 14.85 133.29 15.21 116.31 15.39 116.31 15.03"/><polygon class="cls-126" points="116.31 14.68 133.29 14.5 133.29 14.85 116.31 15.03 116.31 14.68"/><polygon class="cls-8" points="116.31 14.33 133.29 14.15 133.29 14.5 116.31 14.68 116.31 14.33"/><polygon class="cls-142" points="116.31 13.97 133.29 13.8 133.29 14.15 116.31 14.33 116.31 13.97"/><polygon class="cls-10" points="116.31 13.62 133.29 13.44 133.29 13.8 116.31 13.97 116.31 13.62"/><polygon class="cls-11" points="116.31 13.27 133.29 13.09 133.29 13.44 116.31 13.62 116.31 13.27"/><polygon class="cls-128" points="116.31 12.92 133.29 12.74 133.29 13.09 116.31 13.27 116.31 12.92"/><polygon class="cls-15" points="116.31 12.56 133.29 12.38 133.29 12.74 116.31 12.92 116.31 12.56"/><polygon class="cls-16" points="116.31 12.21 133.29 12.03 133.29 12.38 116.31 12.56 116.31 12.21"/><polygon class="cls-17" points="116.31 11.86 133.29 11.68 133.29 12.03 116.31 12.21 116.31 11.86"/><polygon class="cls-143" points="116.31 11.51 133.29 11.33 133.29 11.68 116.31 11.86 116.31 11.51"/><polygon class="cls-20" points="116.31 11.15 133.29 10.97 133.29 11.33 116.31 11.51 116.31 11.15"/><polygon class="cls-21" points="116.31 10.8 133.29 10.62 133.29 10.97 116.31 11.15 116.31 10.8"/><polygon class="cls-22" points="116.31 10.45 133.29 10.27 133.29 10.62 116.31 10.8 116.31 10.45"/><polygon class="cls-24" points="116.31 10.09 133.29 9.91 133.29 10.27 116.31 10.45 116.31 10.09"/><polygon class="cls-25" points="116.31 9.74 133.29 9.56 133.29 9.91 116.31 10.09 116.31 9.74"/><polygon class="cls-26" points="116.31 9.39 133.29 9.21 133.29 9.56 116.31 9.74 116.31 9.39"/><polygon class="cls-28" points="116.31 9.04 133.29 8.86 133.29 9.21 116.31 9.39 116.31 9.04"/><polygon class="cls-30" points="116.31 8.68 133.29 8.5 133.29 8.86 116.31 9.04 116.31 8.68"/><polygon class="cls-31" points="116.31 8.33 133.29 8.15 133.29 8.5 116.31 8.68 116.31 8.33"/><polygon class="cls-144" points="116.31 7.98 133.29 7.8 133.29 8.15 116.31 8.33 116.31 7.98"/><polygon class="cls-34" points="116.31 7.62 133.29 7.44 133.29 7.8 116.31 7.98 116.31 7.62"/><polygon class="cls-35" points="116.31 7.27 132.49 7.1 133.29 7.1 133.29 7.44 116.31 7.62 116.31 7.27"/><polygon class="cls-37" points="132.49 7.1 116.31 7.27 116.31 7.1 132.49 7.1"/></g></g></svg>