<svg id="Layer_1" data-name="Layer 1" xmlns="http://www.w3.org/2000/svg" xmlns:xlink="http://www.w3.org/1999/xlink" viewBox="0 0 28 295"><defs><style>.cls-1,.cls-7{fill:none;}.cls-2{opacity:0.33;}.cls-3{clip-path:url(#clip-path);}.cls-4{opacity:0.29;}.cls-5{fill:#fff;}.cls-5,.cls-6{fill-rule:evenodd;}.cls-6{fill:#cfcfcf;}.cls-7{stroke:#9b9b9b;stroke-miterlimit:10;stroke-width:2px;}</style><clipPath id="clip-path"><rect id="SVGID" class="cls-1" x="-3712.36" y="727.75" width="4712.36" height="2753.83"/></clipPath></defs><g class="cls-2"><g class="cls-3"><g class="cls-4"><polygon class="cls-5" points="-1705.58 -1874.93 2426.73 1941.39 554.41 3968.73 -3577.9 152.41 -1703.7 -1876.97 -1705.58 -1874.93"/><polygon class="cls-6" points="569.11 221.96 575.53 227.9 -1298.66 2257.28 -1305.1 2251.34 569.11 221.96 569.11 221.96"/><polygon class="cls-6" points="486.46 145.63 492.89 151.57 -1381.31 2180.95 -1387.74 2175.01 486.46 145.63 486.46 145.63"/><polygon class="cls-6" points="403.81 69.3 410.24 75.24 -1463.96 2104.62 -1470.39 2098.69 403.81 69.3 403.81 69.3"/><polygon class="cls-6" points="321.17 -7.02 327.6 -1.08 -1546.6 2028.3 -1553.03 2022.36 321.17 -7.02 321.17 -7.02"/><polygon class="cls-6" points="238.52 -83.35 244.95 -77.41 -1629.25 1951.97 -1635.68 1946.03 238.52 -83.35 238.52 -83.35"/><polygon class="cls-6" points="155.87 -159.68 162.31 -153.74 -1711.89 1875.65 -1718.33 1869.71 155.87 -159.68 155.87 -159.68"/><polygon class="cls-6" points="73.23 -236 79.66 -230.06 -1794.54 1799.32 -1800.97 1793.38 73.23 -236 73.23 -236"/><polygon class="cls-6" points="2430.35 1937.47 2424.41 1943.9 -1707.9 -1872.42 -1701.96 -1878.86 2430.35 1937.47 2430.35 1937.47"/><polygon class="cls-6" points="598.52 3920.97 592.58 3927.4 -3539.72 111.08 -3533.79 104.65 598.52 3920.97 598.52 3920.97"/><polygon class="cls-6" points="674.85 3838.32 668.91 3844.75 -3463.4 28.43 -3457.46 22 674.85 3838.32 674.85 3838.32"/><polygon class="cls-6" points="751.18 3755.68 745.24 3762.11 -3387.07 -54.22 -3381.13 -60.65 751.18 3755.68 751.18 3755.68"/><polygon class="cls-6" points="827.5 3673.03 821.56 3679.46 -3310.75 -136.86 -3304.81 -143.29 827.5 3673.03 827.5 3673.03"/><polygon class="cls-6" points="903.83 3590.38 897.89 3596.82 -3234.42 -219.51 -3228.48 -225.94 903.83 3590.38 903.83 3590.38"/><polygon class="cls-6" points="980.15 3507.74 974.22 3514.17 -3158.09 -302.15 -3152.16 -308.58 980.15 3507.74 980.15 3507.74"/><polygon class="cls-6" points="1056.48 3425.09 1050.54 3431.52 -3081.77 -384.8 -3075.83 -391.23 1056.48 3425.09 1056.48 3425.09"/><polygon class="cls-6" points="1132.81 3342.45 1126.87 3348.88 -3005.44 -467.44 -2999.5 -473.88 1132.81 3342.45 1132.81 3342.45"/><polygon class="cls-6" points="1209.13 3259.8 1203.19 3266.23 -2929.12 -550.09 -2923.18 -556.52 1209.13 3259.8 1209.13 3259.8"/><polygon class="cls-6" points="1285.46 3177.16 1279.52 3183.59 -2852.79 -632.74 -2846.85 -639.17 1285.46 3177.16 1285.46 3177.16"/><polygon class="cls-6" points="1361.79 3094.51 1355.85 3100.94 -2776.46 -715.38 -2770.53 -721.81 1361.79 3094.51 1361.79 3094.51"/><polygon class="cls-6" points="1438.11 3011.86 1432.17 3018.29 -2700.14 -798.03 -2694.2 -804.46 1438.11 3011.86 1438.11 3011.86"/><polygon class="cls-6" points="1514.44 2929.22 1508.5 2935.65 -2623.81 -880.67 -2617.87 -887.11 1514.44 2929.22 1514.44 2929.22"/><polygon class="cls-6" points="1590.77 2846.57 1584.82 2853 -2547.49 -963.32 -2541.55 -969.75 1590.77 2846.57 1590.77 2846.57"/><polygon class="cls-6" points="1667.09 2763.92 1661.15 2770.36 -2471.16 -1045.96 -2465.22 -1052.4 1667.09 2763.92 1667.09 2763.92"/><polygon class="cls-6" points="1743.42 2681.28 1737.48 2687.71 -2394.83 -1128.61 -2388.89 -1135.04 1743.42 2681.28 1743.42 2681.28"/><polygon class="cls-6" points="1819.74 2598.63 1813.8 2605.06 -2318.51 -1211.26 -2312.57 -1217.69 1819.74 2598.63 1819.74 2598.63"/><polygon class="cls-6" points="1896.07 2515.99 1890.13 2522.42 -2242.18 -1293.9 -2236.24 -1300.33 1896.07 2515.99 1896.07 2515.99"/><polygon class="cls-6" points="1972.39 2433.34 1966.46 2439.77 -2165.85 -1376.55 -2159.91 -1382.98 1972.39 2433.34 1972.39 2433.34"/><polygon class="cls-6" points="2048.72 2350.7 2042.78 2357.13 -2089.53 -1459.2 -2083.59 -1465.63 2048.72 2350.7 2048.72 2350.7"/><polygon class="cls-6" points="2125.05 2268.05 2119.11 2274.48 -2013.2 -1541.84 -2007.26 -1548.27 2125.05 2268.05 2125.05 2268.05"/><polygon class="cls-6" points="2201.37 2185.4 2195.43 2191.84 -1936.88 -1624.49 -1930.94 -1630.92 2201.37 2185.4 2201.37 2185.4"/><polygon class="cls-6" points="2277.7 2102.76 2271.76 2109.19 -1860.55 -1707.13 -1854.61 -1713.57 2277.7 2102.76 2277.7 2102.76"/><polygon class="cls-6" points="2354.03 2020.11 2348.09 2026.54 -1784.22 -1789.78 -1778.28 -1796.21 2354.03 2020.11 2354.03 2020.11"/></g><g class="cls-4"><polygon class="cls-5" points="-3619.94 36.57 512.37 3852.89 -1359.94 5880.23 -5492.25 2063.91 -3618.05 34.53 -3619.94 36.57"/><polygon class="cls-6" points="516 3848.97 510.06 3855.4 -3622.25 39.08 -3616.31 32.65 516 3848.97 516 3848.97"/><polygon class="cls-6" points="287.02 4096.9 281.08 4103.34 -3851.23 287.02 -3845.29 280.58 287.02 4096.9 287.02 4096.9"/><polygon class="cls-6" points="363.35 4014.26 357.41 4020.69 -3774.9 204.37 -3768.96 197.94 363.35 4014.26 363.35 4014.26"/><polygon class="cls-6" points="439.68 3931.61 433.73 3938.05 -3698.58 121.72 -3692.64 115.29 439.68 3931.61 439.68 3931.61"/></g></g></g><path class="cls-7" d="M7.65,34.89V290.6c0-12.73,0-255.9,0-255.9l12.91-7.55L7.45,19.7V4.13"/></svg>