<svg id="Layer_1" data-name="Layer 1" xmlns="http://www.w3.org/2000/svg" xmlns:xlink="http://www.w3.org/1999/xlink" viewBox="0 0 50 50"><defs><style>.cls-1{fill:none;}.cls-2{opacity:0.5;}.cls-3{clip-path:url(#clip-path);}.cls-4{opacity:0.29;}.cls-5{fill:#fff;}.cls-5,.cls-6{fill-rule:evenodd;}.cls-6{fill:#cfcfcf;}.cls-7{fill:#ffc10e;}</style><clipPath id="clip-path"><rect class="cls-1" x="117.29" y="-1363.28" width="2330.99" height="1121.6"/></clipPath></defs><title>icons</title><g class="cls-2"><g class="cls-3"><g class="cls-4"><polygon class="cls-5" points="60.17 -2668.81 2895.24 -50.53 1610.69 1340.38 -1224.38 -1277.91 61.46 -2670.22 60.17 -2668.81"/><polygon class="cls-6" points="1640.96 1307.61 1636.88 1312.02 -1198.19 -1306.26 -1194.12 -1310.67 1640.96 1307.61 1640.96 1307.61"/><polygon class="cls-6" points="1693.32 1250.91 1689.25 1255.32 -1145.83 -1362.96 -1141.75 -1367.38 1693.32 1250.91 1693.32 1250.91"/><polygon class="cls-6" points="1745.69 1194.2 1741.62 1198.62 -1093.46 -1419.67 -1089.38 -1424.08 1745.69 1194.2 1745.69 1194.2"/><polygon class="cls-6" points="1798.06 1137.5 1793.98 1141.91 -1041.09 -1476.37 -1037.02 -1480.78 1798.06 1137.5 1798.06 1137.5"/><polygon class="cls-6" points="1850.42 1080.8 1846.35 1085.21 -988.73 -1533.07 -984.65 -1537.48 1850.42 1080.8 1850.42 1080.8"/><polygon class="cls-6" points="1902.79 1024.1 1898.71 1028.51 -936.36 -1589.77 -932.29 -1594.18 1902.79 1024.1 1902.79 1024.1"/><polygon class="cls-6" points="1955.15 967.4 1951.08 971.81 -884 -1646.47 -879.92 -1650.88 1955.15 967.4 1955.15 967.4"/><polygon class="cls-6" points="2007.52 910.7 2003.44 915.11 -831.63 -1703.17 -827.56 -1707.59 2007.52 910.7 2007.52 910.7"/><polygon class="cls-6" points="2059.88 854 2055.81 858.41 -779.27 -1759.87 -775.19 -1764.29 2059.88 854 2059.88 854"/><polygon class="cls-6" points="2112.25 797.3 2108.17 801.71 -726.9 -1816.58 -722.83 -1820.99 2112.25 797.3 2112.25 797.3"/><polygon class="cls-6" points="2164.61 740.59 2160.54 745.01 -674.54 -1873.28 -670.46 -1877.69 2164.61 740.59 2164.61 740.59"/><polygon class="cls-6" points="2216.98 683.89 2212.9 688.3 -622.17 -1929.98 -618.1 -1934.39 2216.98 683.89 2216.98 683.89"/><polygon class="cls-6" points="2269.34 627.19 2265.27 631.6 -569.8 -1986.68 -565.73 -1991.09 2269.34 627.19 2269.34 627.19"/><polygon class="cls-6" points="2321.71 570.49 2317.63 574.9 -517.44 -2043.38 -513.36 -2047.79 2321.71 570.49 2321.71 570.49"/><polygon class="cls-6" points="2374.08 513.79 2370 518.2 -465.07 -2100.08 -461 -2104.49 2374.08 513.79 2374.08 513.79"/><polygon class="cls-6" points="2426.44 457.09 2422.36 461.5 -412.71 -2156.78 -408.63 -2161.2 2426.44 457.09 2426.44 457.09"/><polygon class="cls-6" points="2478.81 400.38 2474.73 404.8 -360.34 -2213.48 -356.27 -2217.9 2478.81 400.38 2478.81 400.38"/><polygon class="cls-6" points="2531.17 343.69 2527.1 348.1 -307.98 -2270.19 -303.9 -2274.6 2531.17 343.69 2531.17 343.69"/><polygon class="cls-6" points="2583.54 286.98 2579.46 291.4 -255.61 -2326.89 -251.54 -2331.3 2583.54 286.98 2583.54 286.98"/><polygon class="cls-6" points="2635.9 230.28 2631.83 234.69 -203.25 -2383.59 -199.17 -2388 2635.9 230.28 2635.9 230.28"/><polygon class="cls-6" points="2688.27 173.58 2684.19 177.99 -150.88 -2440.29 -146.81 -2444.7 2688.27 173.58 2688.27 173.58"/><polygon class="cls-6" points="2740.63 116.88 2736.56 121.29 -98.52 -2496.99 -94.44 -2501.4 2740.63 116.88 2740.63 116.88"/><polygon class="cls-6" points="2793 60.18 2788.92 64.59 -46.15 -2553.69 -42.08 -2558.11 2793 60.18 2793 60.18"/><polygon class="cls-6" points="2845.36 3.48 2841.29 7.89 6.21 -2610.39 10.29 -2614.81 2845.36 3.48 2845.36 3.48"/></g></g></g><path class="cls-7" d="M47.4,17.56H30.7V16a1,1,0,0,0-1-1H26.82a11,11,0,0,0-.65-1.55l2-2.05a1,1,0,0,0,.29-.7,1,1,0,0,0-.29-.7L24.66,6.49a1,1,0,0,0-1.4,0l-2,2a11.69,11.69,0,0,0-1.56-.65V5a1,1,0,0,0-1-1h-5a1,1,0,0,0-1,1V7.88a10.69,10.69,0,0,0-1.56.65l-2-2a1,1,0,0,0-.7-.29,1,1,0,0,0-.7.29L4.09,10a1,1,0,0,0-.29.7,1,1,0,0,0,.29.7l2,2.05A11,11,0,0,0,5.49,15H2.6a1,1,0,0,0-1,1v5a1,1,0,0,0,1,1H5.49a10.69,10.69,0,0,0,.65,1.56l-2,2a1,1,0,0,0-.29.7,1,1,0,0,0,.29.7l3.56,3.56a1,1,0,0,0,1.4,0l2-2a11.63,11.63,0,0,0,1.56.64V32.1a1,1,0,0,0,1,1h1.53V46.51a1,1,0,0,0,1,1H47.4a1,1,0,0,0,1-1v-28A1,1,0,0,0,47.4,17.56ZM14.63,31.11V28.47a1,1,0,0,0-.75-1,9.28,9.28,0,0,1-2.46-1,1,1,0,0,0-1.2.15L8.35,28.51,6.19,26.35l1.87-1.87a1,1,0,0,0,.15-1.2,9.28,9.28,0,0,1-1-2.46,1,1,0,0,0-1-.75H3.59V17H6.23a1,1,0,0,0,1-.75,9.21,9.21,0,0,1,1-2.45,1,1,0,0,0-.15-1.21L6.19,10.74,8.35,8.58l1.87,1.87a1,1,0,0,0,1.21.15,9.41,9.41,0,0,1,2.45-1,1,1,0,0,0,.75-.95V6h3V8.63a1,1,0,0,0,.75.95,9.21,9.21,0,0,1,2.45,1,1,1,0,0,0,1.21-.15L24,8.58l2.16,2.16-1.87,1.87a1,1,0,0,0-.15,1.21,9.21,9.21,0,0,1,1,2.45,1,1,0,0,0,1,.75h2.64v.54H21.2a5.14,5.14,0,1,0-6,6v7.52Zm.54-12.56v3a3.16,3.16,0,1,1,4-4h-3A1,1,0,0,0,15.17,18.55Zm31.24,27H17.14v-26H46.41Z"/><path class="cls-7" d="M22.45,26.42h6.44a3.23,3.23,0,0,0,6.16,0h5.71a1,1,0,1,0,0-2H35.05a3.23,3.23,0,0,0-6.16,0H22.45a1,1,0,1,0,0,2ZM32,24.17a1.26,1.26,0,1,1-1.26,1.26A1.26,1.26,0,0,1,32,24.17Z"/><path class="cls-7" d="M22.45,33.67h1.72a3.23,3.23,0,0,0,6.16,0H40.76a1,1,0,1,0,0-2H30.33a3.23,3.23,0,0,0-6.16,0H22.45a1,1,0,1,0,0,2Zm4.8-2.24A1.26,1.26,0,1,1,26,32.69,1.26,1.26,0,0,1,27.25,31.43Z"/><path class="cls-7" d="M22.45,40.93h9.7a3.23,3.23,0,0,0,6.16,0h2.45a1,1,0,0,0,0-2H38.31a3.24,3.24,0,0,0-6.16,0h-9.7a1,1,0,0,0,0,2Zm12.78-2.25A1.26,1.26,0,1,1,34,39.94,1.27,1.27,0,0,1,35.23,38.68Z"/></svg>