<svg id="Layer_1" data-name="Layer 1" xmlns="http://www.w3.org/2000/svg" xmlns:xlink="http://www.w3.org/1999/xlink" viewBox="0 0 50 50"><defs><style>.cls-1{fill:none;}.cls-2{opacity:0.5;}.cls-3{clip-path:url(#clip-path);}.cls-4{opacity:0.29;}.cls-5{fill:#fff;}.cls-5,.cls-6{fill-rule:evenodd;}.cls-6{fill:#cfcfcf;}.cls-7{fill:#ffc10e;}</style><clipPath id="clip-path"><rect class="cls-1" x="117.29" y="-1456.84" width="2330.99" height="1121.6"/></clipPath></defs><title>icons</title><g class="cls-2"><g class="cls-3"><g class="cls-4"><polygon class="cls-5" points="60.17 -2762.37 2895.24 -144.08 1610.69 1246.82 -1224.38 -1371.46 61.46 -2763.77 60.17 -2762.37"/><polygon class="cls-6" points="1640.96 1214.05 1636.88 1218.46 -1198.19 -1399.82 -1194.12 -1404.23 1640.96 1214.05 1640.96 1214.05"/><polygon class="cls-6" points="1693.32 1157.35 1689.25 1161.76 -1145.83 -1456.52 -1141.75 -1460.93 1693.32 1157.35 1693.32 1157.35"/><polygon class="cls-6" points="1745.69 1100.65 1741.62 1105.06 -1093.46 -1513.22 -1089.38 -1517.63 1745.69 1100.65 1745.69 1100.65"/><polygon class="cls-6" points="1798.06 1043.95 1793.98 1048.36 -1041.09 -1569.92 -1037.02 -1574.33 1798.06 1043.95 1798.06 1043.95"/><polygon class="cls-6" points="1850.42 987.25 1846.35 991.66 -988.73 -1626.62 -984.65 -1631.04 1850.42 987.25 1850.42 987.25"/><polygon class="cls-6" points="1902.79 930.55 1898.71 934.96 -936.36 -1683.32 -932.29 -1687.74 1902.79 930.55 1902.79 930.55"/><polygon class="cls-6" points="1955.15 873.85 1951.08 878.26 -884 -1740.03 -879.92 -1744.44 1955.15 873.85 1955.15 873.85"/><polygon class="cls-6" points="2007.52 817.14 2003.44 821.56 -831.63 -1796.73 -827.56 -1801.14 2007.52 817.14 2007.52 817.14"/><polygon class="cls-6" points="2059.88 760.44 2055.81 764.86 -779.27 -1853.43 -775.19 -1857.84 2059.88 760.44 2059.88 760.44"/><polygon class="cls-6" points="2112.25 703.74 2108.17 708.15 -726.9 -1910.13 -722.83 -1914.54 2112.25 703.74 2112.25 703.74"/><polygon class="cls-6" points="2164.61 647.04 2160.54 651.45 -674.54 -1966.83 -670.46 -1971.24 2164.61 647.04 2164.61 647.04"/><polygon class="cls-6" points="2216.98 590.34 2212.9 594.75 -622.17 -2023.53 -618.1 -2027.94 2216.98 590.34 2216.98 590.34"/><polygon class="cls-6" points="2269.34 533.64 2265.27 538.05 -569.8 -2080.23 -565.73 -2084.65 2269.34 533.64 2269.34 533.64"/><polygon class="cls-6" points="2321.71 476.94 2317.63 481.35 -517.44 -2136.93 -513.36 -2141.35 2321.71 476.94 2321.71 476.94"/><polygon class="cls-6" points="2374.08 420.23 2370 424.65 -465.07 -2193.64 -461 -2198.05 2374.08 420.23 2374.08 420.23"/><polygon class="cls-6" points="2426.44 363.53 2422.36 367.95 -412.71 -2250.34 -408.63 -2254.75 2426.44 363.53 2426.44 363.53"/><polygon class="cls-6" points="2478.81 306.83 2474.73 311.25 -360.34 -2307.04 -356.27 -2311.45 2478.81 306.83 2478.81 306.83"/><polygon class="cls-6" points="2531.17 250.13 2527.1 254.54 -307.98 -2363.74 -303.9 -2368.15 2531.17 250.13 2531.17 250.13"/><polygon class="cls-6" points="2583.54 193.43 2579.46 197.84 -255.61 -2420.44 -251.54 -2424.85 2583.54 193.43 2583.54 193.43"/><polygon class="cls-6" points="2635.9 136.73 2631.83 141.14 -203.25 -2477.14 -199.17 -2481.55 2635.9 136.73 2635.9 136.73"/><polygon class="cls-6" points="2688.27 80.03 2684.19 84.44 -150.88 -2533.84 -146.81 -2538.26 2688.27 80.03 2688.27 80.03"/><polygon class="cls-6" points="2740.63 23.32 2736.56 27.74 -98.52 -2590.54 -94.44 -2594.96 2740.63 23.32 2740.63 23.32"/></g></g></g><path class="cls-7" d="M12.4,26.38h7.26a5.51,5.51,0,0,0,10.68,0H37.6a5.51,5.51,0,1,0,6.72-6.72v-4.5A5.51,5.51,0,1,0,37.6,8.44H30.34a5.52,5.52,0,0,0-10.68,0H12.4a5.53,5.53,0,1,0,0,2.76h7.26a5.51,5.51,0,0,0,10.68,0H37.6a5.55,5.55,0,0,0,4,4v4.5a5.55,5.55,0,0,0-4,4H30.34a5.51,5.51,0,0,0-10.68,0H12.4a5.51,5.51,0,1,0-6.72,6.72v4.5a5.51,5.51,0,1,0,6.72,6.72h7.26a5.52,5.52,0,0,0,10.68,0H37.6a5.53,5.53,0,1,0,0-2.76H30.34a5.51,5.51,0,0,0-10.68,0H12.4a5.55,5.55,0,0,0-4-4v-4.5A5.55,5.55,0,0,0,12.4,26.38ZM7.06,12.58A2.76,2.76,0,1,1,9.82,9.82,2.76,2.76,0,0,1,7.06,12.58Zm17.94,0a2.76,2.76,0,1,1,2.76-2.76A2.76,2.76,0,0,1,25,12.58ZM40.18,9.82a2.76,2.76,0,1,1,2.76,2.76A2.76,2.76,0,0,1,40.18,9.82Zm2.76,12.42A2.76,2.76,0,1,1,40.18,25,2.77,2.77,0,0,1,42.94,22.24ZM25,22.24A2.76,2.76,0,1,1,22.24,25,2.77,2.77,0,0,1,25,22.24ZM42.94,37.42a2.76,2.76,0,1,1-2.76,2.76A2.76,2.76,0,0,1,42.94,37.42ZM25,37.42a2.76,2.76,0,1,1-2.76,2.76A2.76,2.76,0,0,1,25,37.42ZM4.3,25a2.76,2.76,0,1,1,2.76,2.76A2.77,2.77,0,0,1,4.3,25ZM9.82,40.18a2.76,2.76,0,1,1-2.76-2.76A2.76,2.76,0,0,1,9.82,40.18Z"/></svg>