<svg id="Layer_1" data-name="Layer 1" xmlns="http://www.w3.org/2000/svg" xmlns:xlink="http://www.w3.org/1999/xlink" viewBox="0 0 90 90"><defs><style>.cls-1{fill:none;}.cls-2{opacity:0.33;}.cls-3{clip-path:url(#clip-path);}.cls-4{opacity:0.29;}.cls-5{fill:#fff;}.cls-5,.cls-6{fill-rule:evenodd;}.cls-6{fill:#cfcfcf;}.cls-7{fill:#4d4d4f;}</style><clipPath id="clip-path"><rect id="SVGID" class="cls-1" x="-3444.46" y="-830.69" width="2654.99" height="1277.5"/></clipPath></defs><title>Webpage-Supplier-Risk-Radar-V2</title><g class="cls-2"><g class="cls-3"><g class="cls-4"><polygon class="cls-5" points="-2502.38 -2598.28 209.73 -93.55 -1019.11 1237.03 -3731.22 -1267.69 -2501.14 -2599.62 -2502.38 -2598.28"/><polygon class="cls-6" points="183.87 -119.97 188.09 -116.07 -1041.98 1215.85 -1046.2 1211.95 183.87 -119.97 183.87 -119.97"/><polygon class="cls-6" points="129.63 -170.06 133.85 -166.16 -1096.22 1165.76 -1100.44 1161.86 129.63 -170.06 129.63 -170.06"/><polygon class="cls-6" points="75.39 -220.16 79.61 -216.26 -1150.46 1115.66 -1154.68 1111.77 75.39 -220.16 75.39 -220.16"/><polygon class="cls-6" points="21.15 -270.25 25.37 -266.35 -1204.7 1065.57 -1208.93 1061.67 21.15 -270.25 21.15 -270.25"/><polygon class="cls-6" points="11.73 120.84 7.83 125.06 -2704.28 -2379.66 -2700.38 -2383.88 11.73 120.84 11.73 120.84"/><polygon class="cls-6" points="61.83 66.6 57.93 70.82 -2654.18 -2433.91 -2650.28 -2438.13 61.83 66.6 61.83 66.6"/><polygon class="cls-6" points="111.92 12.35 108.02 16.58 -2604.09 -2488.15 -2600.19 -2492.37 111.92 12.35 111.92 12.35"/></g></g></g><path class="cls-7" d="M40.76,21.78a1.34,1.34,0,0,1-1.33-1.34V3.53a1.34,1.34,0,0,1,2.67,0V20.44A1.34,1.34,0,0,1,40.76,21.78Z"/><path class="cls-7" d="M35.19,22.58a1.33,1.33,0,0,1-.94-.39l-12-12a1.33,1.33,0,1,1,1.89-1.88l12,12a1.34,1.34,0,0,1,0,1.89A1.37,1.37,0,0,1,35.19,22.58Z"/><path class="cls-7" d="M46.34,22.58a1.34,1.34,0,0,1-1-2.28l12-12a1.33,1.33,0,1,1,1.89,1.88l-12,12A1.33,1.33,0,0,1,46.34,22.58Z"/><path class="cls-7" d="M39.43,87.45,19.12,69.81a1.42,1.42,0,0,1-.15-2L22,64.21l0,0,2.13-2.49c-2.16-9-.57-25.41-.37-27.37a5.42,5.42,0,0,1,4.59-6l.57-.09a5.43,5.43,0,0,1,6.16,4.57l1.74,11.71,20.59-24.2a5,5,0,0,1,7.1-.57l1,.82a5,5,0,0,1,.57,7.1l-6.74,7.92a5,5,0,0,1,2,1l1,.82a5.05,5.05,0,0,1,1,6.53,4.91,4.91,0,0,1,2,1.05l1,.82a5,5,0,0,1,.57,7.1l-.24.28a5,5,0,0,1,2,1l1,.82a5,5,0,0,1,.61,7.06C69.44,63.27,61,74.87,47.09,80.67l-2.4,2.83h0L41.45,87.3a1.44,1.44,0,0,1-1,.5A1.42,1.42,0,0,1,39.43,87.45ZM22.05,68.58,40.21,84.36l2.3-2.7h0l2.63-3.09a1.39,1.39,0,0,1,.54-.39c13.74-5.62,22.15-17.56,22.23-17.68a1,1,0,0,1,.12-.15,2.24,2.24,0,0,0,.48-1.56,2.13,2.13,0,0,0-.76-1.49l-1-.82A2.15,2.15,0,0,0,65.52,56H65l-.18,0h0l-.17.06,0,0,0,0h0l-.12.06-.21.12,0,0a2.32,2.32,0,0,0-.44.39,1.41,1.41,0,0,1-2,.15h0a1.42,1.42,0,0,1-.15-2l3.18-3.74a2.13,2.13,0,0,0,.51-1.59,2.19,2.19,0,0,0-.76-1.49l-1-.82a2.23,2.23,0,0,0-1.31-.52h-.48l-.09,0-.06,0-.1,0-.1,0-.08,0h0l-.13.05-.1,0,0,0-.09,0-.05,0-.08.05a2,2,0,0,0-.37.35,1.43,1.43,0,0,1-2,.16h0a1.42,1.42,0,0,1-.15-2l2.47-2.9a2.14,2.14,0,0,0,.51-1.59,2.17,2.17,0,0,0-.76-1.49l-1-.83a2.18,2.18,0,0,0-1.34-.51h-.44l-.1,0-.08,0h-.09l-.12,0-.07,0-.13.06-.07,0-.12.07-.06,0h0l-.16.11h0a2.2,2.2,0,0,0-.31.3,1.43,1.43,0,0,1-2.17-1.85l9.68-11.37a2.2,2.2,0,0,0-.23-3.08h0l-1-.82a2.2,2.2,0,0,0-3.09.25L37,48.79a1.44,1.44,0,0,1-1.48.44,1.42,1.42,0,0,1-1-1.16L32.31,33.26a2.57,2.57,0,0,0-2.92-2.17l-.57.08a2.58,2.58,0,0,0-2.17,2.93,1.45,1.45,0,0,1,0,.36c0,.18-1.94,18.53.45,27.21a1.4,1.4,0,0,1-.29,1.3l-2.63,3.09,0,0ZM64.83,56Zm-3.94-9Z"/></svg>