<svg id="Layer_1" data-name="Layer 1" xmlns="http://www.w3.org/2000/svg" xmlns:xlink="http://www.w3.org/1999/xlink" viewBox="0 0 50 50"><defs><style>.cls-1{fill:none;}.cls-2{opacity:0.5;}.cls-3{clip-path:url(#clip-path);}.cls-4{opacity:0.29;}.cls-5{fill:#fff;}.cls-5,.cls-6{fill-rule:evenodd;}.cls-6{fill:#cfcfcf;}.cls-7{fill:#ffc10e;}</style><clipPath id="clip-path"><rect class="cls-1" x="117.29" y="-1536.64" width="2330.99" height="1121.6"/></clipPath></defs><title>icons</title><g class="cls-2"><g class="cls-3"><g class="cls-4"><polygon class="cls-5" points="60.17 -2842.16 2895.24 -223.88 1610.69 1167.03 -1224.38 -1451.26 61.46 -2843.57 60.17 -2842.16"/><polygon class="cls-6" points="1640.96 1134.26 1636.88 1138.67 -1198.19 -1479.61 -1194.12 -1484.03 1640.96 1134.26 1640.96 1134.26"/><polygon class="cls-6" points="1693.32 1077.56 1689.25 1081.97 -1145.83 -1536.32 -1141.75 -1540.73 1693.32 1077.56 1693.32 1077.56"/><polygon class="cls-6" points="1745.69 1020.85 1741.62 1025.27 -1093.46 -1593.02 -1089.38 -1597.43 1745.69 1020.85 1745.69 1020.85"/><polygon class="cls-6" points="1798.06 964.15 1793.98 968.56 -1041.09 -1649.72 -1037.02 -1654.13 1798.06 964.15 1798.06 964.15"/><polygon class="cls-6" points="1850.42 907.45 1846.35 911.87 -988.73 -1706.42 -984.65 -1710.83 1850.42 907.45 1850.42 907.45"/><polygon class="cls-6" points="1902.79 850.75 1898.71 855.16 -936.36 -1763.12 -932.29 -1767.53 1902.79 850.75 1902.79 850.75"/><polygon class="cls-6" points="1955.15 794.05 1951.08 798.46 -884 -1819.82 -879.92 -1824.23 1955.15 794.05 1955.15 794.05"/><polygon class="cls-6" points="2007.52 737.35 2003.44 741.76 -831.63 -1876.52 -827.56 -1880.94 2007.52 737.35 2007.52 737.35"/><polygon class="cls-6" points="2059.88 680.64 2055.81 685.06 -779.27 -1933.22 -775.19 -1937.64 2059.88 680.64 2059.88 680.64"/><polygon class="cls-6" points="2112.25 623.95 2108.17 628.36 -726.9 -1989.93 -722.83 -1994.34 2112.25 623.95 2112.25 623.95"/><polygon class="cls-6" points="2164.61 567.24 2160.54 571.66 -674.54 -2046.63 -670.46 -2051.04 2164.61 567.24 2164.61 567.24"/><polygon class="cls-6" points="2216.98 510.54 2212.9 514.95 -622.17 -2103.33 -618.1 -2107.74 2216.98 510.54 2216.98 510.54"/><polygon class="cls-6" points="2269.34 453.84 2265.27 458.25 -569.8 -2160.03 -565.73 -2164.44 2269.34 453.84 2269.34 453.84"/><polygon class="cls-6" points="2321.71 397.14 2317.63 401.55 -517.44 -2216.73 -513.36 -2221.14 2321.71 397.14 2321.71 397.14"/><polygon class="cls-6" points="2374.08 340.44 2370 344.85 -465.07 -2273.43 -461 -2277.84 2374.08 340.44 2374.08 340.44"/><polygon class="cls-6" points="2426.44 283.74 2422.36 288.15 -412.71 -2330.13 -408.63 -2334.55 2426.44 283.74 2426.44 283.74"/><polygon class="cls-6" points="2478.81 227.03 2474.73 231.45 -360.34 -2386.84 -356.27 -2391.25 2478.81 227.03 2478.81 227.03"/><polygon class="cls-6" points="2531.17 170.34 2527.1 174.75 -307.98 -2443.54 -303.9 -2447.95 2531.17 170.34 2531.17 170.34"/><polygon class="cls-6" points="2583.54 113.63 2579.46 118.05 -255.61 -2500.24 -251.54 -2504.65 2583.54 113.63 2583.54 113.63"/><polygon class="cls-6" points="2635.9 56.93 2631.83 61.34 -203.25 -2556.94 -199.17 -2561.35 2635.9 56.93 2635.9 56.93"/><polygon class="cls-6" points="2688.27 0.23 2684.19 4.64 -150.88 -2613.64 -146.81 -2618.05 2688.27 0.23 2688.27 0.23"/></g></g></g><path class="cls-7" d="M17.73,45.68a2.7,2.7,0,0,0,0-5.39A2.74,2.74,0,0,0,15,42.91,2.77,2.77,0,0,0,17.73,45.68Zm0-4a1.24,1.24,0,1,1-1.24,1.23A1.18,1.18,0,0,1,17.73,41.68Z"/><path class="cls-7" d="M21.44,5.82H14a.69.69,0,0,0-.73.73.69.69,0,0,0,.73.72h7.42a.68.68,0,0,0,.72-.72A.73.73,0,0,0,21.44,5.82Z"/><path class="cls-7" d="M45.73,14.18H38.38a.69.69,0,0,0-.72.73v7.35a.68.68,0,0,0,.72.72h7.35a.69.69,0,0,0,.73-.72V14.91A.74.74,0,0,0,45.73,14.18ZM45,21.53H39.11V15.64H45Z"/><path class="cls-7" d="M45.73,26.47H38.38a.69.69,0,0,0-.72.73v7.35a.68.68,0,0,0,.72.72h7.35a.69.69,0,0,0,.73-.72V27.2A.7.7,0,0,0,45.73,26.47ZM45,33.82H39.11V27.93H45Z"/><path class="cls-7" d="M33,14.18H31.91V4h0a2.61,2.61,0,0,0-2.62-2.62H6.16A2.62,2.62,0,0,0,3.54,4V45.31h0a2.61,2.61,0,0,0,2.62,2.62H29.29a2.6,2.6,0,0,0,2.62-2.62V35.13H33a.69.69,0,0,0,.73-.73V27.2a.69.69,0,0,0-.73-.73H25.65a.69.69,0,0,0-.72.73v7.35a.68.68,0,0,0,.72.72h4.73v2.62H4.93V11.56H30.38v2.62H25.65a.69.69,0,0,0-.72.73v7.35a.68.68,0,0,0,.72.72H33a.69.69,0,0,0,.73-.72V14.91A.73.73,0,0,0,33,14.18ZM26.38,33.82V27.93h5.89v5.89Zm4.07,5.53v6a1.14,1.14,0,0,1-1.16,1.17H6.16A1.15,1.15,0,0,1,5,45.38v-6ZM5,10.11v-6A1.15,1.15,0,0,1,6.16,2.91H29.29a1.14,1.14,0,0,1,1.16,1.16v6ZM32.27,21.53H26.38V15.64h5.89Z"/><path class="cls-7" d="M21,14.91a.69.69,0,0,0-.73-.73H12.93a.69.69,0,0,0-.73.73v7.35a.69.69,0,0,0,.73.72h7.34a.69.69,0,0,0,.73-.72Zm-1.45,6.62h-5.9V15.64h5.9Z"/><path class="cls-7" d="M20.27,26.47H12.93a.69.69,0,0,0-.73.73v7.35a.69.69,0,0,0,.73.72h7.34a.69.69,0,0,0,.73-.72V27.2A.69.69,0,0,0,20.27,26.47Zm-.72,7.35h-5.9V27.93h5.9Z"/></svg>