<svg id="Layer_1" data-name="Layer 1" xmlns="http://www.w3.org/2000/svg" xmlns:xlink="http://www.w3.org/1999/xlink" viewBox="0 0 50 50"><defs><style>.cls-1{fill:none;}.cls-2,.cls-3{fill:#ffc10e;}.cls-2,.cls-7,.cls-8{fill-rule:evenodd;}.cls-4{opacity:0.5;}.cls-5{clip-path:url(#clip-path);}.cls-6{opacity:0.29;}.cls-7{fill:#fff;}.cls-8{fill:#cfcfcf;}</style><clipPath id="clip-path"><rect class="cls-1" x="117.29" y="-1619.18" width="2330.99" height="1121.6"/></clipPath></defs><title>icons</title><polygon class="cls-2" points="6.57 12.54 13.39 5.78 15.1 7.51 6.57 15.96 1.95 11.38 3.69 9.65 6.57 12.54"/><rect class="cls-3" x="18.5" y="7.16" width="12.38" height="2.62"/><rect class="cls-3" x="18.5" y="11.96" width="29.43" height="2.62"/><polygon class="cls-2" points="6.57 26.28 13.39 19.52 15.1 21.25 6.57 29.71 1.95 25.13 3.69 23.39 6.57 26.28"/><rect class="cls-3" x="18.5" y="20.9" width="12.38" height="2.62"/><rect class="cls-3" x="18.5" y="25.7" width="29.43" height="2.62"/><polygon class="cls-2" points="6.57 40.03 13.39 33.26 15.1 34.99 6.57 43.45 1.95 38.87 3.69 37.14 6.57 40.03"/><rect class="cls-3" x="18.5" y="34.64" width="12.38" height="2.62"/><rect class="cls-3" x="18.5" y="39.45" width="29.43" height="2.62"/><g class="cls-4"><g class="cls-5"><g class="cls-6"><polygon class="cls-7" points="60.17 -2924.71 2895.24 -306.43 1610.69 1084.48 -1224.38 -1533.81 61.46 -2926.11 60.17 -2924.71"/><polygon class="cls-8" points="1640.96 1051.71 1636.88 1056.12 -1198.19 -1562.16 -1194.12 -1566.57 1640.96 1051.71 1640.96 1051.71"/><polygon class="cls-8" points="1693.32 995.01 1689.25 999.42 -1145.83 -1618.86 -1141.75 -1623.28 1693.32 995.01 1693.32 995.01"/><polygon class="cls-8" points="1745.69 938.31 1741.62 942.72 -1093.46 -1675.57 -1089.38 -1679.98 1745.69 938.31 1745.69 938.31"/><polygon class="cls-8" points="1798.06 881.61 1793.98 886.02 -1041.09 -1732.27 -1037.02 -1736.68 1798.06 881.61 1798.06 881.61"/><polygon class="cls-8" points="1850.42 824.9 1846.35 829.32 -988.73 -1788.97 -984.65 -1793.38 1850.42 824.9 1850.42 824.9"/><polygon class="cls-8" points="1902.79 768.2 1898.71 772.62 -936.36 -1845.67 -932.29 -1850.08 1902.79 768.2 1902.79 768.2"/><polygon class="cls-8" points="1955.15 711.5 1951.08 715.91 -884 -1902.37 -879.92 -1906.78 1955.15 711.5 1955.15 711.5"/><polygon class="cls-8" points="2007.52 654.8 2003.44 659.21 -831.63 -1959.07 -827.56 -1963.48 2007.52 654.8 2007.52 654.8"/><polygon class="cls-8" points="2059.88 598.1 2055.81 602.51 -779.27 -2015.77 -775.19 -2020.18 2059.88 598.1 2059.88 598.1"/><polygon class="cls-8" points="2112.25 541.4 2108.17 545.81 -726.9 -2072.47 -722.83 -2076.89 2112.25 541.4 2112.25 541.4"/><polygon class="cls-8" points="2164.61 484.7 2160.54 489.11 -674.54 -2129.18 -670.46 -2133.59 2164.61 484.7 2164.61 484.7"/><polygon class="cls-8" points="2216.98 428 2212.9 432.41 -622.17 -2185.88 -618.1 -2190.29 2216.98 428 2216.98 428"/><polygon class="cls-8" points="2269.34 371.29 2265.27 375.7 -569.8 -2242.58 -565.73 -2246.99 2269.34 371.29 2269.34 371.29"/><polygon class="cls-8" points="2321.71 314.59 2317.63 319 -517.44 -2299.28 -513.36 -2303.69 2321.71 314.59 2321.71 314.59"/><polygon class="cls-8" points="2374.08 257.89 2370 262.3 -465.07 -2355.98 -461 -2360.39 2374.08 257.89 2374.08 257.89"/><polygon class="cls-8" points="2426.44 201.19 2422.36 205.6 -412.71 -2412.68 -408.63 -2417.09 2426.44 201.19 2426.44 201.19"/><polygon class="cls-8" points="2478.81 144.49 2474.73 148.9 -360.34 -2469.38 -356.27 -2473.8 2478.81 144.49 2478.81 144.49"/><polygon class="cls-8" points="2531.17 87.79 2527.1 92.2 -307.98 -2526.08 -303.9 -2530.5 2531.17 87.79 2531.17 87.79"/><polygon class="cls-8" points="2583.54 31.09 2579.46 35.5 -255.61 -2582.78 -251.54 -2587.2 2583.54 31.09 2583.54 31.09"/></g></g></g></svg>