<svg id="Layer_1" data-name="Layer 1" xmlns="http://www.w3.org/2000/svg" xmlns:xlink="http://www.w3.org/1999/xlink" viewBox="0 0 90 90"><defs><style>.cls-1{fill:none;}.cls-2{opacity:0.33;}.cls-3{clip-path:url(#clip-path);}.cls-4{opacity:0.29;}.cls-5{fill:#fff;}.cls-5,.cls-6{fill-rule:evenodd;}.cls-6{fill:#cfcfcf;}.cls-7{fill:#4d4d4f;}</style><clipPath id="clip-path"><rect id="SVGID" class="cls-1" x="-3575.85" y="-830.69" width="2654.99" height="1277.5"/></clipPath></defs><title>Webpage-Supplier-Risk-Radar-V2</title><g class="cls-2"><g class="cls-3"><g class="cls-4"><polygon class="cls-5" points="-2633.77 -2598.28 78.34 -93.55 -1150.49 1237.03 -3862.61 -1267.69 -2632.53 -2599.62 -2633.77 -2598.28"/><polygon class="cls-6" points="52.48 -119.97 56.7 -116.07 -1173.37 1215.85 -1177.59 1211.95 52.48 -119.97 52.48 -119.97"/><polygon class="cls-6" points="-1.76 -170.06 2.46 -166.16 -1227.61 1165.76 -1231.83 1161.86 -1.76 -170.06 -1.76 -170.06"/></g></g></g><path class="cls-7" d="M19.74,21.55a1.28,1.28,0,0,1,1.81-1.81l4.54,4.53a1.29,1.29,0,0,1,0,1.82,1.3,1.3,0,0,1-1.82,0ZM30.9,23.12a1.28,1.28,0,0,0,1.28-1.28V16.4a1.28,1.28,0,0,0-2.56,0v5.44A1.28,1.28,0,0,0,30.9,23.12ZM16.4,32.18h5.44a1.28,1.28,0,1,0,0-2.56H16.4a1.28,1.28,0,1,0,0,2.56ZM65.73,63.91a1.29,1.29,0,1,0-1.82,1.82l4.53,4.53a1.29,1.29,0,0,0,.91.37,1.28,1.28,0,0,0,.91-2.18Zm7.87-6.09H68.16a1.28,1.28,0,0,0,0,2.56H73.6a1.28,1.28,0,0,0,0-2.56ZM59.1,66.88a1.28,1.28,0,0,0-1.28,1.28V73.6a1.28,1.28,0,0,0,2.56,0V68.16A1.28,1.28,0,0,0,59.1,66.88ZM81.58,39.23,52.13,68.69a3.13,3.13,0,0,1-2.56.9,3,3,0,0,1-2.23-1.37c-.51-.8-.92-1.63-1.33-2.44a12.51,12.51,0,0,0-2.12-3.37,2.92,2.92,0,0,0-2.79-.92A6.38,6.38,0,0,0,36.62,66a2.92,2.92,0,0,0,.93,2.78A12.9,12.9,0,0,0,41,70.9c.75.38,1.53.77,2.27,1.23a3.13,3.13,0,0,1,1.48,2.32A3.08,3.08,0,0,1,43.82,77l-4.59,4.59a6.42,6.42,0,0,1-9.06,0L8.42,59.83a6.41,6.41,0,0,1,0-9.06L13,46.18a3.13,3.13,0,0,1,2.56-.9,3,3,0,0,1,2.22,1.36,26.66,26.66,0,0,1,1.33,2.44,12.78,12.78,0,0,0,2.13,3.37c2.27,2.27,4.87,0,5.62-.72s3-3.35.72-5.62A13.07,13.07,0,0,0,24.18,44c-.76-.38-1.54-.77-2.28-1.23a3.13,3.13,0,0,1-1.47-2.31,3.08,3.08,0,0,1,.88-2.55L50.77,8.42a6.41,6.41,0,0,1,9.06,0l6.72,6.73a3.07,3.07,0,0,1,.9,2.55,3,3,0,0,1-1.37,2.23,14.65,14.65,0,0,1-2.52,1.25,7.17,7.17,0,0,0-2.64,1.56A3,3,0,0,0,60,25.53,6.43,6.43,0,0,0,64.47,30a3,3,0,0,0,2.79-.93,7.25,7.25,0,0,0,1.56-2.64A16.31,16.31,0,0,1,70,24a3.15,3.15,0,0,1,2.32-1.48,3.1,3.1,0,0,1,2.55.89l6.72,6.72A6.41,6.41,0,0,1,81.58,39.23ZM57.69,59.5l-9.44-9.44a3,3,0,0,1-.89-2.54,3.13,3.13,0,0,1,1.48-2.32A15.06,15.06,0,0,1,51.24,44a7.34,7.34,0,0,0,2.64-1.56c2.27-2.27,0-4.87-.72-5.62s-3.35-3-5.62-.72A7.34,7.34,0,0,0,46,38.76a15.89,15.89,0,0,1-1.25,2.53,3,3,0,0,1-2.23,1.37,3.16,3.16,0,0,1-2.56-.9L30.5,32.31l-7.37,7.37a.5.5,0,0,0-.15.44.59.59,0,0,0,.28.44c.64.39,1.33.74,2.06,1.11A14.68,14.68,0,0,1,29.4,44.3c2.94,2.94,1.76,6.76-.72,9.24s-6.3,3.67-9.25.73a15.05,15.05,0,0,1-2.6-4c-.39-.78-.76-1.52-1.19-2.2a.46.46,0,0,0-.35-.21h-.06a.6.6,0,0,0-.41.17l-4.59,4.59a3.87,3.87,0,0,0,0,5.44L32,79.77a3.86,3.86,0,0,0,5.44,0L42,75.18a.5.5,0,0,0,.15-.44.56.56,0,0,0-.28-.43c-.64-.4-1.33-.75-2.06-1.11a15.11,15.11,0,0,1-4.09-2.63,5.48,5.48,0,0,1-1.62-5.09A8.93,8.93,0,0,1,40.61,59,5.45,5.45,0,0,1,45.7,60.6a14.56,14.56,0,0,1,2.61,4c.39.78.76,1.52,1.19,2.2a.48.48,0,0,0,.34.2.61.61,0,0,0,.47-.16ZM79.77,32,73,25.26a.52.52,0,0,0-.43-.15.59.59,0,0,0-.44.28,13.45,13.45,0,0,0-1,2,9.74,9.74,0,0,1-2.12,3.48A5.47,5.47,0,0,1,64,32.52a8.24,8.24,0,0,1-4.15-2.35A8.24,8.24,0,0,1,57.48,26a5.47,5.47,0,0,1,1.62-5.09,9.74,9.74,0,0,1,3.48-2.12,13,13,0,0,0,2.12-1,.43.43,0,0,0,.2-.34.55.55,0,0,0-.16-.47L58,10.23a3.85,3.85,0,0,0-5.44,0L32.31,30.5l9.45,9.44a.56.56,0,0,0,.47.17.46.46,0,0,0,.34-.21,12.58,12.58,0,0,0,1-2.12,9.71,9.71,0,0,1,2.12-3.47c2.94-2.94,6.76-1.76,9.24.72s3.67,6.3.72,9.24a9.71,9.71,0,0,1-3.47,2.12,14,14,0,0,0-2,1,.59.59,0,0,0-.28.44.5.5,0,0,0,.15.44l9.44,9.44L79.77,37.42A3.87,3.87,0,0,0,79.77,32Z"/></svg>