<svg id="Layer_1" data-name="Layer 1" xmlns="http://www.w3.org/2000/svg" xmlns:xlink="http://www.w3.org/1999/xlink" viewBox="0 0 50 50"><defs><style>.cls-1{fill:none;}.cls-2{opacity:0.5;}.cls-3{clip-path:url(#clip-path);}.cls-4{opacity:0.29;}.cls-5{fill:#fff;}.cls-5,.cls-6{fill-rule:evenodd;}.cls-6{fill:#cfcfcf;}.cls-7{fill:#ffc10e;}</style><clipPath id="clip-path"><rect class="cls-1" x="117.29" y="-1829.68" width="2330.99" height="1121.6"/></clipPath></defs><title>icons</title><g class="cls-2"><g class="cls-3"><g class="cls-4"><polygon class="cls-5" points="60.17 -3135.21 2895.24 -516.92 1610.69 873.98 -1224.38 -1744.3 61.46 -3136.61 60.17 -3135.21"/><polygon class="cls-6" points="1640.96 841.21 1636.88 845.62 -1198.19 -1772.66 -1194.12 -1777.07 1640.96 841.21 1640.96 841.21"/><polygon class="cls-6" points="1693.32 784.51 1689.25 788.92 -1145.83 -1829.36 -1141.75 -1833.77 1693.32 784.51 1693.32 784.51"/><polygon class="cls-6" points="1745.69 727.81 1741.62 732.22 -1093.46 -1886.06 -1089.38 -1890.47 1745.69 727.81 1745.69 727.81"/><polygon class="cls-6" points="1798.06 671.11 1793.98 675.52 -1041.09 -1942.76 -1037.02 -1947.17 1798.06 671.11 1798.06 671.11"/><polygon class="cls-6" points="1850.42 614.41 1846.35 618.82 -988.73 -1999.46 -984.65 -2003.88 1850.42 614.41 1850.42 614.41"/><polygon class="cls-6" points="1902.79 557.71 1898.71 562.12 -936.36 -2056.16 -932.29 -2060.58 1902.79 557.71 1902.79 557.71"/><polygon class="cls-6" points="1955.15 501 1951.08 505.42 -884 -2112.87 -879.92 -2117.28 1955.15 501 1955.15 501"/><polygon class="cls-6" points="2007.52 444.3 2003.44 448.72 -831.63 -2169.57 -827.56 -2173.98 2007.52 444.3 2007.52 444.3"/><polygon class="cls-6" points="2059.88 387.6 2055.81 392.01 -779.27 -2226.27 -775.19 -2230.68 2059.88 387.6 2059.88 387.6"/><polygon class="cls-6" points="2112.25 330.9 2108.17 335.31 -726.9 -2282.97 -722.83 -2287.38 2112.25 330.9 2112.25 330.9"/><polygon class="cls-6" points="2164.61 274.2 2160.54 278.61 -674.54 -2339.67 -670.46 -2344.08 2164.61 274.2 2164.61 274.2"/><polygon class="cls-6" points="2216.98 217.5 2212.9 221.91 -622.17 -2396.37 -618.1 -2400.78 2216.98 217.5 2216.98 217.5"/><polygon class="cls-6" points="2269.34 160.8 2265.27 165.21 -569.8 -2453.07 -565.73 -2457.49 2269.34 160.8 2269.34 160.8"/><polygon class="cls-6" points="2321.71 104.09 2317.63 108.51 -517.44 -2509.78 -513.36 -2514.19 2321.71 104.09 2321.71 104.09"/><polygon class="cls-6" points="2374.08 47.39 2370 51.81 -465.07 -2566.48 -461 -2570.89 2374.08 47.39 2374.08 47.39"/></g></g></g><path class="cls-7" d="M46.71,25.25l2.14-6.73a3,3,0,0,0-1.94-3.75L43,13.53,40.59,6a3,3,0,0,0-3.75-1.94L25,7.81,13.16,4.05A3,3,0,0,0,9.41,6L7,13.52,3.08,14.77a3,3,0,0,0-1.94,3.75l2.15,6.73L1.15,32a3,3,0,0,0,1.94,3.75L7,37l2.4,7.54a3,3,0,0,0,3.73,1.94h0L25,42.69l11.84,3.76a3,3,0,0,0,3.75-1.94L43,37l3.93-1.25A3,3,0,0,0,48.86,32Zm-.55-8.13a.52.52,0,0,1,.34.65l-1.08,3.41L43.9,16.39ZM11.76,6.73a.54.54,0,0,1,.66-.34L20.94,9.1l-11,3.51ZM3.84,33.38a.53.53,0,0,1-.34-.66l1.08-3.41,1.52,4.8ZM38.25,43.77a.54.54,0,0,1-.66.34L29.06,41.4l11.06-3.51Zm7.91-10.39L12.42,44.11a.54.54,0,0,1-.66-.34h0l-8.26-26a.51.51,0,0,1,.34-.65L37.59,6.39a.4.4,0,0,1,.15,0,.54.54,0,0,1,.25.06.57.57,0,0,1,.26.31l8.25,26A.52.52,0,0,1,46.16,33.38ZM29,18.29A15.83,15.83,0,0,1,15.21,35.64h-.15a1.23,1.23,0,1,1-.15-2.46A13.38,13.38,0,0,0,26.55,18.61l-1.81,2.31A1.23,1.23,0,0,1,22.8,19.4h0l3.64-4.66a1.22,1.22,0,0,1,1.72-.21h0l4.67,3.63a1.23,1.23,0,0,1-1.52,1.94h0ZM13.88,26.92l.79-2-2-.77a1.24,1.24,0,0,1,.87-2.32h0l2,.78.78-2a1.23,1.23,0,0,1,2.28.9l-.76,2,2,.79A1.23,1.23,0,1,1,19,26.56l-2-.77-.77,2a1.23,1.23,0,1,1-2.3-.88ZM39,30.13a1.22,1.22,0,0,1-1.58.71h0l-2-.78-.78,2A1.24,1.24,0,0,1,33,32.8a1.23,1.23,0,0,1-.71-1.59l.77-2-2-.79A1.23,1.23,0,0,1,32,26.1l2,.78.77-2a1.24,1.24,0,1,1,2.31.89l-.78,2,2,.77A1.24,1.24,0,0,1,39,30.12Z"/></svg>