<svg id="Layer_1" data-name="Layer 1" xmlns="http://www.w3.org/2000/svg" xmlns:xlink="http://www.w3.org/1999/xlink" viewBox="0 0 50 50"><defs><style>.cls-1{fill:none;}.cls-2{opacity:0.5;}.cls-3{clip-path:url(#clip-path);}.cls-4{opacity:0.29;}.cls-5{fill:#fff;}.cls-5,.cls-6{fill-rule:evenodd;}.cls-6{fill:#cfcfcf;}.cls-7{fill:#ffc10e;}</style><clipPath id="clip-path"><rect class="cls-1" x="117.29" y="-1727.87" width="2330.99" height="1121.6"/></clipPath></defs><title>icons</title><g class="cls-2"><g class="cls-3"><g class="cls-4"><polygon class="cls-5" points="60.17 -3033.4 2895.24 -415.12 1610.69 975.79 -1224.38 -1642.49 61.46 -3034.8 60.17 -3033.4"/><polygon class="cls-6" points="1640.96 943.02 1636.88 947.43 -1198.19 -1670.85 -1194.12 -1675.26 1640.96 943.02 1640.96 943.02"/><polygon class="cls-6" points="1693.32 886.32 1689.25 890.73 -1145.83 -1727.55 -1141.75 -1731.96 1693.32 886.32 1693.32 886.32"/><polygon class="cls-6" points="1745.69 829.62 1741.62 834.03 -1093.46 -1784.25 -1089.38 -1788.66 1745.69 829.62 1745.69 829.62"/><polygon class="cls-6" points="1798.06 772.92 1793.98 777.33 -1041.09 -1840.95 -1037.02 -1845.37 1798.06 772.92 1798.06 772.92"/><polygon class="cls-6" points="1850.42 716.22 1846.35 720.63 -988.73 -1897.65 -984.65 -1902.07 1850.42 716.22 1850.42 716.22"/><polygon class="cls-6" points="1902.79 659.51 1898.71 663.93 -936.36 -1954.36 -932.29 -1958.77 1902.79 659.51 1902.79 659.51"/><polygon class="cls-6" points="1955.15 602.81 1951.08 607.23 -884 -2011.06 -879.92 -2015.47 1955.15 602.81 1955.15 602.81"/><polygon class="cls-6" points="2007.52 546.11 2003.44 550.52 -831.63 -2067.76 -827.56 -2072.17 2007.52 546.11 2007.52 546.11"/><polygon class="cls-6" points="2059.88 489.41 2055.81 493.82 -779.27 -2124.46 -775.19 -2128.87 2059.88 489.41 2059.88 489.41"/><polygon class="cls-6" points="2112.25 432.71 2108.17 437.12 -726.9 -2181.16 -722.83 -2185.57 2112.25 432.71 2112.25 432.71"/><polygon class="cls-6" points="2164.61 376.01 2160.54 380.42 -674.54 -2237.86 -670.46 -2242.28 2164.61 376.01 2164.61 376.01"/><polygon class="cls-6" points="2216.98 319.31 2212.9 323.72 -622.17 -2294.56 -618.1 -2298.98 2216.98 319.31 2216.98 319.31"/><polygon class="cls-6" points="2269.34 262.61 2265.27 267.02 -569.8 -2351.27 -565.73 -2355.68 2269.34 262.61 2269.34 262.61"/><polygon class="cls-6" points="2321.71 205.9 2317.63 210.32 -517.44 -2407.97 -513.36 -2412.38 2321.71 205.9 2321.71 205.9"/><polygon class="cls-6" points="2374.08 149.2 2370 153.62 -465.07 -2464.67 -461 -2469.08 2374.08 149.2 2374.08 149.2"/><polygon class="cls-6" points="2426.44 92.5 2422.36 96.91 -412.71 -2521.37 -408.63 -2525.78 2426.44 92.5 2426.44 92.5"/><polygon class="cls-6" points="2478.81 35.8 2474.73 40.21 -360.34 -2578.07 -356.27 -2582.48 2478.81 35.8 2478.81 35.8"/></g></g></g><path class="cls-7" d="M48.43,17.85V6.35H13.66v4.54H4.39V6.35H2.07V41H13.66v4.64H48.43V34.07H13.66v4.64H4.39V27.12h9.27v4.64H48.43V20.17H13.66V24.8H4.39V13.21h9.27v4.64ZM16,8.58H46.11v7H16Zm0,27.81H46.11v7H16Zm0-13.91H46.11v7H16Z"/></svg>