<svg id="Layer_1" data-name="Layer 1" xmlns="http://www.w3.org/2000/svg" xmlns:xlink="http://www.w3.org/1999/xlink" viewBox="0 0 50 50"><defs><style>.cls-1{fill:none;}.cls-2{opacity:0.5;}.cls-3{clip-path:url(#clip-path);}.cls-4{opacity:0.29;}.cls-5{fill:#fff;}.cls-5,.cls-6{fill-rule:evenodd;}.cls-6{fill:#cfcfcf;}.cls-7{fill:#ffc10e;}</style><clipPath id="clip-path"><rect class="cls-1" x="117.29" y="-1934.24" width="2330.99" height="1121.6"/></clipPath></defs><title>icons</title><g class="cls-2"><g class="cls-3"><g class="cls-4"><polygon class="cls-5" points="60.17 -3239.77 2895.24 -621.49 1610.69 769.42 -1224.38 -1848.86 61.46 -3241.17 60.17 -3239.77"/><polygon class="cls-6" points="1640.96 736.65 1636.88 741.06 -1198.19 -1877.22 -1194.12 -1881.63 1640.96 736.65 1640.96 736.65"/><polygon class="cls-6" points="1693.32 679.95 1689.25 684.36 -1145.83 -1933.92 -1141.75 -1938.33 1693.32 679.95 1693.32 679.95"/><polygon class="cls-6" points="1745.69 623.25 1741.62 627.66 -1093.46 -1990.62 -1089.38 -1995.03 1745.69 623.25 1745.69 623.25"/><polygon class="cls-6" points="1798.06 566.55 1793.98 570.96 -1041.09 -2047.32 -1037.02 -2051.74 1798.06 566.55 1798.06 566.55"/><polygon class="cls-6" points="1850.42 509.85 1846.35 514.26 -988.73 -2104.02 -984.65 -2108.44 1850.42 509.85 1850.42 509.85"/><polygon class="cls-6" points="1902.79 453.14 1898.71 457.56 -936.36 -2160.72 -932.29 -2165.14 1902.79 453.14 1902.79 453.14"/><polygon class="cls-6" points="1955.15 396.44 1951.08 400.86 -884 -2217.43 -879.92 -2221.84 1955.15 396.44 1955.15 396.44"/><polygon class="cls-6" points="2007.52 339.74 2003.44 344.15 -831.63 -2274.13 -827.56 -2278.54 2007.52 339.74 2007.52 339.74"/><polygon class="cls-6" points="2059.88 283.04 2055.81 287.45 -779.27 -2330.83 -775.19 -2335.24 2059.88 283.04 2059.88 283.04"/><polygon class="cls-6" points="2112.25 226.34 2108.17 230.75 -726.9 -2387.53 -722.83 -2391.94 2112.25 226.34 2112.25 226.34"/><polygon class="cls-6" points="2164.61 169.64 2160.54 174.05 -674.54 -2444.23 -670.46 -2448.64 2164.61 169.64 2164.61 169.64"/><polygon class="cls-6" points="2216.98 112.94 2212.9 117.35 -622.17 -2500.93 -618.1 -2505.35 2216.98 112.94 2216.98 112.94"/><polygon class="cls-6" points="2269.34 56.24 2265.27 60.65 -569.8 -2557.64 -565.73 -2562.05 2269.34 56.24 2269.34 56.24"/><polygon class="cls-6" points="2321.71 -0.47 2317.63 3.95 -517.44 -2614.34 -513.36 -2618.75 2321.71 -0.47 2321.71 -0.47"/></g></g></g><path class="cls-7" d="M48.4,28.57H44.09a.7.7,0,0,0-.74.74v1.41H41.12v-8.4a2.24,2.24,0,0,0-2.23-2.23h-5V13.41h7.14v1.41a.7.7,0,0,0,.74.74H46.1a.7.7,0,0,0,.74-.74V10.51a.7.7,0,0,0-.74-.75H41.79a.7.7,0,0,0-.74.75v1.41H33.17a.7.7,0,0,0-.74.74v7.43H25.51V9a2.79,2.79,0,0,0,2.16-2.75,2.9,2.9,0,0,0-2.9-2.9,2.86,2.86,0,0,0-2.9,2.9A2.79,2.79,0,0,0,24,9V20H17.41V12.59a.69.69,0,0,0-.74-.74H8.79V10.43a.7.7,0,0,0-.74-.74H3.74a.7.7,0,0,0-.74.74v4.31a.7.7,0,0,0,.74.75H8.05a.7.7,0,0,0,.74-.75V13.33h7.14V20H11.17a2.24,2.24,0,0,0-2.23,2.23v8.4H6.56a2.78,2.78,0,0,0-2.75-2.16A2.9,2.9,0,0,0,1.73,33.4,2.71,2.71,0,0,0,4.85,34a2.94,2.94,0,0,0,1.71-1.93H8.94V41.2H6a.7.7,0,0,0-.6.3.72.72,0,0,0-.14.67l1,3.94a.74.74,0,0,0,.74.52h35.9a.82.82,0,0,0,.74-.52l1-3.94a.76.76,0,0,0-.15-.67.91.91,0,0,0-.59-.3h-2.9v-9h2.23v1.41a.69.69,0,0,0,.74.74h4.31a.69.69,0,0,0,.74-.74V29.31A.61.61,0,0,0,48.4,28.57ZM42.61,11.25h2.82v2.83H42.61Zm-19.25-5a1.41,1.41,0,1,1,1.41,1.41A1.46,1.46,0,0,1,23.36,6.27Zm-16,7.81H4.48V11.25H7.31Zm-3,18.65a1.38,1.38,0,0,1-1.93-1.26,1.41,1.41,0,0,1,1.41-1.42,1.46,1.46,0,0,1,1.41,1.42A1.32,1.32,0,0,1,4.26,32.73ZM42.38,45.29H7.6l-.67-2.45H43Zm-32-3.94v-19a.75.75,0,0,1,.75-.74H38.82a.74.74,0,0,1,.74.74v19Zm37.31-8.47H44.84V30.05h2.82Z"/><path class="cls-7" d="M18.45,31.82s.05,0,.1,0l.53.09.13,0a5.16,5.16,0,0,0,.3,1.36l-.26.18-.26.17-.09.07a.51.51,0,0,0-.16.62A7.12,7.12,0,0,0,20,36.15a.53.53,0,0,0,.65.07l0,0c.14-.11.29-.2.43-.29l.14-.1a5.43,5.43,0,0,0,1.19.75c0,.09,0,.18-.06.26s-.05.27-.07.41,0,0,0,0a.49.49,0,0,0,.33.55,5.43,5.43,0,0,0,1.07.28,6.73,6.73,0,0,0,1.1.12h0a.51.51,0,0,0,.5-.4v0c0-.13.05-.27.08-.41s0-.16.05-.26a6,6,0,0,0,1.39-.28l.09.14c.1.13.21.28.29.41l.05.06a.54.54,0,0,0,.63.15,6.94,6.94,0,0,0,1.85-1.23.48.48,0,0,0,.08-.62l-.06-.1-.17-.24c-.07-.09-.12-.18-.19-.26A5.3,5.3,0,0,0,30.2,34l.13,0,.54.1a.15.15,0,0,0,.09,0,.53.53,0,0,0,.54-.34,7.56,7.56,0,0,0,.3-1.06,6.71,6.71,0,0,0,.11-1.09.5.5,0,0,0-.39-.5h0l-.25-.05L30.78,31a5.63,5.63,0,0,0-.29-1.34c.19-.14.4-.26.6-.4a.49.49,0,0,0,.18-.63A6.72,6.72,0,0,0,30,26.8a.52.52,0,0,0-.66-.07L29,27l-.24.16a5.43,5.43,0,0,0-1.19-.75s0,0,0-.05l0-.12s0,0,0,0l0-.16c0-.1,0-.2.06-.34a.49.49,0,0,0-.33-.56,5.43,5.43,0,0,0-1.07-.28,8,8,0,0,0-1.1-.12.53.53,0,0,0-.52.44c0,.1,0,.22-.07.32l0,.15a.06.06,0,0,1,0,0l0,.12s0,0,0,0a6,6,0,0,0-1.39.28L23,25.88c-.09-.11-.17-.24-.25-.35a.5.5,0,0,0-.64-.18,7,7,0,0,0-1.86,1.24.49.49,0,0,0-.06.65l.41.58A5.14,5.14,0,0,0,19.81,29l-.45-.08-.29,0a.51.51,0,0,0-.57.32,7.56,7.56,0,0,0-.3,1.06,8.2,8.2,0,0,0-.11,1.1A.48.48,0,0,0,18.45,31.82Zm.76-1.39a4.7,4.7,0,0,1,.12-.51l.54.1a.78.78,0,0,0,.26,0,.52.52,0,0,0,.44-.31,4.53,4.53,0,0,1,1-1.5.5.5,0,0,0,.11-.53c0-.08-.09-.15-.14-.24l-.1-.13-.19-.28a5.88,5.88,0,0,1,.88-.59l.32.46a.63.63,0,0,0,.21.22.57.57,0,0,0,.49.05,4.86,4.86,0,0,1,1.8-.36.55.55,0,0,0,.46-.28.79.79,0,0,0,.06-.22l.06-.35,0-.15a.06.06,0,0,1,0,0v0l.5.07a3.88,3.88,0,0,1,.49.11v0s0,0,0,0l0,.16-.07.34a.86.86,0,0,0,0,.22.5.5,0,0,0,.32.43,4.57,4.57,0,0,1,1.54,1,.51.51,0,0,0,.47.12.65.65,0,0,0,.28-.13l.46-.31a6.12,6.12,0,0,1,.6.84,3.37,3.37,0,0,0-.31.21l-.11.07a.76.76,0,0,0-.22.18.49.49,0,0,0-.1.54,4.6,4.6,0,0,1,.39,1.75.51.51,0,0,0,.28.45,1,1,0,0,0,.25.07l.54.09c0,.18,0,.35-.07.51s-.08.34-.12.5l-.14,0L30,32.91h-.07a.51.51,0,0,0-.54.31,4.43,4.43,0,0,1-1,1.52.48.48,0,0,0-.11.55.46.46,0,0,0,.09.15l.34.48a6.1,6.1,0,0,1-.86.57l-.06-.09L27.5,36a.53.53,0,0,0-.12-.14.55.55,0,0,0-.55-.1,4.73,4.73,0,0,1-1.82.36.51.51,0,0,0-.46.3.65.65,0,0,0-.06.21c0,.19-.07.37-.1.55h0l-.5-.08A3.88,3.88,0,0,1,23.4,37h0c0-.19.06-.37.1-.55a.58.58,0,0,0,0-.22.51.51,0,0,0-.33-.44,4.7,4.7,0,0,1-1.54-1,.57.57,0,0,0-.56-.1.65.65,0,0,0-.16.09,3.62,3.62,0,0,1-.41.27l-.09.07a5.81,5.81,0,0,1-.59-.84l.49-.32.14-.1a.51.51,0,0,0,.11-.56,4.35,4.35,0,0,1-.39-1.78.5.5,0,0,0-.38-.48l-.08,0-.49-.09-.14,0C19.15,30.76,19.18,30.6,19.21,30.43Z"/><path class="cls-7" d="M22.77,33.57a2.94,2.94,0,0,0,1.18.75,2.42,2.42,0,0,0,.48.13,2.73,2.73,0,0,0,.5,0H25a3,3,0,0,0,1.3-.28,3.06,3.06,0,0,0,1.61-1.71c0-.15.09-.31.13-.47h0a2.63,2.63,0,0,0,.05-.49,3,3,0,0,0-.29-1.34,2.83,2.83,0,0,0-.57-.81,3.17,3.17,0,0,0-1.18-.75l-.48-.13a4.07,4.07,0,0,0-.49-.05,3.25,3.25,0,0,0-1.38.28,3.16,3.16,0,0,0-.84.56,3,3,0,0,0-.77,1.15,2.59,2.59,0,0,0-.12.48,2,2,0,0,0-.06.49,3,3,0,0,0,.3,1.35A2.57,2.57,0,0,0,22.77,33.57Zm.2-2.45a2,2,0,0,1,.09-.33,2,2,0,0,1,.51-.77,2,2,0,0,1,.55-.37,2,2,0,0,1,.87-.19H25a1.76,1.76,0,0,1,.33,0,1.68,1.68,0,0,1,.32.09,2,2,0,0,1,.8.5,1.88,1.88,0,0,1,.38.54,1.86,1.86,0,0,1,.19.89,2,2,0,0,1,0,.34,2,2,0,0,1-.61,1.08,2.27,2.27,0,0,1-.55.36,2,2,0,0,1-.92.19l-.33,0-.33-.08a2.52,2.52,0,0,1-.79-.5,1.9,1.9,0,0,1-.37-.55,1.87,1.87,0,0,1-.19-.9A1.69,1.69,0,0,1,23,31.12Z"/></svg>