<svg id="Layer_1" data-name="Layer 1" xmlns="http://www.w3.org/2000/svg" viewBox="0 0 25 25"><defs><style>.cls-1{fill:#0b86ca;}.cls-2{fill:#fff;}</style></defs><title>linkedin svg</title><rect class="cls-1" width="25" height="25"/><path class="cls-2" d="M9.4,7.45A1.28,1.28,0,0,1,8,8.73,1.29,1.29,0,1,1,8,6.15,1.29,1.29,0,0,1,9.4,7.45ZM6.75,18V9.75H9.32V18Z"/><path class="cls-2" d="M11.38,12.38c0-1,0-1.91-.07-2.63h2.23l.12,1.13h.05a3,3,0,0,1,2.55-1.32c1.69,0,2.95,1.11,2.95,3.55V18H16.65V13.43c0-1.07-.37-1.79-1.3-1.79a1.36,1.36,0,0,0-1.3,1,1.67,1.67,0,0,0-.11.64V18H11.38Z"/></svg>