<svg xmlns="http://www.w3.org/2000/svg" xmlns:xlink="http://www.w3.org/1999/xlink" id="Layer_1" data-name="Layer 1" viewBox="0 0 36 36"><defs><clipPath id="clip-path"><circle cx="18" cy="18" r="17" fill="none"/></clipPath><style>.cls-3{fill:#80181c}</style></defs><g clip-path="url(#clip-path)"><path d="M-.56 12.78h37.12a.67.67 0 000-1.34h-2.88a16.61 16.61 0 00-3.6-5.39 17 17 0 00-24.16 0 16.61 16.61 0 00-3.6 5.39H-.56a.67.67 0 00-.66.67.67.67 0 00.66.67zM10.91 7.7a22.44 22.44 0 01-3.38-1.34 15.43 15.43 0 016.35-3.48 21.38 21.38 0 00-2.97 4.82zm.79 1.59a25.41 25.41 0 006.3.79 25.35 25.35 0 006.3-.79c.27.69.51 1.41.72 2.15H11c.19-.74.43-1.44.7-2.15zM25.09 7.7a21.38 21.38 0 00-3-4.82 15.49 15.49 0 016.35 3.48 21.43 21.43 0 01-3.35 1.34zm1.31 3.74a24.35 24.35 0 00-.81-2.5 23.06 23.06 0 003.88-1.6 15.63 15.63 0 012.76 4.1zm-6.47-9a19.38 19.38 0 013.86 5.6 24.9 24.9 0 01-11.58 0 19.38 19.38 0 013.86-5.6A17.7 17.7 0 0118 2.33a17.7 17.7 0 011.93.12zm-13.4 4.9a23.06 23.06 0 003.88 1.6 24.35 24.35 0 00-.81 2.5H3.77a15.63 15.63 0 012.76-4.1zM36.56 23.22H-.56a.67.67 0 00-.66.67.67.67 0 00.66.67h2.88A16.61 16.61 0 005.92 30a17 17 0 0024.15 0 16.7 16.7 0 003.59-5.38h2.88a.67.67 0 000-1.34zM25.09 28.3a22.44 22.44 0 013.38 1.34 15.49 15.49 0 01-6.35 3.48 21.38 21.38 0 002.97-4.82zm-.79-1.59a26.08 26.08 0 00-12.6 0c-.27-.69-.51-1.41-.72-2.15H25c-.19.74-.43 1.44-.7 2.15zM10.91 28.3a21.38 21.38 0 003 4.82 15.43 15.43 0 01-6.35-3.48 22.44 22.44 0 013.35-1.34zM9.6 24.56a24.35 24.35 0 00.81 2.5 23.06 23.06 0 00-3.88 1.6 15.47 15.47 0 01-2.76-4.1zm6.47 9A19.38 19.38 0 0112.21 28a24.86 24.86 0 0111.57 0 19.16 19.16 0 01-3.85 5.6 17.7 17.7 0 01-1.93.12 17.7 17.7 0 01-1.93-.17zm13.4-4.89a23.06 23.06 0 00-3.88-1.6 24.35 24.35 0 00.81-2.5h5.83a15.63 15.63 0 01-2.76 4.09z" class="cls-3"/><text fill="#80181c" font-family="Locator-Bold,Locator" font-size="11.04" font-weight="700" letter-spacing="-.04em" transform="translate(2.46 21.82)">NEWS</text></g></svg>