<svg id="Layer_1" data-name="Layer 1" xmlns="http://www.w3.org/2000/svg" xmlns:xlink="http://www.w3.org/1999/xlink" viewBox="0 0 50 50"><defs><style>.cls-1{fill:none;}.cls-2{opacity:0.5;}.cls-3{clip-path:url(#clip-path);}.cls-4{opacity:0.29;}.cls-5{fill:#fff;}.cls-5,.cls-6,.cls-7{fill-rule:evenodd;}.cls-6{fill:#cfcfcf;}.cls-7{fill:#ffc10e;}</style><clipPath id="clip-path"><rect class="cls-1" x="117.29" y="-2020.92" width="2330.99" height="1121.6"/></clipPath></defs><title>icons</title><g class="cls-2"><g class="cls-3"><g class="cls-4"><polygon class="cls-5" points="60.17 -3326.44 2895.24 -708.16 1610.69 682.75 -1224.38 -1935.54 61.46 -3327.84 60.17 -3326.44"/><polygon class="cls-6" points="1640.96 649.98 1636.88 654.39 -1198.19 -1963.89 -1194.12 -1968.31 1640.96 649.98 1640.96 649.98"/><polygon class="cls-6" points="1693.32 593.27 1689.25 597.69 -1145.83 -2020.6 -1141.75 -2025.01 1693.32 593.27 1693.32 593.27"/><polygon class="cls-6" points="1745.69 536.57 1741.62 540.99 -1093.46 -2077.3 -1089.38 -2081.71 1745.69 536.57 1745.69 536.57"/><polygon class="cls-6" points="1798.06 479.87 1793.98 484.28 -1041.09 -2134 -1037.02 -2138.41 1798.06 479.87 1798.06 479.87"/><polygon class="cls-6" points="1850.42 423.17 1846.35 427.58 -988.73 -2190.7 -984.65 -2195.11 1850.42 423.17 1850.42 423.17"/><polygon class="cls-6" points="1902.79 366.47 1898.71 370.88 -936.36 -2247.4 -932.29 -2251.81 1902.79 366.47 1902.79 366.47"/><polygon class="cls-6" points="1955.15 309.77 1951.08 314.18 -884 -2304.1 -879.92 -2308.51 1955.15 309.77 1955.15 309.77"/><polygon class="cls-6" points="2007.52 253.07 2003.44 257.48 -831.63 -2360.8 -827.56 -2365.22 2007.52 253.07 2007.52 253.07"/><polygon class="cls-6" points="2059.88 196.37 2055.81 200.78 -779.27 -2417.51 -775.19 -2421.92 2059.88 196.37 2059.88 196.37"/><polygon class="cls-6" points="2112.25 139.66 2108.17 144.08 -726.9 -2474.21 -722.83 -2478.62 2112.25 139.66 2112.25 139.66"/><polygon class="cls-6" points="2164.61 82.96 2160.54 87.38 -674.54 -2530.91 -670.46 -2535.32 2164.61 82.96 2164.61 82.96"/><polygon class="cls-6" points="2216.98 26.26 2212.9 30.67 -622.17 -2587.61 -618.1 -2592.02 2216.98 26.26 2216.98 26.26"/></g></g></g><path class="cls-7" d="M25,.9a5.45,5.45,0,0,0-5.48,5.4A5.46,5.46,0,0,0,24,11.64v5.79a7.84,7.84,0,0,0-5.15,2.89l-5.47-3.06a5.55,5.55,0,0,0-2.55-6.43A5.74,5.74,0,0,0,8,10.12a5.37,5.37,0,0,0-4.62,2.66h0A5.45,5.45,0,0,0,5.4,20.26a5.79,5.79,0,0,0,6.91-1.13l5.47,3A7.41,7.41,0,0,0,17.21,25a7.31,7.31,0,0,0,.57,2.81l-5.49,3.05a5.45,5.45,0,0,0-4-1.87,5.56,5.56,0,0,0-2.85.73,5.46,5.46,0,0,0-2.06,7.48h0a5.53,5.53,0,0,0,10-4.48l5.48-3.05A7.87,7.87,0,0,0,24,32.56v5.77a5.49,5.49,0,1,0,2,0V32.56a7.8,7.8,0,0,0,5.13-2.92l5.48,3.09a5.52,5.52,0,1,0,8-3A6.42,6.42,0,0,0,41.75,29a5.42,5.42,0,0,0-4,1.87L32.23,27.8A7.48,7.48,0,0,0,32.78,25a7.59,7.59,0,0,0-.55-2.83l5.45-3.05a5.51,5.51,0,0,0,6.91,1.16h0a5.46,5.46,0,0,0,2.06-7.47h0A5.48,5.48,0,0,0,42,10.12a5.77,5.77,0,0,0-2.83.71h0a5.53,5.53,0,0,0-2.54,6.43l-5.48,3.06A7.81,7.81,0,0,0,26,17.43V11.64A5.46,5.46,0,0,0,30.49,6.3,5.44,5.44,0,0,0,25,.9Zm0,2.18A3.32,3.32,0,0,1,28.46,6.3a3.46,3.46,0,0,1-6.91,0A3.33,3.33,0,0,1,25,3.08ZM8.19,12.32a3.58,3.58,0,0,1,1.69.46,3.1,3.1,0,0,1,1.3,4.37,3.65,3.65,0,0,1-4.85,1.18A3.42,3.42,0,0,1,5.05,14,3.06,3.06,0,0,1,8.19,12.32Zm33.63,0A3.49,3.49,0,0,1,45,14a3.09,3.09,0,0,1-1.29,4.38,3.63,3.63,0,0,1-4.82-1.16v0a3.07,3.07,0,0,1,1.27-4.37,3.62,3.62,0,0,1,1.71-.46ZM25,19.52A5.62,5.62,0,0,1,30.76,25a5.18,5.18,0,0,1-.69,2.57l-.06.12a5.77,5.77,0,0,1-5,2.76A5.63,5.63,0,0,1,19.23,25,5.64,5.64,0,0,1,25,19.52ZM8,31.18a3.54,3.54,0,0,1,3.15,1.65,3.11,3.11,0,0,1-1.3,4.38A3.65,3.65,0,0,1,5.05,36a3.09,3.09,0,0,1,1.28-4.37A3.5,3.5,0,0,1,8,31.18Zm33.95,0a3.54,3.54,0,0,1,1.68.46A3.44,3.44,0,0,1,45,36a3.65,3.65,0,0,1-4.84,1.2,3.39,3.39,0,0,1-1.27-4.38A3.5,3.5,0,0,1,42,31.18ZM25,40.43a3.32,3.32,0,0,1,3.46,3.23A3.46,3.46,0,1,1,25,40.43Z"/></svg>