<svg id="Layer_1" data-name="Layer 1" xmlns="http://www.w3.org/2000/svg" xmlns:xlink="http://www.w3.org/1999/xlink" viewBox="0 0 50 50"><defs><style>.cls-1{fill:none;}.cls-2{opacity:0.5;}.cls-3{clip-path:url(#clip-path);}.cls-4{opacity:0.29;}.cls-5{fill:#fff;}.cls-5,.cls-6{fill-rule:evenodd;}.cls-6{fill:#cfcfcf;}.cls-7{fill:#ffc10e;}</style><clipPath id="clip-path"><rect class="cls-1" x="117.29" y="-2113.09" width="2330.99" height="1121.6"/></clipPath></defs><title>icons</title><g class="cls-2"><g class="cls-3"><g class="cls-4"><polygon class="cls-5" points="60.17 -3418.62 2895.24 -800.34 1610.69 590.57 -1224.38 -2027.72 61.46 -3420.02 60.17 -3418.62"/><polygon class="cls-6" points="1640.96 557.8 1636.88 562.21 -1198.19 -2056.07 -1194.12 -2060.48 1640.96 557.8 1640.96 557.8"/><polygon class="cls-6" points="1693.32 501.1 1689.25 505.51 -1145.83 -2112.77 -1141.75 -2117.19 1693.32 501.1 1693.32 501.1"/><polygon class="cls-6" points="1745.69 444.4 1741.62 448.81 -1093.46 -2169.48 -1089.38 -2173.89 1745.69 444.4 1745.69 444.4"/><polygon class="cls-6" points="1798.06 387.69 1793.98 392.11 -1041.09 -2226.18 -1037.02 -2230.59 1798.06 387.69 1798.06 387.69"/><polygon class="cls-6" points="1850.42 330.99 1846.35 335.41 -988.73 -2282.88 -984.65 -2287.29 1850.42 330.99 1850.42 330.99"/><polygon class="cls-6" points="1902.79 274.29 1898.71 278.7 -936.36 -2339.58 -932.29 -2343.99 1902.79 274.29 1902.79 274.29"/><polygon class="cls-6" points="1955.15 217.59 1951.08 222 -884 -2396.28 -879.92 -2400.69 1955.15 217.59 1955.15 217.59"/><polygon class="cls-6" points="2007.52 160.89 2003.44 165.3 -831.63 -2452.98 -827.56 -2457.39 2007.52 160.89 2007.52 160.89"/><polygon class="cls-6" points="2059.88 104.19 2055.81 108.6 -779.27 -2509.68 -775.19 -2514.1 2059.88 104.19 2059.88 104.19"/><polygon class="cls-6" points="2112.25 47.49 2108.17 51.9 -726.9 -2566.38 -722.83 -2570.8 2112.25 47.49 2112.25 47.49"/></g></g></g><path class="cls-7" d="M23.33,43.82a1.68,1.68,0,0,1-.79-.2C13,38.56,7.8,34,7.8,24.47V7.79a.74.74,0,0,1,.63-.73l2.09-.32a38,38,0,0,0,10.05-3L23,2.63a.7.7,0,0,1,.6,0L26.73,4A38.07,38.07,0,0,0,37,6.88L38.21,7a.73.73,0,0,1,.64.72V24.45a19.74,19.74,0,0,1-.67,5.31.74.74,0,1,1-1.42-.39,18.56,18.56,0,0,0,.62-4.92v-16l-.55-.07a39.73,39.73,0,0,1-10.69-3L23.33,4.11l-2.15,1a39.72,39.72,0,0,1-10.44,3.1l-1.47.23v16c0,8.85,4.71,13,14,17.86a.18.18,0,0,0,.16,0c1.23-.65,2.29-1.24,3.25-1.8a.73.73,0,1,1,.75,1.26c-1,.58-2.06,1.18-3.3,1.83A1.58,1.58,0,0,1,23.33,43.82Z"/><path class="cls-7" d="M20.35,29.23a.78.78,0,0,1-.41-.12L15.24,26a.74.74,0,0,1-.2-1,.73.73,0,0,1,1-.2l4.2,2.78L30.48,17.36a.74.74,0,0,1,1,0,.73.73,0,0,1,0,1L20.87,29A.73.73,0,0,1,20.35,29.23Z"/><path class="cls-7" d="M34.63,48.14a2.21,2.21,0,0,1-1.57-.65,2.19,2.19,0,0,1-.65-1.44,8.52,8.52,0,0,1-2.4-.87,2.24,2.24,0,0,1-1.51.59h0a2.22,2.22,0,0,1-1.58-.66,2.27,2.27,0,0,1-.18-3,8.76,8.76,0,0,1-1.09-2.46,2.22,2.22,0,0,1-2-2.24,2.26,2.26,0,0,1,1.93-2.24,9.32,9.32,0,0,1,1-2.5,2.27,2.27,0,0,1,.12-3.06A2.19,2.19,0,0,1,28.26,29h0a2.19,2.19,0,0,1,1.43.52,8.85,8.85,0,0,1,2.35-1,2.26,2.26,0,0,1,2.24-2.24,2.15,2.15,0,0,1,1.58.65,2.26,2.26,0,0,1,.66,1.57,9,9,0,0,1,2.22.91l.08-.09a2.3,2.3,0,0,1,1.6-.67h0a2.22,2.22,0,0,1,1.58.66,2.29,2.29,0,0,1,0,3.19l-.07.07a8.6,8.6,0,0,1,.93,2.16h.21A2.24,2.24,0,0,1,45.29,37a2.26,2.26,0,0,1-2.24,2.26H43a9,9,0,0,1-.84,2.23l.13.13a2.26,2.26,0,0,1,0,3.18,2.2,2.2,0,0,1-1.6.67h0a2.17,2.17,0,0,1-1.56-.65,8.45,8.45,0,0,1-2.21,1v.06a2.27,2.27,0,0,1-2.24,2.26Zm-.76-2.68v.43a.79.79,0,0,0,.23.56.75.75,0,0,0,.53.22h0a.79.79,0,0,0,.78-.79v-.54a.74.74,0,0,1,.55-.79,7.39,7.39,0,0,0,2.77-1.32.73.73,0,0,1,1,.12l.06.06.31.32a.75.75,0,0,0,.53.22h0a.76.76,0,0,0,.55-.23.79.79,0,0,0,0-1.11l-.32-.32a.52.52,0,0,0-.11-.1.72.72,0,0,1-.21-1,7.73,7.73,0,0,0,1.06-2.86.72.72,0,0,1,.29-.48.73.73,0,0,1,.55-.13h.58a.79.79,0,0,0,.77-.8.77.77,0,0,0-.76-.77h-.45l-.16,0a.73.73,0,0,1-.56-.1.75.75,0,0,1-.33-.47,7.31,7.31,0,0,0-1.19-2.78.73.73,0,0,1,.17-1l.09-.08.32-.32a.79.79,0,0,0,0-1.11.72.72,0,0,0-.53-.23h0a.77.77,0,0,0-.55.24l-.31.32a.41.41,0,0,0-.09.1.74.74,0,0,1-1,.19,7.15,7.15,0,0,0-2.81-1.15A.74.74,0,0,1,35,29s0-.05,0-.07V28.5a.79.79,0,0,0-.23-.56.73.73,0,0,0-.53-.22.79.79,0,0,0-.78.79V29a.75.75,0,0,1-.59.79A7.28,7.28,0,0,0,30,31a.74.74,0,0,1-1-.08l-.28-.29a.76.76,0,0,0-.54-.22h0a.74.74,0,0,0-.54.23.8.8,0,0,0,0,1.12l.29.29a.73.73,0,0,1,.09.93,7.62,7.62,0,0,0-1.19,3,.74.74,0,0,1-.73.62h-.3a.79.79,0,0,0-.77.8.78.78,0,0,0,.22.55.7.7,0,0,0,.54.22h.37a.74.74,0,0,1,.72.59,7.47,7.47,0,0,0,1.32,3,.72.72,0,0,1-.07.95L28,43a.79.79,0,0,0,0,1.11.72.72,0,0,0,.53.23h0a.81.81,0,0,0,.55-.23l.31-.33a.74.74,0,0,1,.92-.1,7.28,7.28,0,0,0,2.95,1.06.73.73,0,0,1,.64.73Zm9.19-10Z"/><path class="cls-7" d="M34.43,41.83a4.7,4.7,0,0,1-3.35-1.38,4.5,4.5,0,0,1-1.34-3.24,4.75,4.75,0,0,1,8.1-3.27,4.55,4.55,0,0,1,1.34,3.24h0a4.72,4.72,0,0,1-4.73,4.65Zm.06-7.8h0a3.24,3.24,0,0,0-3.26,3.18,3.09,3.09,0,0,0,.91,2.2,3.24,3.24,0,0,0,2.31,1h0a3.25,3.25,0,0,0,3.26-3.19A3.08,3.08,0,0,0,36.8,35,3.24,3.24,0,0,0,34.49,34Zm4,3.15Z"/></svg>