<svg id="Layer_1" data-name="Layer 1" xmlns="http://www.w3.org/2000/svg" viewBox="0 0 25 25"><defs><style>.cls-1{fill:#24b6ff;}.cls-2{fill:#fff;}</style></defs><title>twitter SVG</title><rect class="cls-1" width="25" height="25"/><path class="cls-2" d="M19.67,8.45A5.74,5.74,0,0,1,18,8.84a2.51,2.51,0,0,0,1.19-1.46,5,5,0,0,1-1.72.56A2.9,2.9,0,0,0,15.4,7a2.86,2.86,0,0,0-3,2.74,2.81,2.81,0,0,0,.05.65A8.8,8.8,0,0,1,6.42,7.1a3.33,3.33,0,0,0,1,3.9,2.83,2.83,0,0,1-1.29-.4v0A3.21,3.21,0,0,0,8.31,13.5a2.69,2.69,0,0,1-.76.08A3.33,3.33,0,0,1,7,13.51a2.92,2.92,0,0,0,2.62,2.06c-1,.73-4.08,1.06-4.3,1a9,9,0,0,0,4.56,1.64c4.51.16,7.19-3.08,8-6.3a7.7,7.7,0,0,0,.26-1.7c0-.12,0-.25,0-.37A5.71,5.71,0,0,0,19.67,8.45Z"/></svg>