<svg xmlns="http://www.w3.org/2000/svg" data-name="Layer 1" viewBox="0 0 36 36"><path fill="#80181c" fill-rule="evenodd" d="M11.84 25.2a6.45 6.45 0 01-6-4.47 6.42 6.42 0 002.76-.08h.09a6.43 6.43 0 01-4.18-2.95 6.27 6.27 0 01-.94-3.42 6.45 6.45 0 002.88.72A6.5 6.5 0 014.5 6.46a18.38 18.38 0 0013.26 6.72c0-.26-.08-.48-.11-.7a6.34 6.34 0 01.94-4.21 6.44 6.44 0 0110-1.11.34.34 0 00.34.1 13 13 0 003.75-1.44h.08A6.55 6.55 0 0130 9.27a12.1 12.1 0 003.58-1c-.25.32-.49.65-.74 1a12.62 12.62 0 01-2.34 2.22.25.25 0 00-.11.21 17 17 0 01-.12 2.85 18.84 18.84 0 01-1.65 5.73 18.48 18.48 0 01-3.48 5.06 17.16 17.16 0 01-8.83 4.93 18.82 18.82 0 01-3.59.42A18.17 18.17 0 012.5 28l-.15-.1a12.94 12.94 0 006.44-.9 13 13 0 003.05-1.8z"/></svg>