<svg id="Layer_1" data-name="Layer 1" xmlns="http://www.w3.org/2000/svg" xmlns:xlink="http://www.w3.org/1999/xlink" viewBox="0 0 50 50"><defs><style>.cls-1{fill:none;}.cls-2{opacity:0.5;}.cls-3{clip-path:url(#clip-path);}.cls-4{opacity:0.29;}.cls-5{fill:#fff;}.cls-5,.cls-6{fill-rule:evenodd;}.cls-6{fill:#cfcfcf;}.cls-7{fill:#ffc10e;}</style><clipPath id="clip-path"><rect class="cls-1" x="117.29" y="-2217.65" width="2330.99" height="1121.6"/></clipPath></defs><title>icons</title><g class="cls-2"><g class="cls-3"><g class="cls-4"><polygon class="cls-5" points="60.17 -3523.18 2895.24 -904.9 1610.69 486.01 -1224.38 -2132.28 61.46 -3524.58 60.17 -3523.18"/><polygon class="cls-6" points="1640.96 453.24 1636.88 457.65 -1198.19 -2160.63 -1194.12 -2165.05 1640.96 453.24 1640.96 453.24"/><polygon class="cls-6" points="1693.32 396.54 1689.25 400.95 -1145.83 -2217.34 -1141.75 -2221.75 1693.32 396.54 1693.32 396.54"/><polygon class="cls-6" points="1745.69 339.83 1741.62 344.25 -1093.46 -2274.04 -1089.38 -2278.45 1745.69 339.83 1745.69 339.83"/><polygon class="cls-6" points="1798.06 283.13 1793.98 287.55 -1041.09 -2330.74 -1037.02 -2335.15 1798.06 283.13 1798.06 283.13"/><polygon class="cls-6" points="1850.42 226.43 1846.35 230.84 -988.73 -2387.44 -984.65 -2391.85 1850.42 226.43 1850.42 226.43"/><polygon class="cls-6" points="1902.79 169.73 1898.71 174.14 -936.36 -2444.14 -932.29 -2448.55 1902.79 169.73 1902.79 169.73"/><polygon class="cls-6" points="1955.15 113.03 1951.08 117.44 -884 -2500.84 -879.92 -2505.25 1955.15 113.03 1955.15 113.03"/><polygon class="cls-6" points="2007.52 56.33 2003.44 60.74 -831.63 -2557.54 -827.56 -2561.95 2007.52 56.33 2007.52 56.33"/><polygon class="cls-6" points="2059.88 -0.37 2055.81 4.04 -779.27 -2614.24 -775.19 -2618.66 2059.88 -0.37 2059.88 -0.37"/></g></g></g><path class="cls-7" d="M45.37,2.37H4.63a.87.87,0,0,0-.88.88V44a.87.87,0,0,0,.88.88H45.37a.87.87,0,0,0,.88-.88V3.25A.87.87,0,0,0,45.37,2.37Zm-.89,1.77V9.87h-39V4.14Zm-39,39V11.64h39V43.1Z"/><path class="cls-7" d="M8.89,8.2h1.48a.89.89,0,1,0,0-1.77H8.89a.89.89,0,1,0,0,1.77Z"/><path class="cls-7" d="M13.38,8.2h1.48a.89.89,0,1,0,0-1.77H13.38a.89.89,0,1,0,0,1.77Z"/><path class="cls-7" d="M17.87,8.2h1.49a.89.89,0,0,0,0-1.77H17.87a.89.89,0,1,0,0,1.77Z"/><path class="cls-7" d="M23.93,8.2H41.11a.89.89,0,1,0,0-1.77H23.93a.89.89,0,1,0,0,1.77Z"/><path class="cls-7" d="M14.24,26.63a.88.88,0,0,0,1.25,0l1.39-1.38,1.38,1.38a.89.89,0,0,0,1.26,0,.89.89,0,0,0,0-1.25L18.13,24l1.39-1.38a.89.89,0,0,0-1.26-1.26l-1.38,1.39-1.39-1.39a.89.89,0,1,0-1.25,1.26L15.62,24l-1.38,1.39A.88.88,0,0,0,14.24,26.63Z"/><path class="cls-7" d="M34.28,30.17a.88.88,0,0,0-1.25,0l-1.39,1.38-1.38-1.38A.89.89,0,0,0,29,31.42l1.39,1.39L29,34.19a.89.89,0,0,0,1.26,1.26l1.38-1.39L33,35.45a.89.89,0,0,0,1.25-1.26L32.9,32.81l1.38-1.39A.88.88,0,0,0,34.28,30.17Z"/><path class="cls-7" d="M29.78,21.25,31.49,23a.89.89,0,1,0,1.25-1.26l-3-3-.09-.05a.71.71,0,0,0-.18-.12l-.09,0a1.06,1.06,0,0,0-.19-.06h-.11a.71.71,0,0,0-.29.05l-.09.05a.71.71,0,0,0-.18.12l0,0-3,3A.89.89,0,1,0,26.67,23L28,21.67l-.1,1a6.64,6.64,0,0,1-5.29,5.84l-2,.39A8.31,8.31,0,0,0,14,35.6a.88.88,0,0,0,.71,1,.44.44,0,0,0,.16,0,.89.89,0,0,0,.87-.72,6.59,6.59,0,0,1,5.21-5.25l2-.39a8.4,8.4,0,0,0,6.71-7.4Z"/><path class="cls-7" d="M22,33a3.23,3.23,0,1,0,3.23,3.22A3.22,3.22,0,0,0,22,33Zm0,4.68a1.46,1.46,0,1,1,1.46-1.46A1.45,1.45,0,0,1,22,37.64Z"/></svg>