<svg id="Layer_1" data-name="Layer 1" xmlns="http://www.w3.org/2000/svg" viewBox="0 0 600 97.08"><defs><style>.cls-1{fill:none;}.cls-2{fill:#ec1c24;fill-rule:evenodd;}.cls-3{fill:#58595b;}</style></defs><title>CK-Birla-Group-logo</title><rect class="cls-1" x="-275.71" y="-110.06" width="364.73" height="565.66"/><path class="cls-2" d="M33,49.73a28.64,28.64,0,0,1,24-28.27,24.75,24.75,0,0,0-4-.36,28.45,28.45,0,1,0,0,56.9,22.66,22.66,0,0,0,4-.35A28.54,28.54,0,0,1,33,49.73"/><path class="cls-2" d="M12.17,49.73a46.32,46.32,0,0,1,41-46,44.53,44.53,0,0,0-5.31-.33,46.2,46.2,0,1,0,0,92.39,46.72,46.72,0,0,0,5.31-.34c-23.08-2.7-41-22.25-41-45.7"/><path class="cls-2" d="M49.7,49.73a12.51,12.51,0,0,1,9.52-12.15,13.45,13.45,0,0,0-2.55-.27A12.34,12.34,0,0,0,44.61,49.73a12.08,12.08,0,0,0,12.06,12,12.67,12.67,0,0,0,2.55-.24,12.07,12.07,0,0,1-9.52-11.8"/><path class="cls-3" d="M110.48,37a29.74,29.74,0,0,0-9.12-1.55C90.83,35.43,86,41.6,86,48.92s4.82,13.55,15.35,13.55a31.66,31.66,0,0,0,9.12-1.54l1.93,7.84A32.15,32.15,0,0,1,100.14,71c-14.13,0-24-9.32-24-22.1s9.69-22,24-22A35.61,35.61,0,0,1,112.6,29Z"/><polygon class="cls-3" points="148.16 70.31 129.92 52.78 129.92 70.31 120.29 70.31 120.29 27.54 129.92 27.54 129.92 44.17 147.33 27.54 160.04 27.54 138.01 48.28 160.88 70.31 148.16 70.31"/><path class="cls-3" d="M204,70.31h-17a4.85,4.85,0,0,1-4.81-4.82V32.35a4.84,4.84,0,0,1,4.81-4.81h13.94c9.25,0,15,4,15,11.49a11.33,11.33,0,0,1-4.24,8.35c4.3,2.19,7,5.65,7,10.09,0,7.51-6.49,12.84-14.65,12.84m-3.21-35h-9v9.76h8.48c4.24,0,5.71-2.25,5.71-5s-2-4.81-5.2-4.81m2.57,17.08H191.75V62.54h11.56c3.08,0,5.4-2,5.4-5.07s-2.19-5.08-5.4-5.08"/><rect class="cls-3" x="225.73" y="27.54" width="9.63" height="42.77"/><path class="cls-3" d="M273.74,70.31,265,55H254.47V70.31h-9.63v-38a4.84,4.84,0,0,1,4.81-4.81h19.27A13.64,13.64,0,0,1,283,41.28a13.49,13.49,0,0,1-7.9,12.27l9.69,16.76Zm-6.81-35H254.47V47.45h12.46a6.09,6.09,0,0,0,6.17-6.17,5.92,5.92,0,0,0-6.17-6"/><path class="cls-3" d="M295.84,70.31a4.8,4.8,0,0,1-4.75-4.82V27.54h9.56V62H318.7v8.28Z"/><path class="cls-3" d="M355.76,70.31l-3.34-8.73h-15.6l-3.34,8.73h-9.57l16.7-40.53a4.35,4.35,0,0,1,4-2.7,4.27,4.27,0,0,1,4,2.7l16.7,40.53ZM344.65,40.7l-5,13.55h10Z"/><path class="cls-3" d="M406.22,72.26c-12.46,0-22.48-8.87-22.48-22.1s9.76-22,23-22A35.88,35.88,0,0,1,421,31.09l-1,3.08a36,36,0,0,0-13-2.57c-11.11,0-19.4,6.94-19.4,18.56,0,11.44,8.29,18.63,18.63,18.63a19.12,19.12,0,0,0,13.55-5.2V53.12h3.79v11.3c-3.66,4.88-10,7.84-17.34,7.84"/><path class="cls-3" d="M462,71.55l-11.5-18.3H434.73v18.3h-3.86V30.76a2,2,0,0,1,1.93-2h18c8.29,0,13.11,5.65,13.11,12.26a11.63,11.63,0,0,1-9.38,11.69l11.82,18.82ZM450.85,32.24H434.73V49.78h16.12c5.07,0,9.18-3.21,9.18-8.74s-4.17-8.8-9.18-8.8"/><path class="cls-3" d="M491.37,72.26C479,72.26,470,62.69,470,50.16s9-22,21.38-22,21.39,9.57,21.39,22-9.05,22.1-21.39,22.1m0-40.72c-10.14,0-17.53,7.77-17.53,18.62s7.39,18.7,17.53,18.7,17.54-7.78,17.54-18.7-7.39-18.62-17.54-18.62"/><path class="cls-3" d="M537.81,72.26c-11,0-16.76-7.71-16.76-16.12V28.78h3.85V56.33c0,7.19,4.82,12.53,12.91,12.53s12.91-5.34,12.91-12.53V28.78h3.85V56.14c0,8.41-5.71,16.12-16.76,16.12"/><path class="cls-3" d="M585.38,53.5H569.77v18h-3.85V30.7a2,2,0,0,1,1.93-1.92h17.47c8.35,0,13,5.78,13,12.33s-4.69,12.39-13,12.39m0-21.45H569.77V50.23h15.68a8.78,8.78,0,0,0,9-9.12,8.82,8.82,0,0,0-9.12-9.06"/></svg>