<svg id="Layer_1" data-name="Layer 1" xmlns="http://www.w3.org/2000/svg" xmlns:xlink="http://www.w3.org/1999/xlink" viewBox="0 0 237.38 50"><defs><style>.cls-1{fill:none;}.cls-2{opacity:0.5;}.cls-3{clip-path:url(#clip-path);}.cls-4{opacity:0.29;}.cls-5,.cls-7{fill:#fff;}.cls-5,.cls-6{fill-rule:evenodd;}.cls-6{fill:#cfcfcf;}.cls-8{fill:#ed1c24;}</style><clipPath id="clip-path"><rect id="SVGID" class="cls-1" x="-3062.47" y="982.17" width="2459.4" height="1183.39"/></clipPath></defs><title>intelliOpen -237x50</title><g class="cls-2"><g class="cls-3"><g class="cls-4"><polygon class="cls-5" points="-2189.8 -655.19 322.52 1665.01 -815.79 2897.57 -3328.11 577.37 -2188.65 -656.43 -2189.8 -655.19"/><polygon class="cls-6" points="324.72 1662.62 321.11 1666.53 -2191.2 -653.67 -2187.59 -657.58 324.72 1662.62 324.72 1662.62"/><polygon class="cls-6" points="46.3 1964.1 42.69 1968.01 -2469.63 -352.19 -2466.02 -356.1 46.3 1964.1 46.3 1964.1"/><polygon class="cls-6" points="92.7 1913.85 89.09 1917.76 -2423.22 -402.44 -2419.61 -406.35 92.7 1913.85 92.7 1913.85"/><polygon class="cls-6" points="139.1 1863.61 135.49 1867.52 -2376.82 -452.69 -2373.21 -456.6 139.1 1863.61 139.1 1863.61"/><polygon class="cls-6" points="185.51 1813.36 181.9 1817.27 -2330.42 -502.93 -2326.8 -506.84 185.51 1813.36 185.51 1813.36"/><polygon class="cls-6" points="231.91 1763.12 228.3 1767.03 -2284.01 -553.18 -2280.4 -557.09 231.91 1763.12 231.91 1763.12"/><polygon class="cls-6" points="278.32 1712.87 274.7 1716.78 -2237.61 -603.42 -2234 -607.34 278.32 1712.87 278.32 1712.87"/></g></g></g><path class="cls-7" d="M.26,6.51V2.06H3.93V6.51Zm0,23.68V9.89H3.93v20.3Z"/><path class="cls-7" d="M24.39,30.19V17.43c0-3-1.29-4.58-4.29-4.58s-5.84,2.54-5.84,6.58V30.19H10.59V9.89h3.63v3.54a8.23,8.23,0,0,1,7-3.91c4.59,0,6.84,3,6.84,7.5V30.19Z"/><path class="cls-7" d="M40.68,30.52c-3.33,0-5.5-1.58-5.5-5.92v-12H32.43V9.89h2.75V4.14h3.67V9.89h4v2.75h-4V24.52c0,2.46.87,3.12,2.33,3.12a11.21,11.21,0,0,0,2-.21l.37,2.71A11.5,11.5,0,0,1,40.68,30.52Z"/><path class="cls-7" d="M50,21.18c.25,4,2.84,6.34,7.3,6.34a25.7,25.7,0,0,0,6-.84L64,29.44a21.28,21.28,0,0,1-6.71,1.08c-6.92,0-11-4.34-11-10.5,0-5.63,3.62-10.5,9.62-10.5s9.21,4.58,9.21,10.54v1.12Zm6-8.66c-3.33,0-5.58,2.2-6,5.91H61.56C61.27,14.81,59.39,12.52,56,12.52Z"/><path class="cls-7" d="M76,30.39c-3.42,0-5.8-1.75-5.8-6v-22h3.63V24.18c0,2.38.79,3.3,2.71,3.3h1.83v2.91Z"/><path class="cls-7" d="M88.85,30.39c-3.42,0-5.79-1.75-5.79-6v-22h3.62V24.18c0,2.38.8,3.3,2.71,3.3h1.84v2.91Z"/><path class="cls-7" d="M96.14,6.51V2.06h3.67V6.51Zm0,23.68V9.89h3.67v20.3Z"/><path class="cls-8" d="M119.07,30.79A14,14,0,0,1,105,16.64a14.05,14.05,0,1,1,28.1,0A13.94,13.94,0,0,1,119.07,30.79Zm0-22c-4.52,0-7,3.66-7,7.86s2.43,7.9,7,7.9,7-3.7,7-7.9S123.6,8.78,119.07,8.78Z"/><path class="cls-8" d="M153,21.54h-7.85v8.8h-7V2.94H153a9.09,9.09,0,0,1,9.39,9.22A9.23,9.23,0,0,1,153,21.54Zm-1-13h-6.87v7.28H152a3.44,3.44,0,0,0,3.33-3.7A3.26,3.26,0,0,0,152,8.58Z"/><path class="cls-8" d="M166.67,30.34V2.94H187.2V9H173.71v4.15h12.75v6.09H173.71v5H187.2v6.09Z"/><path class="cls-8" d="M212.26,30.34,199.83,13.72V30.34h-6.78V2.94h6.78l12.43,16.58V2.94H219v27.4Z"/><path class="cls-7" d="M226.16,4.67v5.59H224.6V4.67h-2.29V3.31h6.13V4.67Z"/><path class="cls-7" d="M235.26,10.26V6.07L233.54,9h-.84L231,6.06v4.2h-1.5V3.31H231l2.14,3.63,2.14-3.63h1.51v7Z"/><path class="cls-7" d="M3.68,47.71a3.55,3.55,0,0,1,0-7.1,3.55,3.55,0,0,1,0,7.1Zm0-5.93a2.14,2.14,0,0,0-2.11,2.39,2.13,2.13,0,1,0,4.24,0A2.15,2.15,0,0,0,3.68,41.78Z"/><path class="cls-7" d="M11.93,45.11H9.75V47.6H8.44V40.71h3.49a2.2,2.2,0,1,1,0,4.4Zm-.2-3.33h-2V44h2a1.1,1.1,0,0,0,1.12-1.13A1.11,1.11,0,0,0,11.73,41.78Z"/><path class="cls-7" d="M15.3,47.6V40.71h4.94v1.14H16.62v1.62H20v1.14h-3.4v1.85h3.62V47.6Z"/><path class="cls-7" d="M26.49,47.6l-3.44-4.8v4.8H21.76V40.71h1.29l3.43,4.8v-4.8h1.3V47.6Z"/><path class="cls-7" d="M36.86,44.87V47.6H35.54V44.87l-2.46-4.16h1.34l1.78,3,1.78-3h1.33Z"/><path class="cls-7" d="M43.14,47.71a3.55,3.55,0,1,1,3.44-3.54A3.46,3.46,0,0,1,43.14,47.71Zm0-5.93A2.14,2.14,0,0,0,41,44.17a2.13,2.13,0,1,0,4.24,0A2.15,2.15,0,0,0,43.14,41.78Z"/><path class="cls-7" d="M50.79,47.71a2.86,2.86,0,0,1-3-2.86V40.71h1.32v4.15a1.57,1.57,0,0,0,1.68,1.68,1.6,1.6,0,0,0,1.69-1.68V40.71h1.31v4.14A2.86,2.86,0,0,1,50.79,47.71Z"/><path class="cls-7" d="M60.41,47.6,58.52,45H56.84V47.6H55.52V40.71H59.1a2.15,2.15,0,0,1,2.22,2.15,2.06,2.06,0,0,1-1.34,2L62,47.6Zm-1.55-5.81h-2V44h2a1.09,1.09,0,1,0,0-2.17Z"/><path class="cls-7" d="M71.05,47.6H67.54V40.71h3.18c1.35,0,2.12.71,2.12,1.78A1.55,1.55,0,0,1,71.77,44a1.71,1.71,0,0,1,1.31,1.66A2,2,0,0,1,71.05,47.6Zm-.62-5.84H68.82V43.6h1.6c.7,0,1.11-.35,1.11-.94S71.14,41.76,70.43,41.76Zm.24,2.83H68.82v2h1.85c.72,0,1.09-.39,1.09-1S71.42,44.59,70.67,44.59Z"/><path class="cls-7" d="M77.23,47.71a2.87,2.87,0,0,1-3-2.86V40.71h1.32v4.15a1.69,1.69,0,0,0,3.37,0V40.71h1.31v4.14A2.85,2.85,0,0,1,77.23,47.71Z"/><path class="cls-7" d="M84.42,47.71a7.7,7.7,0,0,1-2.85-.56l.29-1a7.9,7.9,0,0,0,2.54.48c1,0,1.54-.29,1.54-.84s-.38-.63-1.76-1.15c-1.65-.62-2.35-1-2.35-2.19s.89-1.81,2.75-1.81a10,10,0,0,1,2.48.33L86.87,42a11.11,11.11,0,0,0-2.27-.26c-1.06,0-1.45.15-1.45.64s.43.68,1.92,1.26,2.18.91,2.18,2.07S86.09,47.71,84.42,47.71Z"/><path class="cls-7" d="M88.64,47.6V40.71H90V47.6Z"/><path class="cls-7" d="M96.58,47.6l-3.44-4.8v4.8H91.85V40.71h1.29l3.43,4.8v-4.8h1.3V47.6Z"/><path class="cls-7" d="M99.7,47.6V40.71h4.94v1.14H101v1.62h3.4v1.14H101v1.85h3.62V47.6Z"/><path class="cls-7" d="M108.63,47.71a7.7,7.7,0,0,1-2.85-.56l.29-1a7.9,7.9,0,0,0,2.54.48c1,0,1.54-.29,1.54-.84s-.37-.63-1.76-1.15c-1.65-.62-2.34-1-2.34-2.19s.88-1.81,2.74-1.81a10,10,0,0,1,2.48.33L111.08,42a11.11,11.11,0,0,0-2.27-.26c-1.06,0-1.45.15-1.45.64s.43.68,1.92,1.26,2.18.91,2.18,2.07S110.3,47.71,108.63,47.71Z"/><path class="cls-7" d="M115.27,47.71a7.74,7.74,0,0,1-2.85-.56l.29-1a8,8,0,0,0,2.54.48c1,0,1.54-.29,1.54-.84s-.37-.63-1.75-1.15c-1.66-.62-2.35-1-2.35-2.19s.89-1.81,2.75-1.81a10.09,10.09,0,0,1,2.48.33l-.2,1.07a11.09,11.09,0,0,0-2.26-.26c-1.06,0-1.46.15-1.46.64s.44.68,1.92,1.26,2.18.91,2.18,2.07S117,47.71,115.27,47.71Z"/><path class="cls-7" d="M129.92,47.6h-1l-1.51-4.74-1.5,4.74h-1l-1.76-6.89h1.31l1.11,4.48,1.43-4.48h.94l1.42,4.48,1.12-4.48h1.3Z"/><path class="cls-7" d="M132.77,47.6V40.71h1.32V47.6Z"/><path class="cls-7" d="M138.75,41.86V47.6h-1.31V41.86h-2.3V40.71H141v1.15Z"/><path class="cls-7" d="M146.57,47.6V44.69h-3.22V47.6H142V40.71h1.31v2.82h3.22V40.71h1.32V47.6Z"/><path class="cls-7" d="M157.43,47.71a3.56,3.56,0,1,1,0-7.1,5.4,5.4,0,0,1,1.9.28L159.07,42a5.82,5.82,0,0,0-1.47-.19c-1.74,0-2.67,1-2.67,2.38s.93,2.39,2.67,2.39a5.21,5.21,0,0,0,1.47-.19l.26,1A5.41,5.41,0,0,1,157.43,47.71Z"/><path class="cls-7" d="M163.73,47.71a3.55,3.55,0,1,1,3.44-3.54A3.46,3.46,0,0,1,163.73,47.71Zm0-5.93a2.14,2.14,0,0,0-2.12,2.39,2.13,2.13,0,1,0,4.24,0A2.15,2.15,0,0,0,163.73,41.78Z"/><path class="cls-7" d="M173.21,47.6l-3.44-4.8v4.8h-1.29V40.71h1.29l3.43,4.8v-4.8h1.3V47.6Z"/><path class="cls-7" d="M177.65,41.85v1.62h3.47v1.14h-3.47v3h-1.32V40.71h5.14v1.14Z"/><path class="cls-7" d="M182.78,47.6V40.71h1.32V47.6Z"/><path class="cls-7" d="M187.53,47.6H186V40.71h1.55c2.58,0,4.33,1.44,4.33,3.45S190.11,47.6,187.53,47.6Zm.25-5.72h-.47v4.55h.47c1.44,0,2.71-.71,2.71-2.27S189.22,41.88,187.78,41.88Z"/><path class="cls-7" d="M193.07,47.6V40.71H198v1.14H194.4v1.62h3.39v1.14H194.4v1.85H198V47.6Z"/><path class="cls-7" d="M204.26,47.6l-3.44-4.8v4.8h-1.29V40.71h1.29l3.43,4.8v-4.8h1.3V47.6Z"/><path class="cls-7" d="M210.69,47.71a3.56,3.56,0,1,1,0-7.1,5.47,5.47,0,0,1,1.9.28L212.33,42a5.82,5.82,0,0,0-1.47-.19c-1.74,0-2.67,1-2.67,2.38s.93,2.39,2.67,2.39a5.25,5.25,0,0,0,1.47-.19l.26,1A5.41,5.41,0,0,1,210.69,47.71Z"/><path class="cls-7" d="M214.06,47.6V40.71H219v1.14h-3.62v1.62h3.4v1.14h-3.4v1.85H219V47.6Z"/></svg>