<svg id="Layer_1" data-name="Layer 1" xmlns="http://www.w3.org/2000/svg" xmlns:xlink="http://www.w3.org/1999/xlink" viewBox="0 0 300 66"><defs><style>.cls-1{fill:none;}.cls-2{opacity:0.5;}.cls-3{clip-path:url(#clip-path);}.cls-4{opacity:0.29;}.cls-5{fill:#fff;}.cls-5,.cls-6{fill-rule:evenodd;}.cls-6{fill:#cfcfcf;}.cls-7{fill:#4d4d4f;}.cls-8{fill:#ed1c24;}.cls-9{fill:#4a4a4c;}</style><clipPath id="clip-path"><rect id="SVGID" class="cls-1" x="-2665.57" y="982.17" width="2459.4" height="1183.39"/></clipPath></defs><title>intelliOpen -300x66-45</title><g class="cls-2"><g class="cls-3"><g class="cls-4"><polygon class="cls-5" points="-1792.9 -655.19 719.42 1665.01 -418.89 2897.57 -2931.2 577.37 -1791.75 -656.43 -1792.9 -655.19"/><polygon class="cls-6" points="721.62 1662.62 718.01 1666.53 -1794.3 -653.67 -1790.69 -657.58 721.62 1662.62 721.62 1662.62"/><polygon class="cls-6" points="71.97 2366.07 68.36 2369.98 -2443.96 49.77 -2440.35 45.87 71.97 2366.07 71.97 2366.07"/><polygon class="cls-6" points="118.37 2315.82 114.76 2319.73 -2397.55 -0.47 -2393.94 -4.38 118.37 2315.82 118.37 2315.82"/><polygon class="cls-6" points="164.78 2265.58 161.17 2269.49 -2351.15 -50.72 -2347.54 -54.63 164.78 2265.58 164.78 2265.58"/><polygon class="cls-6" points="211.18 2215.33 207.57 2219.24 -2304.75 -100.96 -2301.13 -104.87 211.18 2215.33 211.18 2215.33"/><polygon class="cls-6" points="257.58 2165.08 253.97 2168.99 -2258.34 -151.21 -2254.73 -155.12 257.58 2165.08 257.58 2165.08"/><polygon class="cls-6" points="303.99 2114.84 300.38 2118.75 -2211.94 -201.46 -2208.33 -205.37 303.99 2114.84 303.99 2114.84"/><polygon class="cls-6" points="350.39 2064.59 346.78 2068.5 -2165.53 -251.7 -2161.92 -255.61 350.39 2064.59 350.39 2064.59"/><polygon class="cls-6" points="396.8 2014.35 393.19 2018.26 -2119.13 -301.95 -2115.52 -305.86 396.8 2014.35 396.8 2014.35"/><polygon class="cls-6" points="443.2 1964.1 439.59 1968.01 -2072.73 -352.19 -2069.11 -356.1 443.2 1964.1 443.2 1964.1"/><polygon class="cls-6" points="489.6 1913.85 485.99 1917.76 -2026.32 -402.44 -2022.71 -406.35 489.6 1913.85 489.6 1913.85"/><polygon class="cls-6" points="536.01 1863.61 532.4 1867.52 -1979.92 -452.69 -1976.31 -456.6 536.01 1863.61 536.01 1863.61"/><polygon class="cls-6" points="582.41 1813.36 578.8 1817.27 -1933.52 -502.93 -1929.9 -506.84 582.41 1813.36 582.41 1813.36"/><polygon class="cls-6" points="628.82 1763.12 625.2 1767.03 -1887.11 -553.18 -1883.5 -557.09 628.82 1763.12 628.82 1763.12"/><polygon class="cls-6" points="675.22 1712.87 671.61 1716.78 -1840.71 -603.42 -1837.1 -607.34 675.22 1712.87 675.22 1712.87"/></g></g></g><path class="cls-7" d="M1.74,10V4.38h4.6V10Zm0,29.68V14.2h4.6V39.65Z"/><path class="cls-7" d="M32,39.65v-16c0-3.77-1.62-5.75-5.38-5.75-3.6,0-7.31,3.19-7.31,8.25V39.65H14.7V14.2h4.54v4.44A10.35,10.35,0,0,1,28,13.73c5.75,0,8.57,3.76,8.57,9.4V39.65Z"/><path class="cls-7" d="M52.42,40.06c-4.18,0-6.9-2-6.9-7.42v-15H42.08V14.2h3.44V7h4.6V14.2h5v3.45h-5V32.54c0,3.08,1.1,3.92,2.93,3.92a15.16,15.16,0,0,0,2.45-.26L56,39.59A14.1,14.1,0,0,1,52.42,40.06Z"/><path class="cls-7" d="M64.12,28.36c.32,5,3.56,7.94,9.15,7.94a32.48,32.48,0,0,0,7.52-1l.89,3.45a26.67,26.67,0,0,1-8.41,1.35c-8.68,0-13.74-5.43-13.74-13.16,0-7.06,4.54-13.17,12.07-13.17C79,13.73,83.14,19.48,83.14,27v1.41ZM71.6,17.49c-4.18,0-7,2.77-7.48,7.42H78.6C78.23,20.36,75.88,17.49,71.6,17.49Z"/><path class="cls-7" d="M96.68,39.91c-4.29,0-7.27-2.2-7.27-7.53V4.85H94V32.12c0,3,1,4.13,3.39,4.13h2.3v3.66Z"/><path class="cls-7" d="M112.82,39.91c-4.28,0-7.26-2.2-7.26-7.53V4.85h4.54V32.12c0,3,1,4.13,3.4,4.13h2.3v3.66Z"/><path class="cls-7" d="M122,10V4.38h4.6V10Zm0,29.68V14.2h4.6V39.65Z"/><path class="cls-8" d="M150.71,40.41a17.53,17.53,0,0,1-17.64-17.75,17.62,17.62,0,1,1,35.23,0A17.48,17.48,0,0,1,150.71,40.41Zm0-27.6c-5.67,0-8.82,4.59-8.82,9.85s3.05,9.91,8.82,9.91,8.77-4.65,8.77-9.91S156.39,12.81,150.71,12.81Z"/><path class="cls-8" d="M193.27,28.8h-9.85v11H174.6V5.48h18.67A11.4,11.4,0,0,1,205,17,11.56,11.56,0,0,1,193.27,28.8ZM192,12.55h-8.61v9.13H192A4.31,4.31,0,0,0,196.21,17C196.21,14.2,194.4,12.55,192,12.55Z"/><path class="cls-8" d="M210.4,39.84V5.48h25.74v7.64H219.22v5.21h16V26h-16V32.2h16.92v7.64Z"/><path class="cls-8" d="M267.55,39.84,252,19V39.84h-8.51V5.48H252l15.58,20.79V5.48H276V39.84Z"/><path class="cls-9" d="M285,7.66v7h-2v-7h-2.86V5.94h7.68V7.66Z"/><path class="cls-9" d="M296.4,14.66V9.41l-2.16,3.64h-1.06L291,9.4v5.26h-1.88V5.94H291l2.68,4.56,2.69-4.56h1.88v8.72Z"/><path class="cls-7" d="M6,61.62a4.45,4.45,0,0,1,0-8.9,4.45,4.45,0,0,1,0,8.9Zm0-7.44c-1.65,0-2.65,1.28-2.65,3a2.68,2.68,0,1,0,5.32,0A2.7,2.7,0,0,0,6,54.18Z"/><path class="cls-7" d="M16.37,58.36H13.64v3.12H12V52.85h4.38a2.76,2.76,0,1,1,0,5.51Zm-.24-4.18H13.64V57h2.49a1.42,1.42,0,0,0,0-2.84Z"/><path class="cls-7" d="M20.6,61.48V52.85h6.19v1.42H22.26v2h4.26v1.42H22.26v2.33h4.53v1.42Z"/><path class="cls-7" d="M34.63,61.48l-4.32-6v6H28.69V52.85h1.62l4.3,6v-6h1.64v8.63Z"/><path class="cls-7" d="M47.64,58.06v3.42H46V58.06l-3.09-5.21h1.68l2.24,3.74L49,52.85h1.68Z"/><path class="cls-7" d="M55.5,61.62a4.45,4.45,0,1,1,4.31-4.44A4.33,4.33,0,0,1,55.5,61.62Zm0-7.44a2.69,2.69,0,0,0-2.66,3,2.68,2.68,0,1,0,5.33,0A2.7,2.7,0,0,0,55.5,54.18Z"/><path class="cls-7" d="M65.1,61.62A3.59,3.59,0,0,1,61.33,58V52.85H63v5.2a2.11,2.11,0,0,0,4.22,0v-5.2h1.65V58A3.58,3.58,0,0,1,65.1,61.62Z"/><path class="cls-7" d="M77.16,61.48l-2.37-3.27H72.68v3.27H71V52.85h4.5a2.68,2.68,0,0,1,2.78,2.69A2.57,2.57,0,0,1,76.62,58l2.58,3.5Zm-1.94-7.29H72.68v2.73h2.54a1.37,1.37,0,1,0,0-2.73Z"/><path class="cls-7" d="M90.49,61.48H86.1V52.85h4c1.7,0,2.67.88,2.67,2.23a1.94,1.94,0,0,1-1.35,1.86A2.16,2.16,0,0,1,93.05,59,2.49,2.49,0,0,1,90.49,61.48Zm-.77-7.32h-2v2.3h2c.89,0,1.4-.44,1.4-1.18S90.61,54.16,89.72,54.16ZM90,57.71H87.71v2.45H90c.89,0,1.36-.48,1.36-1.22A1.19,1.19,0,0,0,90,57.71Z"/><path class="cls-7" d="M98.24,61.62A3.59,3.59,0,0,1,94.47,58V52.85h1.66v5.2a2.11,2.11,0,0,0,4.22,0v-5.2H102V58A3.58,3.58,0,0,1,98.24,61.62Z"/><path class="cls-7" d="M107.26,61.62a9.72,9.72,0,0,1-3.58-.71l.37-1.28a10.14,10.14,0,0,0,3.18.59c1.22,0,1.93-.36,1.93-1s-.46-.79-2.2-1.44C104.89,57,104,56.42,104,55s1.12-2.27,3.45-2.27a12.74,12.74,0,0,1,3.11.41l-.25,1.34a14.52,14.52,0,0,0-2.84-.33c-1.33,0-1.82.2-1.82.81s.54.85,2.41,1.58,2.73,1.14,2.73,2.59S109.36,61.62,107.26,61.62Z"/><path class="cls-7" d="M112.56,61.48V52.85h1.66v8.63Z"/><path class="cls-7" d="M122.51,61.48l-4.31-6v6h-1.62V52.85h1.62l4.3,6v-6h1.63v8.63Z"/><path class="cls-7" d="M126.42,61.48V52.85h6.19v1.42h-4.53v2h4.26v1.42h-4.26v2.33h4.53v1.42Z"/><path class="cls-7" d="M137.62,61.62a9.72,9.72,0,0,1-3.58-.71l.36-1.28a10.15,10.15,0,0,0,3.19.59c1.22,0,1.93-.36,1.93-1s-.47-.79-2.2-1.44c-2.07-.77-2.94-1.31-2.94-2.74s1.11-2.27,3.44-2.27a12.62,12.62,0,0,1,3.11.41l-.24,1.34a14.61,14.61,0,0,0-2.84-.33c-1.33,0-1.83.2-1.83.81s.55.85,2.41,1.58,2.74,1.14,2.74,2.59S139.72,61.62,137.62,61.62Z"/><path class="cls-7" d="M146,61.62a9.72,9.72,0,0,1-3.58-.71l.37-1.28a10,10,0,0,0,3.18.59c1.22,0,1.93-.36,1.93-1s-.46-.79-2.2-1.44c-2.07-.77-2.94-1.31-2.94-2.74s1.11-2.27,3.45-2.27a12.6,12.6,0,0,1,3.1.41L149,54.47a14.61,14.61,0,0,0-2.84-.33c-1.33,0-1.83.2-1.83.81s.55.85,2.41,1.58,2.74,1.14,2.74,2.59S148.05,61.62,146,61.62Z"/><path class="cls-7" d="M164.32,61.48H163l-1.89-5.94-1.88,5.94h-1.32l-2.21-8.63h1.64l1.4,5.61,1.78-5.61h1.18l1.79,5.61,1.4-5.61h1.63Z"/><path class="cls-7" d="M167.88,61.48V52.85h1.66v8.63Z"/><path class="cls-7" d="M175.38,54.29v7.19h-1.64V54.29h-2.88V52.85h7.39v1.44Z"/><path class="cls-7" d="M185.19,61.48V57.84h-4v3.64H179.5V52.85h1.65v3.52h4V52.85h1.66v8.63Z"/><path class="cls-7" d="M198.81,61.62A4.45,4.45,0,0,1,194,57.16c0-2.59,2-4.44,4.79-4.44a6.86,6.86,0,0,1,2.38.35l-.32,1.36a7.15,7.15,0,0,0-1.85-.25c-2.18,0-3.35,1.22-3.35,3s1.17,3,3.35,3a6.51,6.51,0,0,0,1.85-.23l.32,1.32A6.9,6.9,0,0,1,198.81,61.62Z"/><path class="cls-7" d="M206.7,61.62A4.45,4.45,0,1,1,211,57.18,4.33,4.33,0,0,1,206.7,61.62Zm0-7.44a2.69,2.69,0,0,0-2.66,3,2.68,2.68,0,1,0,5.33,0A2.7,2.7,0,0,0,206.7,54.18Z"/><path class="cls-7" d="M218.59,61.48l-4.31-6v6h-1.62V52.85h1.62l4.3,6v-6h1.63v8.63Z"/><path class="cls-7" d="M224.16,54.27v2h4.34v1.42h-4.34v3.75h-1.65V52.85h6.43v1.42Z"/><path class="cls-7" d="M230.59,61.48V52.85h1.66v8.63Z"/><path class="cls-7" d="M236.55,61.48h-1.94V52.85h1.94c3.23,0,5.43,1.8,5.43,4.31S239.78,61.48,236.55,61.48Zm.31-7.17h-.59V60h.59c1.8,0,3.4-.9,3.4-2.86S238.66,54.31,236.86,54.31Z"/><path class="cls-7" d="M243.5,61.48V52.85h6.19v1.42h-4.54v2h4.27v1.42h-4.27v2.33h4.54v1.42Z"/><path class="cls-7" d="M257.53,61.48l-4.32-6v6h-1.62V52.85h1.62l4.3,6v-6h1.64v8.63Z"/><path class="cls-7" d="M265.59,61.62a4.46,4.46,0,0,1-4.8-4.46c0-2.59,2-4.44,4.8-4.44a6.86,6.86,0,0,1,2.38.35l-.32,1.36a7.17,7.17,0,0,0-1.86-.25c-2.17,0-3.34,1.22-3.34,3s1.17,3,3.34,3a6.57,6.57,0,0,0,1.86-.23l.32,1.32A6.9,6.9,0,0,1,265.59,61.62Z"/><path class="cls-7" d="M269.81,61.48V52.85H276v1.42h-4.53v2h4.26v1.42h-4.26v2.33H276v1.42Z"/></svg>