<svg id="Layer_1" data-name="Layer 1" xmlns="http://www.w3.org/2000/svg" xmlns:xlink="http://www.w3.org/1999/xlink" viewBox="0 0 155 62"><defs><style>.cls-1{fill:none;}.cls-2{opacity:0.5;}.cls-3{clip-path:url(#clip-path);}.cls-4{opacity:0.29;}.cls-5,.cls-8{fill:#fff;}.cls-5,.cls-6{fill-rule:evenodd;}.cls-6{fill:#cfcfcf;}.cls-7{fill:#ec1e27;}</style><clipPath id="clip-path"><rect class="cls-1" x="-2357.45" y="1399.05" width="2182.36" height="1050.09"/></clipPath></defs><title>iSight logo</title><g class="cls-2"><g class="cls-3"><g class="cls-4"><polygon class="cls-5" points="-1583.08 -53.88 646.24 2004.97 -363.85 3098.69 -2593.16 1039.84 -1582.06 -54.98 -1583.08 -53.88"/><polygon class="cls-6" points="648.19 2002.85 644.99 2006.32 -1584.33 -52.53 -1581.12 -56 648.19 2002.85 648.19 2002.85"/><polygon class="cls-6" points="565.84 2092.02 562.64 2095.49 -1666.68 36.65 -1663.48 33.17 565.84 2092.02 565.84 2092.02"/><polygon class="cls-6" points="607.02 2047.43 603.81 2050.91 -1625.51 -7.94 -1622.3 -11.41 607.02 2047.43 607.02 2047.43"/></g></g></g><rect class="cls-7" x="3.65" y="17.6" width="7.49" height="29.9"/><path class="cls-8" d="M34,48.18A45.77,45.77,0,0,1,17,44.8l1.72-6.08a47.35,47.35,0,0,0,15.1,2.83c5.77,0,9.15-1.72,9.15-5,0-2.82-2.21-3.74-10.44-6.81-9.82-3.68-13.93-6.2-13.93-13C18.63,9.5,23.91,6,35,6A60.72,60.72,0,0,1,49.69,8l-1.17,6.32a68.2,68.2,0,0,0-13.44-1.54c-6.32,0-8.66.92-8.66,3.81,0,3.07,2.58,4.05,11.42,7.49,9.39,3.68,12.95,5.4,12.95,12.28,0,7.24-6.87,11.85-16.82,11.85"/><rect class="cls-8" x="56.07" y="17.6" width="7.49" height="29.9"/><path class="cls-8" d="M81.3,58.12a36.38,36.38,0,0,1-10.13-1.35l1-5.15a37.46,37.46,0,0,0,8.28,1c7.25,0,9.7-2.76,9.7-7.68V42.59A11.23,11.23,0,0,1,80.94,47C72.46,47,68,39.71,68,32.09c0-7.92,4.42-15,12.9-15a10.88,10.88,0,0,1,9.2,4.79V17.6h7.49V44c0,9.09-6.2,14.12-16.33,14.12m1.48-35.18c-4.85,0-7.19,3.93-7.19,9.15s2.34,9.09,7.19,9.09c4.48,0,7.36-3,7.36-8.72s-2.82-9.52-7.36-9.52"/><path class="cls-8" d="M124,47.5V29.64c0-3.69-1.54-5.9-5.28-5.9a7.27,7.27,0,0,0-7.06,7.12V47.5h-7.49V6.61h7.31V22.33a12.63,12.63,0,0,1,10.19-5.28c6.75,0,9.82,4.61,9.82,11.48v19Z"/><path class="cls-8" d="M148.53,48c-5.47,0-9.46-2.51-9.46-9.08V22.64h-3.93v-5h3.93V9.19h7.49V17.6H152v5h-5.4V38.42c0,3.13,1.47,3.8,3.44,3.8a15.83,15.83,0,0,0,2.15-.24l.67,5.52a20.87,20.87,0,0,1-4.29.49"/><path class="cls-7" d="M12.68,9.13A5.25,5.25,0,1,1,7.43,3.88a5.26,5.26,0,0,1,5.25,5.25"/><path class="cls-8" d="M65.07,9.13a5.25,5.25,0,1,1-5.25-5.25,5.26,5.26,0,0,1,5.25,5.25"/></svg>