<svg id="Layer_1" data-name="Layer 1" xmlns="http://www.w3.org/2000/svg" viewBox="0 0 155 62.83"><defs><style>.cls-1{opacity:0.29;}.cls-2{fill:#ec1e27;}.cls-3{fill:#4d4d4f;}</style></defs><title>iSight - logo</title><rect class="cls-2" x="6.68" y="18.57" width="7.18" height="28.67"/><path class="cls-3" d="M35.76,47.89a44,44,0,0,1-16.25-3.24l1.65-5.83a45.35,45.35,0,0,0,14.48,2.71c5.54,0,8.78-1.65,8.78-4.77,0-2.71-2.12-3.59-10-6.54C25,26.69,21,24.28,21,17.74c0-6.94,5.07-10.3,15.66-10.3A58.32,58.32,0,0,1,50.83,9.33l-1.12,6.06a65,65,0,0,0-12.89-1.47c-6.06,0-8.3.88-8.3,3.65,0,2.94,2.47,3.88,11,7.18,9,3.53,12.42,5.18,12.42,11.77,0,6.95-6.59,11.37-16.13,11.37"/><rect class="cls-3" x="56.95" y="18.57" width="7.18" height="28.67"/><path class="cls-3" d="M81.15,57.42a35,35,0,0,1-9.72-1.29l.95-5a35.32,35.32,0,0,0,7.94,1c7,0,9.3-2.65,9.3-7.36V42.53a10.81,10.81,0,0,1-8.83,4.24c-8.12,0-12.36-7-12.36-14.31C68.43,24.87,72.67,18,80.79,18a10.42,10.42,0,0,1,8.83,4.59V18.57h7.19V43.88c0,8.72-6,13.54-15.66,13.54m1.41-33.73c-4.65,0-6.89,3.77-6.89,8.77s2.24,8.71,6.89,8.71c4.3,0,7.06-2.82,7.06-8.36s-2.7-9.12-7.06-9.12"/><path class="cls-3" d="M122.06,47.24V30.11c0-3.54-1.47-5.65-5.06-5.65a7,7,0,0,0-6.77,6.82v16h-7.18V8h7V23.1A12.12,12.12,0,0,1,119.82,18c6.48,0,9.42,4.41,9.42,11V47.24Z"/><path class="cls-3" d="M145.61,47.71c-5.24,0-9.07-2.41-9.07-8.71V23.4h-3.77V18.57h3.77V10.5h7.18v8.07h5.19V23.4h-5.19V38.53c0,3,1.42,3.65,3.3,3.65a14.52,14.52,0,0,0,2.06-.24l.65,5.3a20.8,20.8,0,0,1-4.12.47"/><path class="cls-2" d="M15.35,10.44a5,5,0,1,1-5-5,5,5,0,0,1,5,5"/><path class="cls-3" d="M65.58,10.44a5,5,0,1,1-5-5,5,5,0,0,1,5,5"/></svg>