<svg id="Layer_1" data-name="Layer 1" xmlns="http://www.w3.org/2000/svg" viewBox="0 0 200 180.04"><defs><style>.cls-1{fill:#737374;}.cls-2{fill:#ee5225;}.cls-3{fill:#80ba42;}.cls-4{fill:#319ed8;}.cls-5{fill:#fbb615;}.cls-6{fill:#846b2a;}</style></defs><title>microsoft-gold-partner-logo</title><path d="M38.7,71.1H34.52V46.74q0-2.88.35-7h-.1a22.74,22.74,0,0,1-1.06,3.52L21.56,71.1h-2L7.35,43.43a21.33,21.33,0,0,1-1.06-3.72h-.1q.19,2.17.2,7.08V71.1h-4V34.83H7.88L18.8,60.12a32.87,32.87,0,0,1,1.62,4.35h.17c.83-2.32,1.4-3.81,1.72-4.45L33.46,34.83H38.7V71.1"/><path d="M50.29,71.1H46.22V45.2h4.07V71.1M51,35.92a2.68,2.68,0,0,1-2.69,2.7,2.62,2.62,0,0,1-1.88-.74,2.58,2.58,0,0,1-.77-2A2.66,2.66,0,0,1,46.4,34a2.52,2.52,0,0,1,1.9-.79A2.65,2.65,0,0,1,51,35.92"/><path d="M74.4,69.91a13,13,0,0,1-7,1.82,12,12,0,0,1-6.24-1.63,11.13,11.13,0,0,1-4.31-4.62,14.32,14.32,0,0,1-1.54-6.7q0-6.42,3.61-10.32a12.53,12.53,0,0,1,9.63-3.89,12.76,12.76,0,0,1,5.88,1.31v4.25a10.28,10.28,0,0,0-6.06-2A8.09,8.09,0,0,0,62,51,11,11,0,0,0,59.5,58.4a10.33,10.33,0,0,0,2.35,7.16,8,8,0,0,0,6.29,2.63A10.17,10.17,0,0,0,74.4,66v3.94"/><path d="M92.55,49.4a5,5,0,0,0-3.1-.84,5.08,5.08,0,0,0-4.4,2.6,12.09,12.09,0,0,0-1.69,6.74V71.1H79.29V45.2h4.07v5.34h.1a9.12,9.12,0,0,1,2.61-4.24,5.91,5.91,0,0,1,4.05-1.56,6.41,6.41,0,0,1,2.43.36v4.3"/><path d="M114,58.2q0-4.87-2.12-7.49a7.41,7.41,0,0,0-6.08-2.6,7.73,7.73,0,0,0-6.2,2.67c-1.53,1.78-2.29,4.28-2.29,7.52a10.65,10.65,0,0,0,2.3,7.27,7.8,7.8,0,0,0,6.19,2.62,7.42,7.42,0,0,0,6.09-2.58Q114,63,114,58.2m4.17-.15q0,6.17-3.44,9.93a11.9,11.9,0,0,1-9.22,3.75,11.69,11.69,0,0,1-9-3.65,13.68,13.68,0,0,1-3.36-9.63q0-6.42,3.45-10.15t9.51-3.73a11.26,11.26,0,0,1,8.87,3.6q3.21,3.6,3.2,9.88"/><path d="M137.07,64.17a6.76,6.76,0,0,1-2.54,5.46,10.32,10.32,0,0,1-6.77,2.1,12.31,12.31,0,0,1-6.31-1.57V65.71a10.12,10.12,0,0,0,6.61,2.48c3.23,0,4.84-1.2,4.84-3.62a3.21,3.21,0,0,0-.94-2.39,18.26,18.26,0,0,0-4.3-2.49,12.59,12.59,0,0,1-4.77-3.15A7.31,7.31,0,0,1,124,46.72a9.58,9.58,0,0,1,6.44-2.15,12,12,0,0,1,5.44,1.21V50a9.42,9.42,0,0,0-5.77-1.84,5,5,0,0,0-3.24,1,3.21,3.21,0,0,0-1.23,2.61,3.54,3.54,0,0,0,1,2.64,14.16,14.16,0,0,0,3.9,2.19,14.11,14.11,0,0,1,5.09,3.28,6.48,6.48,0,0,1,1.46,4.33"/><path d="M160.69,58.2q0-4.87-2.13-7.49a7.39,7.39,0,0,0-6.07-2.6,7.74,7.74,0,0,0-6.21,2.67c-1.52,1.78-2.28,4.28-2.28,7.52s.76,5.53,2.29,7.27a7.82,7.82,0,0,0,6.2,2.62,7.42,7.42,0,0,0,6.09-2.58c1.4-1.72,2.11-4.19,2.11-7.41m4.17-.15A14.16,14.16,0,0,1,161.42,68a11.91,11.91,0,0,1-9.23,3.75,11.65,11.65,0,0,1-9-3.65,13.69,13.69,0,0,1-3.37-9.63q0-6.42,3.46-10.15t9.51-3.73q5.66,0,8.86,3.6t3.21,9.88"/><path d="M181.54,36.4a5.27,5.27,0,0,0-2.7-.69q-4.28,0-4.27,5.49v4h6v3.52h-6V71.1h-4.08V48.72h-4.32V45.2h4.32V41a8.89,8.89,0,0,1,2.29-6.37,7.62,7.62,0,0,1,5.81-2.43,7.88,7.88,0,0,1,2.95.45V36.4"/><path d="M196.34,70.85a7.75,7.75,0,0,1-3.82.83q-6.66,0-6.66-7.64V48.72h-4.37V45.2h4.37V38.88l4.07-1.34V45.2h6.41v3.52h-6.41V63.33A6.07,6.07,0,0,0,190.8,67a3.51,3.51,0,0,0,2.91,1.1,4.3,4.3,0,0,0,2.63-.83v3.54"/><path d="M61.66,95.83q0-7.2-8.34-7.2H48.43V103.5H52.8c2.86,0,5.06-.66,6.58-2a7.11,7.11,0,0,0,2.28-5.68M66,95.61a10.89,10.89,0,0,1-3.57,8.48,13.39,13.39,0,0,1-9.35,3.23H48.43v13.73H44.25V84.78H54q5.72,0,8.85,2.85t3.15,8"/><path d="M83.22,108l-6.16.88a9,9,0,0,0-4.42,1.54,4.28,4.28,0,0,0-1.27,3.47A3.94,3.94,0,0,0,72.74,117a5.18,5.18,0,0,0,3.5,1.17,6.44,6.44,0,0,0,5-2.17,7.79,7.79,0,0,0,2-5.44V108m4.07,13.1H83.22v-4h-.1a8.5,8.5,0,0,1-7.83,4.68,8.31,8.31,0,0,1-5.88-2,7.06,7.06,0,0,1-2.21-5.48q0-7.23,8.39-8.45l7.63-1.08q0-6.58-5.24-6.58a12.44,12.44,0,0,0-8.3,3.16V97a12.42,12.42,0,0,1,3.83-1.65,17,17,0,0,1,4.81-.8q9,0,9,9.69v16.84"/><path d="M107,99.35a5.4,5.4,0,0,0-7.5,1.76,12.11,12.11,0,0,0-1.69,6.74v13.2H93.69V95.15h4.08v5.34h.1a9.19,9.19,0,0,1,2.6-4.24,5.94,5.94,0,0,1,4-1.55,6.53,6.53,0,0,1,2.44.35v4.3"/><path d="M125.93,120.8a7.62,7.62,0,0,1-3.82.83q-6.66,0-6.66-7.64V98.67h-4.37V95.15h4.37V88.83l4.08-1.34v7.66h6.4v3.52h-6.4v14.62a6.06,6.06,0,0,0,.87,3.7,3.45,3.45,0,0,0,2.9,1.1,4.3,4.3,0,0,0,2.63-.83v3.54"/><path d="M152.74,121.05h-4.07V106.28q0-8.22-5.92-8.22a6.39,6.39,0,0,0-5,2.31,8.68,8.68,0,0,0-2,5.91v14.77h-4.07V95.15h4.07v4.3h.1a9.11,9.11,0,0,1,8.35-4.93,7.67,7.67,0,0,1,6.39,2.78q2.21,2.79,2.2,7.89v15.86"/><path d="M175.21,105.62a8.65,8.65,0,0,0-1.7-5.57,5.7,5.7,0,0,0-4.66-2,6.51,6.51,0,0,0-4.84,2.07,9.76,9.76,0,0,0-2.53,5.49h13.73m4.17,3.52H161.43q.09,4.38,2.27,6.69a7.87,7.87,0,0,0,6,2.31,12.34,12.34,0,0,0,7.88-2.83v3.87a14.36,14.36,0,0,1-8.85,2.5,10.56,10.56,0,0,1-8.49-3.58q-3.06-3.57-3.06-9.9a16,16,0,0,1,1.53-7,11.9,11.9,0,0,1,4.21-4.92,10.74,10.74,0,0,1,6-1.74,9.54,9.54,0,0,1,7.71,3.27c1.85,2.19,2.77,5.24,2.77,9.17v2.18"/><path d="M197.33,99.35a5,5,0,0,0-3.1-.83,5.08,5.08,0,0,0-4.4,2.59,12.2,12.2,0,0,0-1.68,6.74v13.2h-4.08V95.15h4.08v5.34h.1a9.19,9.19,0,0,1,2.6-4.24,5.94,5.94,0,0,1,4.05-1.55,6.44,6.44,0,0,1,2.43.35v4.3"/><path class="cls-1" d="M113,165.75l-.78,2.24h0a20.16,20.16,0,0,0-.74-2.21l-4.2-10.72h-4.1v17h2.71V161.62c0-.64,0-1.42,0-2.32,0-.45-.07-.81-.08-1.09h.06c.14.64.28,1.13.38,1.46l5,12.43h1.9l5-12.54a12.45,12.45,0,0,0,.34-1.35h.06c-.06,1.24-.12,2.38-.13,3.06V172.1h2.89v-17h-3.94L113,165.75"/><polyline class="cls-1" points="123.99 172.1 126.81 172.1 126.81 162.88 126.81 159.89 123.99 159.89 123.99 167.37 123.99 172.1"/><path class="cls-1" d="M125.43,154.7a1.66,1.66,0,0,0-1.2.48,1.64,1.64,0,0,0,0,2.37,1.79,1.79,0,0,0,2.42,0,1.53,1.53,0,0,0,.5-1.18,1.67,1.67,0,0,0-1.71-1.67"/><path class="cls-1" d="M136.8,159.76a8.11,8.11,0,0,0-1.58-.17,6.92,6.92,0,0,0-3.43.84,5.56,5.56,0,0,0-2.26,2.37,7.59,7.59,0,0,0-.78,3.51,6.6,6.6,0,0,0,.75,3.15,5.47,5.47,0,0,0,2.12,2.17,6.12,6.12,0,0,0,3.08.77,6.63,6.63,0,0,0,3.4-.82l0,0v-2.63L138,169a5.36,5.36,0,0,1-1.38.73,4,4,0,0,1-1.35.27,3.45,3.45,0,0,1-2.64-1.05,4.11,4.11,0,0,1-1-2.91,4.31,4.31,0,0,1,1-3,3.44,3.44,0,0,1,2.64-1.11,4.48,4.48,0,0,1,2.69.95l.12.09v-2.77l0,0a4.88,4.88,0,0,0-1.3-.45"/><path class="cls-1" d="M146.09,159.68a2.91,2.91,0,0,0-1.89.68,4,4,0,0,0-1.08,1.64h0v-2.11h-2.82V172.1h2.82v-6.25a4.45,4.45,0,0,1,.7-2.59,2.16,2.16,0,0,1,1.83-1,3.33,3.33,0,0,1,.84.12,2.42,2.42,0,0,1,.66.27l.12.09v-2.89l0,0a2.81,2.81,0,0,0-1.11-.17"/><path class="cls-1" d="M156,169a2.85,2.85,0,0,1-2.37,1,3,3,0,0,1-2.42-1,4.48,4.48,0,0,1-.88-2.94,4.63,4.63,0,0,1,.88-3,2.94,2.94,0,0,1,2.4-1.06,2.9,2.9,0,0,1,2.34,1,4.54,4.54,0,0,1,.86,3,4.84,4.84,0,0,1-.81,3m-2.24-9.41a6.18,6.18,0,0,0-4.67,1.76,6.63,6.63,0,0,0-1.68,4.79,6.3,6.3,0,0,0,1.64,4.57,5.92,5.92,0,0,0,4.42,1.68,6,6,0,0,0,4.58-1.77,6.63,6.63,0,0,0,1.68-4.74,6.46,6.46,0,0,0-1.58-4.61,5.79,5.79,0,0,0-4.39-1.68"/><path class="cls-1" d="M166,164.93a6,6,0,0,1-1.69-.89,1.26,1.26,0,0,1-.34-.94,1,1,0,0,1,.43-.87,1.86,1.86,0,0,1,1.21-.35,4.86,4.86,0,0,1,1.45.22,4.66,4.66,0,0,1,1.27.6l.11.08v-2.66h0a5.78,5.78,0,0,0-1.29-.37,7.52,7.52,0,0,0-1.4-.15,5.1,5.1,0,0,0-3.31,1,3.34,3.34,0,0,0-1.29,2.71,3.75,3.75,0,0,0,.28,1.52,3,3,0,0,0,.85,1.13,7.31,7.31,0,0,0,1.74,1,12.6,12.6,0,0,1,1.44.69,2,2,0,0,1,.64.53,1.26,1.26,0,0,1,.17.69c0,.82-.6,1.22-1.84,1.22a5,5,0,0,1-1.56-.29,5.54,5.54,0,0,1-1.6-.83l-.12-.08v2.8l0,0a6.84,6.84,0,0,0,1.52.47,7.75,7.75,0,0,0,1.61.2,5.47,5.47,0,0,0,3.5-1.05,3.42,3.42,0,0,0,1.3-2.78,3.22,3.22,0,0,0-.7-2.09,5.93,5.93,0,0,0-2.38-1.55"/><path class="cls-1" d="M178.89,169a2.86,2.86,0,0,1-2.37,1,3,3,0,0,1-2.43-1,4.48,4.48,0,0,1-.88-2.94,4.63,4.63,0,0,1,.88-3,3.24,3.24,0,0,1,4.75-.05,4.59,4.59,0,0,1,.85,3,4.91,4.91,0,0,1-.8,3m-2.25-9.41a6.21,6.21,0,0,0-4.67,1.76,6.67,6.67,0,0,0-1.68,4.79,6.27,6.27,0,0,0,1.65,4.57,5.89,5.89,0,0,0,4.41,1.68,6,6,0,0,0,4.58-1.77,6.64,6.64,0,0,0,1.69-4.74,6.47,6.47,0,0,0-1.59-4.61,5.77,5.77,0,0,0-4.39-1.68"/><path class="cls-1" d="M197.66,162.23v-2.34H194.8v-3.65l-.1,0-2.68.84-.05,0v2.76h-4.24v-1.54a2.48,2.48,0,0,1,.47-1.63,1.64,1.64,0,0,1,1.31-.54,3,3,0,0,1,1.24.28l.11,0V154h-.05a4.6,4.6,0,0,0-1.59-.22,4.55,4.55,0,0,0-2.25.55,3.85,3.85,0,0,0-1.54,1.56,4.61,4.61,0,0,0-.55,2.28v1.69h-2v2.34h2v9.87h2.85v-9.87H192v6.27c0,2.59,1.19,3.9,3.55,3.9a5.86,5.86,0,0,0,1.22-.14,3.54,3.54,0,0,0,.88-.29l0,0v-2.37l-.12.08a1.76,1.76,0,0,1-.57.26,2.44,2.44,0,0,1-.57.1,1.53,1.53,0,0,1-1.21-.45,2.45,2.45,0,0,1-.39-1.57v-5.77h2.86"/><polyline class="cls-2" points="80.13 162.88 66.86 162.88 66.86 149.37 80.13 149.37 80.13 162.88"/><polyline class="cls-3" points="94.78 162.88 81.52 162.88 81.52 149.37 94.78 149.37 94.78 162.88"/><polyline class="cls-4" points="80.13 177.81 66.86 177.81 66.86 164.29 80.13 164.29 80.13 177.81"/><polyline class="cls-5" points="94.78 177.81 81.52 177.81 81.52 164.29 94.78 164.29 94.78 177.81"/><path class="cls-6" d="M16.82,20a11.72,11.72,0,0,1-6,1.55,8.58,8.58,0,0,1-4.45-1.15,7.7,7.7,0,0,1-3-3.25,10.46,10.46,0,0,1-1.06-4.74,9.62,9.62,0,0,1,2.6-6.9,8.77,8.77,0,0,1,6.64-2.71,11.08,11.08,0,0,1,4.88,1V6.15a9.12,9.12,0,0,0-5.11-1.4A6.45,6.45,0,0,0,5.4,8.4a8.57,8.57,0,0,0-.87,3.88A7.82,7.82,0,0,0,6.3,17.69a6.14,6.14,0,0,0,4.82,2,7.34,7.34,0,0,0,3.62-.86V13.74h-3.9V11.82h6V20"/><path class="cls-6" d="M30.78,14.83a5.8,5.8,0,0,0-1.06-3.75,3.69,3.69,0,0,0-3-1.3,3.87,3.87,0,0,0-3.1,1.33,5.64,5.64,0,0,0-1.14,3.77,5.29,5.29,0,0,0,1.15,3.63,3.91,3.91,0,0,0,3.09,1.31,3.72,3.72,0,0,0,3.05-1.29,5.72,5.72,0,0,0,1.05-3.7m2.09-.08a7,7,0,0,1-1.72,5,5.92,5.92,0,0,1-4.61,1.88A5.85,5.85,0,0,1,22,19.76,6.81,6.81,0,0,1,20.35,15a7.21,7.21,0,0,1,1.73-5.08A6.15,6.15,0,0,1,26.83,8a5.64,5.64,0,0,1,4.44,1.8,7.21,7.21,0,0,1,1.6,4.94"/><polyline class="cls-6" points="38.7 21.27 36.66 21.27 36.66 2.1 38.7 2.1 38.7 21.27"/><path class="cls-6" d="M52.17,15.42V13.51a3.65,3.65,0,0,0-1.05-2.67,3.44,3.44,0,0,0-2.55-1.06,3.51,3.51,0,0,0-2.92,1.38A6.13,6.13,0,0,0,44.57,15a5.52,5.52,0,0,0,1,3.52,3.29,3.29,0,0,0,2.74,1.3,3.49,3.49,0,0,0,2.76-1.24,4.64,4.64,0,0,0,1.08-3.16m2,5.86h-2V19.07h-.05a5.06,5.06,0,0,1-8.21.76,7.29,7.29,0,0,1-1.43-4.71A7.88,7.88,0,0,1,44.07,10a5.18,5.18,0,0,1,4.24-2,4.07,4.07,0,0,1,3.81,2.1h.05v-8h2V21.28"/></svg>