<?xml version="1.0" encoding="utf-8"?>
<!-- Generator: Adobe Illustrator 22.1.0, SVG Export Plug-In . SVG Version: 6.00 Build 0)  -->
<svg version="1.1" id="Layer_1" xmlns="http://www.w3.org/2000/svg" xmlns:xlink="http://www.w3.org/1999/xlink" x="0px" y="0px"
	 viewBox="0 0 64.5 63" style="enable-background:new 0 0 64.5 63;" xml:space="preserve">
<style type="text/css">
	.st0{fill:#FFFFFF;stroke:#D6D6D6;stroke-width:0.75;stroke-miterlimit:10;}
	.st1{clip-path:url(#SVGID_2_);}
	.st2{fill:#464647;}
	.st3{fill:#A6DAED;}
	.st4{fill:#515050;}
	.st5{font-family:'MyriadPro-Regular';}
	.st6{font-size:5px;}
</style>
<circle class="st0" cx="32.4" cy="31.5" r="30"/>
<g>
	<defs>
		<circle id="SVGID_1_" cx="30.9" cy="25" r="30"/>
	</defs>
	<clipPath id="SVGID_2_">
		<use xlink:href="#SVGID_1_"  style="overflow:visible;"/>
	</clipPath>
	<g class="st1">
		<g>
			<g>
				<g>
					<g>
						<path class="st2" d="M36.2,35.3c2.1-4,4-6.7,5.5-8.2c1.6-1.4,3.1-2.2,4.7-2.2c1.1,0,2,0.4,2.7,1.1c0.7,0.8,1.3,2.7,1.6,5.9
							c0.1,1.5,0.3,2.7,0.5,3.6c0.2,0.9,0.5,1.7,0.7,2.5c0.3,0.7,0.7,1.4,1.2,2c0.4,0.5,0.6,1,0.6,1.4c0,0.5-0.2,0.9-0.7,1.3
							c-0.4,0.4-1,0.6-1.5,0.6c-1.1,0-2.2-0.6-3.1-1.9c-0.9-1.2-1.4-3-1.6-5.2c-0.2-2.7-0.4-4.4-0.7-5.2c-0.2-0.7-0.6-1.1-1.2-1.1
							c-0.7,0-2.2,1.5-4.4,4.5c-2.2,3-3.7,5.4-4.7,7.2c-0.6,1.4-1,2.2-1.4,2.6c-0.3,0.4-0.7,0.6-1.2,0.6c-0.8,0-1.4-0.2-1.9-0.6
							c-0.5-0.4-0.7-0.9-0.7-1.6c0-0.3,0.2-1.4,0.5-3.3c1.3-6.9,2.4-14.3,3.2-22.1c0.2-1.9,0.6-3.2,1.2-3.9c0.6-0.7,1.1-1.1,1.6-1.1
							c0.7,0,1.3,0.3,1.8,0.8c0.5,0.5,0.8,1.3,0.8,2.2c0,1.4-0.2,3.1-0.5,5c-0.3,1.9-1,4.9-1.9,9C36.9,31.9,36.4,33.8,36.2,35.3z"/>
					</g>
				</g>
				<g>
					<g>
						<path class="st3" d="M36.6,17.6l-9.5,24.8H20l-9.4-24.8h6.7l5.8,17.2c0.3,0.9,0.5,1.8,0.6,2.5h0.1c0.1-0.8,0.3-1.6,0.6-2.5
							l5.7-17.2H36.6z"/>
					</g>
				</g>
			</g>
		</g>
		<g>
			<path class="st3" d="M-28.8,55.6l-5.6,14.5h-4.1L-44,55.6h3.9l3.4,10.1c0.2,0.5,0.3,1,0.3,1.4h0.1c0.1-0.5,0.2-0.9,0.3-1.5
				l3.4-10H-28.8z"/>
			<path class="st3" d="M-17.6,70.1h-3.4v-1.5h0c-0.8,1.2-1.9,1.7-3.4,1.7c-1.1,0-2-0.3-2.6-0.9c-0.6-0.6-1-1.3-1-2.3
				c0-2,1.3-3.2,4-3.5l3.1-0.4c0-1.1-0.7-1.7-2.1-1.7c-1.4,0-2.7,0.4-3.9,1.1v-2.4c0.5-0.2,1.2-0.4,2-0.6c0.9-0.2,1.6-0.3,2.4-0.3
				c3.3,0,4.9,1.5,4.9,4.4V70.1z M-20.9,65.9v-0.7l-2.1,0.2c-1.2,0.1-1.7,0.6-1.7,1.4c0,0.4,0.1,0.7,0.4,0.9
				c0.3,0.2,0.7,0.3,1.1,0.3c0.7,0,1.2-0.2,1.6-0.6C-21.1,67-20.9,66.5-20.9,65.9z"/>
			<path class="st3" d="M-11.2,70.1h-3.6V54.7h3.6V70.1z"/>
			<path class="st3" d="M2.8,70.1h-3.6v-1.6h-0.1c-0.9,1.2-2.1,1.8-3.5,1.8c-2.7,0-4-1.5-4-4.4v-6.2h3.6v6c0,1.5,0.6,2.2,1.9,2.2
				c0.6,0,1.2-0.2,1.5-0.6c0.4-0.4,0.6-0.9,0.6-1.6v-5.9h3.6V70.1z"/>
			<path class="st3" d="M16.2,65.8H8.7c0.1,1.5,1.2,2.3,3.2,2.3c1.3,0,2.4-0.3,3.4-0.8v2.3c-1.1,0.5-2.5,0.8-4.2,0.8
				c-1.9,0-3.3-0.5-4.3-1.4c-1-0.9-1.5-2.2-1.5-3.9c0-1.7,0.6-3.1,1.7-4.1c1.1-1,2.5-1.5,4.1-1.5c1.7,0,3,0.4,3.9,1.3
				c0.9,0.9,1.4,2.1,1.4,3.6V65.8z M12.9,63.8c0-1.5-0.7-2.2-2-2.2c-0.6,0-1.1,0.2-1.5,0.6c-0.4,0.4-0.7,1-0.8,1.6H12.9z"/>
			<path class="st2" d="M22.8,64.8c-0.2,0.3-0.3,1.3-0.4,2.8c0,0.9-0.2,1.6-0.4,2.2c-0.2,0.6-0.5,0.9-0.8,0.9c-0.4,0-0.7-0.1-1-0.4
				c-0.3-0.2-0.4-0.6-0.4-1.1c0-0.4,0.1-1,0.3-1.7c0.4-1.6,0.8-5,1.3-10.2c0-0.2,0.2-0.4,0.4-0.6c0.2-0.2,0.5-0.3,0.7-0.3
				c0.8,0,1.2,0.5,1.2,1.5c0,0.5-0.1,1.2-0.3,2.2c-0.2,1.1-0.3,2-0.3,2.5c0,0.1,0.3,0.1,0.7,0.1c0.9,0,2.1-0.1,3.7-0.2
				c1.6-0.1,2.5-0.3,2.6-0.5c0.1-0.2,0.2-0.8,0.4-1.9c0.1-1,0.2-2.1,0.2-3.3c0-0.2,0.1-0.4,0.4-0.6c0.3-0.2,0.5-0.4,0.8-0.4
				c0.3,0,0.6,0.1,0.9,0.3c0.2,0.2,0.3,0.5,0.3,0.8c0,0.5-0.1,1.3-0.3,2.5c-0.3,1.4-0.5,3.1-0.7,5.3c-0.2,2.1-0.3,3.6-0.3,4.3
				c0,0.3-0.2,0.7-0.5,1c-0.3,0.3-0.6,0.5-0.9,0.5c-0.3,0-0.5-0.1-0.8-0.3s-0.4-0.5-0.4-0.8c0-0.2,0.1-0.9,0.3-2.2
				c0.2-1.2,0.3-2.1,0.3-2.5c0-0.3-0.1-0.4-0.2-0.4c-0.3,0-0.9,0-1.7,0.1c-0.9,0.1-1.5,0.1-1.8,0.1c-0.2,0-0.8,0-1.8,0.1
				C23.4,64.7,22.9,64.8,22.8,64.8z"/>
			<path class="st2" d="M41.3,66.9c-1.6,2.2-3.2,3.2-4.7,3.2c-0.6,0-1-0.2-1.4-0.7c-0.4-0.4-0.6-1-0.6-1.7c0-1.6,0.7-3.4,2.2-5.3
				c1.5-1.9,2.9-2.8,4.4-2.8c0.8,0,1.3,0.4,1.5,1.1c0.7,0,1.1,0.3,1.1,0.8c0,0.3-0.1,0.7-0.2,1.4c-0.2,1.3-0.4,2.3-0.4,3.1
				c0,0.8,0.1,1.4,0.2,1.7c0.1,0.3,0.2,0.5,0.2,0.6c0,0.1,0.2,0.2,0.4,0.3c0.2,0.1,0.4,0.3,0.4,0.5c0,0.3-0.2,0.6-0.5,0.8
				c-0.3,0.2-0.7,0.3-1,0.3C41.7,70.5,41.1,69.3,41.3,66.9z M40.7,61.8c-0.6,0-1.4,0.7-2.4,2.1c-1,1.4-1.5,2.6-1.5,3.5
				c0,0.5,0.1,0.8,0.3,0.8c0.7,0,1.6-0.6,2.7-1.9c1.1-1.3,1.6-2.4,1.6-3.4c0-0.3-0.1-0.6-0.2-0.7C41,61.9,40.9,61.8,40.7,61.8z"/>
			<path class="st2" d="M48.4,65.5l0.2-0.3c0.8-1.5,1.6-2.7,2.4-3.7c0.9-0.9,1.7-1.4,2.5-1.4c0.6,0,1.1,0.2,1.5,0.5
				c0.4,0.3,0.6,0.8,0.6,1.2c0,0.3-0.1,0.6-0.2,0.8c-0.1,0.2-0.3,0.3-0.6,0.3c-0.4,0-0.7-0.2-1.1-0.5c-0.2-0.2-0.4-0.3-0.5-0.3
				c-0.5,0-1.2,0.7-2.3,2.2c-1.1,1.4-1.7,3.1-2,4.9c-0.1,0.5-0.2,0.9-0.5,1.1c-0.2,0.2-0.6,0.3-1,0.3c-0.4,0-0.7-0.2-0.9-0.7
				s-0.3-1.3-0.3-2.4c0-0.5,0-1.1,0-1.8c0-0.7,0.1-1.6,0.2-2.7c0-0.3,0.1-0.5,0.1-0.6c0.1-0.6,0.1-1,0.2-1.3
				c0.1-0.2,0.2-0.4,0.5-0.6c0.3-0.2,0.5-0.3,0.9-0.3c0.3,0,0.6,0.1,0.8,0.3c0.2,0.2,0.3,0.4,0.3,0.6c0,0.3-0.1,0.9-0.4,1.8
				c-0.1,0.3-0.2,0.7-0.3,1.1L48.4,65.5z"/>
			<path class="st2" d="M57.4,70c0-0.4-0.2-1.3-0.7-2.6c-1-2.7-1.5-4.6-1.5-5.7c0-1,0.4-1.5,1.2-1.5c0.8,0,1.2,0.5,1.2,1.4
				c0,0.6,0,1,0,1.3c0,0.3,0.1,0.7,0.3,1.4c0.2,0.7,0.3,1.2,0.5,1.7c0.1,0.3,0.2,0.6,0.3,1c0.1,0.3,0.1,0.5,0.2,0.6
				c0-0.1,0.2-0.3,0.4-0.7c0.1-0.3,0.6-1,1.3-2.2c0.8-1.2,1.4-2.2,2-2.9c0.6-0.7,1-1.2,1.3-1.3s0.6-0.2,0.9-0.2
				c0.3,0,0.6,0.1,0.8,0.3c0.2,0.2,0.3,0.5,0.3,0.8c0,0.4-0.3,0.7-0.8,1.1c-0.5,0.3-1.2,1.1-2.1,2.4c-0.9,1.2-1.8,2.8-2.8,4.7
				c-0.6,1.1-1.1,1.6-1.5,1.6C58.2,70.8,57.8,70.5,57.4,70z"/>
			<path class="st2" d="M74.4,66.9c0,0.6-0.5,1.4-1.6,2.3c-1.1,0.9-2.3,1.3-3.7,1.3c-1,0-1.9-0.3-2.5-1c-0.6-0.7-0.9-1.6-0.9-2.8
				c0-1.7,0.6-3.4,1.8-4.9c1.2-1.5,2.5-2.3,3.9-2.3c0.7,0,1.3,0.2,1.7,0.7c0.4,0.4,0.6,1,0.6,1.6c0,1.1-0.5,2.1-1.6,3.1
				c-1,1-2.4,1.7-4,2c-0.2,0-0.3,0.2-0.3,0.3c0,0.3,0.1,0.6,0.4,0.9c0.3,0.3,0.6,0.4,1.1,0.4c1.2,0,2.5-0.6,3.7-1.9
				c0.2-0.2,0.5-0.4,0.7-0.4C74.2,66.2,74.4,66.5,74.4,66.9z M68.2,65.2c1-0.2,1.8-0.6,2.6-1.3c0.7-0.6,1.1-1.2,1.1-1.7
				c0-0.2-0.1-0.4-0.2-0.5c-0.1-0.1-0.3-0.2-0.4-0.2c-0.5,0-1.1,0.4-1.8,1.2C68.8,63.5,68.4,64.3,68.2,65.2z"/>
			<path class="st2" d="M80.3,67.7c0-0.3-0.6-0.7-1.6-1.2c-1.3-0.6-2.1-1.1-2.4-1.6c-0.4-0.4-0.5-0.9-0.5-1.4c0-1.1,0.6-2.1,1.8-2.9
				c1.2-0.8,2.4-1.2,3.4-1.2c1,0,1.6,0.5,1.6,1.4c0,0.2-0.1,0.5-0.4,0.7c-0.2,0.2-0.4,0.3-0.6,0.3c-0.1,0-0.2,0-0.4-0.1
				c-0.2-0.1-0.3-0.1-0.4-0.1c-0.6,0-1.2,0.2-1.8,0.6c-0.7,0.4-1,0.8-1,1.3c0,0.2,0.1,0.5,0.4,0.7c0.2,0.2,0.7,0.5,1.4,0.9
				c1.1,0.5,1.8,1,2.1,1.4c0.3,0.4,0.5,0.9,0.5,1.4c0,0.9-0.6,1.7-1.8,2.3c-1.2,0.6-2.6,0.9-4.1,0.9c-1.1,0-1.7-0.4-1.7-1.2
				c0-0.3,0.1-0.6,0.4-0.8c0.2-0.2,0.5-0.3,0.8-0.3c0.1,0,0.3,0,0.5,0.1c0.2,0.1,0.5,0.1,0.7,0.1c0.6,0,1.2-0.1,1.8-0.3
				C79.7,68.2,80.1,68,80.3,67.7z"/>
			<path class="st2" d="M87.8,62.5c-0.1,0-0.2,0.7-0.5,2.1c-0.3,1.4-0.4,2.2-0.4,2.5c0,0.5,0.1,0.9,0.2,1.1c0.1,0.2,0.3,0.3,0.5,0.3
				c0.3,0,0.7-0.1,1-0.2c0.3-0.1,0.7-0.4,1.3-0.8c0.3-0.3,0.6-0.4,0.8-0.4c0.2,0,0.3,0.1,0.4,0.2c0.1,0.1,0.2,0.2,0.2,0.4
				c0,0.5-0.4,1.2-1.3,1.9c-0.9,0.7-1.8,1-2.8,1c-0.8,0-1.4-0.2-1.9-0.7c-0.4-0.5-0.6-1.2-0.6-2.1c0-0.8,0.3-2.5,0.9-5
				c-0.4,0-0.7,0.1-0.8,0.1h-0.2c-0.3,0-0.6-0.1-0.9-0.3c-0.3-0.2-0.4-0.5-0.4-0.9c0-0.5,0.3-0.8,0.9-0.8l2-0.1
				c0.3-0.8,0.5-1.7,0.8-2.9c0.2-0.8,0.6-1.1,1.2-1.1c0.3,0,0.6,0.1,0.8,0.3c0.2,0.2,0.3,0.4,0.3,0.7c0,0.1-0.3,1.1-0.8,2.9
				c2-0.2,3.1-0.3,3.2-0.3c0.3,0,0.5,0,0.7,0.1c0.1,0.1,0.2,0.3,0.2,0.6c0,0.6-0.5,0.9-1.4,1.1L87.8,62.5z"/>
			<path class="st2" d="M93.5,63.9L93.5,63.9c0.2-1.1,0.3-1.8,0.3-1.9c0-0.5,0.1-0.8,0.3-1.2c0.2-0.3,0.5-0.5,0.8-0.5
				c0.4,0,0.8,0.1,1,0.3c0.2,0.2,0.4,0.4,0.4,0.7c0,0.2-0.1,0.8-0.3,1.5l-0.1,0.2c-0.3,1.2-0.5,2.2-0.6,2.9
				c-0.1,0.8-0.1,1.4-0.1,1.8c0,0.4,0.1,0.9,0.2,1.5c0,0.1,0,0.2,0,0.3c0,0.1-0.1,0.3-0.4,0.6c-0.3,0.2-0.6,0.4-0.9,0.4
				c-0.8,0-1.2-0.6-1.2-1.9c0-1.1,0.1-2.3,0.4-3.9C93.4,64.5,93.5,64.2,93.5,63.9z M98,56.2c0,0.4-0.2,0.8-0.6,1.2
				c-0.4,0.3-0.7,0.5-1,0.5c-0.4,0-0.7-0.2-1-0.5c-0.3-0.3-0.4-0.6-0.4-0.9c0-0.4,0.1-0.8,0.4-1.1c0.3-0.3,0.7-0.4,1.2-0.4
				c0.4,0,0.8,0.1,1,0.4C97.9,55.6,98,55.9,98,56.2z"/>
			<path class="st2" d="M106.2,68.7c-0.3-0.6-0.5-1.6-0.7-3.1c-0.1-1.6-0.4-2.4-0.9-2.4c-0.4,0-1.2,0.8-2.3,2.5
				c-1.1,1.7-1.8,2.9-2,3.7c-0.1,0.2-0.2,0.4-0.3,0.6c-0.2,0.2-0.3,0.2-0.5,0.2c-0.9,0-1.4-0.4-1.4-1.3c0-0.3,0.1-1,0.3-2
				c0.2-1.3,0.4-3,0.4-4.9c0-0.3,0.1-0.6,0.4-0.9c0.3-0.3,0.5-0.5,0.8-0.5c0.4,0,0.6,0.1,0.8,0.3c0.2,0.2,0.3,0.7,0.3,1.4
				c0,0.6-0.2,1.7-0.5,3.4c1.3-3.1,2.8-4.7,4.5-4.7c1.4,0,2.3,1.1,2.5,3.4c0.2,2.3,0.5,3.5,0.9,3.5c0.1,0,0.3,0,0.5-0.1
				c0.2-0.1,0.4-0.1,0.5-0.1c0.3,0,0.4,0.2,0.4,0.5c0,0.3-0.2,0.7-0.6,1c-0.4,0.4-0.9,0.5-1.5,0.5C107,69.6,106.5,69.3,106.2,68.7
				L106.2,68.7z"/>
			<path class="st2" d="M117.3,67.2c-0.7,0.8-1.5,1.4-2.4,1.9c-0.9,0.5-1.7,0.7-2.4,0.7c-0.7,0-1.2-0.2-1.5-0.6
				c-0.4-0.4-0.5-0.9-0.5-1.6c0-1,0.4-2,1.1-3.2c0.7-1.2,1.7-2.2,3-3.1s2.5-1.3,3.5-1.3c0.6,0,1.1,0.2,1.5,0.5
				c0.1,0.1,0.2,0.1,0.3,0.2c0.1,0.1,0.3,0.3,0.4,0.6c0.1,0.3,0.2,0.5,0.2,0.7c0,0.1-0.1,0.5-0.4,1.1c-0.2,0.7-0.4,1.3-0.5,1.9
				c-0.1,0.6-0.3,2.2-0.6,4.7c-0.3,2.2-0.9,3.7-1.8,4.7c-1,1-2,1.5-3.2,1.5c-1.2,0-2.4-0.4-3.6-1.2c-1.1-0.8-1.7-1.5-1.7-2
				c0-0.5,0.2-0.7,0.7-0.7c0.2,0,0.5,0.2,1.1,0.5c1.4,0.9,2.6,1.4,3.6,1.4c0.8,0,1.4-0.5,1.9-1.4C116.6,71.6,117,69.8,117.3,67.2z
				 M117.5,62c-0.5,0-1.1,0.3-1.8,0.8c-0.7,0.5-1.4,1.3-2.1,2.2c-0.6,0.9-0.9,1.7-0.9,2.3c0,0.3,0.1,0.5,0.4,0.5
				c0.8,0,1.6-0.3,2.4-1c0.8-0.6,1.4-1.4,1.9-2.2c0.5-0.8,0.7-1.5,0.7-1.9c0-0.2-0.1-0.4-0.2-0.5C117.8,62.1,117.7,62,117.5,62z"/>
		</g>
		<g>
			<g>
				<path class="st2" d="M121.9,61.6c0.3,0.2,0.7,0.3,1.1,0.3c0.6,0,1-0.3,1-0.8c0-0.4-0.3-0.6-0.9-0.9c-0.8-0.3-1.3-0.6-1.3-1.2
					c0-0.7,0.6-1.2,1.6-1.2c0.5,0,0.9,0.1,1.1,0.2l-0.2,0.5c-0.2-0.1-0.5-0.2-0.9-0.2c-0.7,0-0.9,0.4-0.9,0.7c0,0.4,0.3,0.6,1,0.8
					c0.8,0.3,1.3,0.6,1.3,1.3c0,0.7-0.6,1.3-1.7,1.3c-0.5,0-1-0.1-1.3-0.3L121.9,61.6z"/>
				<path class="st2" d="M129.7,60.4c0-0.6-0.1-1.4-0.1-1.9h0c-0.2,0.5-0.4,1.1-0.6,1.7l-0.9,2.1h-0.5l-0.8-2.1
					c-0.2-0.6-0.4-1.2-0.6-1.7h0c0,0.5-0.1,1.3-0.1,1.9l-0.1,1.9h-0.6l0.3-4.4h0.8l0.8,2.1c0.2,0.5,0.4,1,0.5,1.5h0
					c0.1-0.4,0.3-0.9,0.5-1.5l0.9-2.1h0.8l0.3,4.4h-0.6L129.7,60.4z"/>
			</g>
		</g>
	</g>
</g>
<text transform="matrix(1 0 0 1 20.4185 50)" class="st4 st5 st6">Powered by</text>
</svg>
