<?xml version="1.0" encoding="UTF-8" standalone="no"?>
<svg
   xmlns:dc="http://purl.org/dc/elements/1.1/"
   xmlns:cc="http://creativecommons.org/ns#"
   xmlns:rdf="http://www.w3.org/1999/02/22-rdf-syntax-ns#"
   xmlns:svg="http://www.w3.org/2000/svg"
   xmlns="http://www.w3.org/2000/svg"
   height="17.700001"
   width="114"
   xml:space="preserve"
   viewBox="0 0 114 17.700001"
   y="0px"
   x="0px"
   id="Layer_1"
   version="1.1"><metadata
   id="metadata41"><rdf:RDF><cc:Work
       rdf:about=""><dc:format>image/svg+xml</dc:format><dc:type
         rdf:resource="http://purl.org/dc/dcmitype/StillImage" /></cc:Work></rdf:RDF></metadata><defs
   id="defs39" />
<style
   id="style2"
   type="text/css">
	.st0{fill:#4D4D4F;}
	.st1{fill:#EC1C24;}
	.st2{fill-rule:evenodd;clip-rule:evenodd;fill:#EC1C24;}
	.st3{fill:#58595B;}
</style>
<g
   transform="translate(-5.5,-0.6)"
   id="g34">
	<path
   style="clip-rule:evenodd;fill:#ec1c24;fill-rule:evenodd"
   id="path4"
   d="m 11.5,9.5 c 0,-2.7 2,-5 4.6,-5.4 -0.3,0 -0.5,-0.1 -0.8,-0.1 -3,0 -5.5,2.4 -5.5,5.5 0,3 2.4,5.4 5.5,5.4 0.3,0 0.5,0 0.8,-0.1 -2.6,-0.3 -4.6,-2.6 -4.6,-5.3"
   class="st2" />
	<path
   style="clip-rule:evenodd;fill:#ec1c24;fill-rule:evenodd"
   id="path6"
   d="m 7.5,9.5 c 0,-4.6 3.4,-8.3 7.8,-8.8 -0.3,0 -0.7,-0.1 -1,-0.1 -4.9,0 -8.8,4 -8.8,8.9 0,4.8 3.9,8.8 8.8,8.8 0.3,0 0.7,0 1,-0.1 C 10.9,17.7 7.5,14 7.5,9.5"
   class="st2" />
	<path
   style="clip-rule:evenodd;fill:#ec1c24;fill-rule:evenodd"
   id="path8"
   d="m 14.7,9.5 c 0,-1.1 0.8,-2.1 1.8,-2.3 -0.2,0 -0.3,-0.1 -0.5,-0.1 -1.2,0 -2.3,1.1 -2.3,2.4 0,1.3 1.1,2.3 2.3,2.3 0.2,0 0.3,0 0.5,0 -1,-0.2 -1.8,-1.1 -1.8,-2.3"
   class="st2" />
	<path
   style="fill:#58595b"
   id="path10"
   d="M 26.3,7.1 C 25.8,6.9 25.1,6.8 24.6,6.8 c -2,0 -2.9,1.2 -2.9,2.6 0,1.4 0.9,2.6 2.9,2.6 0.6,0 1.3,-0.1 1.7,-0.3 l 0.4,1.5 c -0.6,0.3 -1.4,0.4 -2.3,0.4 -2.7,0 -4.6,-1.8 -4.6,-4.2 0,-2.4 1.9,-4.2 4.6,-4.2 0.9,0 1.7,0.2 2.4,0.4 z"
   class="st3" />
	<polygon
   style="fill:#58595b"
   id="polygon12"
   points="30,13.5 28.2,13.5 28.2,5.3 30,5.3 30,8.5 33.3,5.3 35.8,5.3 31.6,9.3 35.9,13.5 33.5,13.5 30,10.1 "
   class="st3" />
	<path
   style="fill:#58595b"
   id="path14"
   d="m 44,10 h -2.2 v 2 H 44 c 0.6,0 1,-0.4 1,-1 0.1,-0.6 -0.4,-1 -1,-1 M 43.5,6.8 h -1.7 v 1.9 h 1.6 c 0.8,0 1.1,-0.4 1.1,-0.9 0,-0.6 -0.4,-1 -1,-1 m 0.6,6.7 h -3.3 c -0.5,0 -0.9,-0.4 -0.9,-0.9 V 6.2 c 0,-0.5 0.4,-0.9 0.9,-0.9 h 2.7 c 1.8,0 2.9,0.8 2.9,2.2 0,0.6 -0.3,1.2 -0.8,1.6 0.8,0.4 1.3,1.1 1.3,1.9 0,1.4 -1.2,2.5 -2.8,2.5"
   class="st3" />
	<rect
   style="fill:#58595b"
   id="rect16"
   height="8.1999998"
   width="1.8"
   class="st3"
   y="5.3000002"
   x="48.299999" />
	<path
   style="fill:#58595b"
   id="path18"
   d="m 56.2,6.8 h -2.4 v 2.3 h 2.4 c 0.6,0 1.2,-0.5 1.2,-1.2 0,-0.7 -0.6,-1.1 -1.2,-1.1 m 1.3,6.7 -1.7,-2.9 h -2 v 2.9 H 52 V 6.2 c 0,-0.5 0.4,-0.9 0.9,-0.9 h 3.7 c 1.6,0 2.7,1.2 2.7,2.6 0,1 -0.6,1.9 -1.5,2.3 l 1.9,3.2 h -2.2 z"
   class="st3" />
	<path
   style="fill:#58595b"
   id="path20"
   d="m 61.7,13.5 c -0.5,0 -0.9,-0.4 -0.9,-0.9 V 5.3 h 1.8 v 6.6 H 66 v 1.6 z"
   class="st3" />
	<path
   style="fill:#58595b"
   id="path22"
   d="m 71,7.8 -1,2.6 h 2 z m 2.2,5.7 -0.6,-1.7 h -3 L 69,13.5 h -1.8 l 3.2,-7.7 c 0.1,-0.3 0.5,-0.5 0.8,-0.5 0.3,0 0.6,0.2 0.8,0.5 l 3.2,7.7 z"
   class="st3" />
	<path
   style="fill:#58595b"
   id="path24"
   d="m 82.8,13.8 c -2.4,0 -4.3,-1.7 -4.3,-4.2 0,-2.6 1.9,-4.2 4.4,-4.2 1,0 2,0.2 2.7,0.6 L 85.4,6.6 C 84.6,6.3 83.7,6.1 82.9,6.1 c -2.1,0 -3.7,1.3 -3.7,3.5 0,2.2 1.6,3.6 3.6,3.6 1,0 2,-0.4 2.6,-1 v -2 h 0.7 v 2.2 c -0.7,0.9 -1.9,1.4 -3.3,1.4"
   class="st3" />
	<path
   style="fill:#58595b"
   id="path26"
   d="m 91.3,6.2 h -3.1 v 3.3 h 3.1 c 1,0 1.8,-0.6 1.8,-1.7 0,-1 -0.8,-1.6 -1.8,-1.6 m 2.1,7.5 -2.2,-3.5 h -3 v 3.5 H 87.5 V 5.9 c 0,-0.2 0.2,-0.4 0.4,-0.4 h 3.4 c 1.6,0 2.5,1.1 2.5,2.3 0,1 -0.6,2 -1.8,2.2 l 2.3,3.6 h -0.9 z"
   class="st3" />
	<path
   style="fill:#58595b"
   id="path28"
   d="m 99.1,6.1 c -1.9,0 -3.4,1.5 -3.4,3.6 0,2.1 1.4,3.6 3.4,3.6 1.9,0 3.3,-1.5 3.3,-3.6 0,-2.2 -1.4,-3.6 -3.3,-3.6 m 0,7.7 C 96.7,13.8 95,12 95,9.6 c 0,-2.4 1.7,-4.2 4.1,-4.2 2.4,0 4.1,1.8 4.1,4.2 -0.1,2.4 -1.8,4.2 -4.1,4.2"
   class="st3" />
	<path
   style="fill:#58595b"
   id="path30"
   d="m 107.9,13.8 c -2.1,0 -3.2,-1.5 -3.2,-3.1 V 5.5 h 0.7 v 5.3 c 0,1.4 0.9,2.4 2.5,2.4 1.5,0 2.5,-1 2.5,-2.4 V 5.5 h 0.7 v 5.2 c 0,1.7 -1.1,3.1 -3.2,3.1"
   class="st3" />
	<path
   style="fill:#58595b"
   id="path32"
   d="m 117,6.2 h -3 v 3.5 h 3 C 117.9,9.7 118.7,9 118.7,8 118.8,6.8 118,6.2 117,6.2 m 0,4.1 h -3 v 3.4 h -0.7 V 5.9 c 0,-0.2 0.2,-0.4 0.4,-0.4 h 3.3 c 1.6,0 2.5,1.1 2.5,2.4 0,1.2 -0.9,2.4 -2.5,2.4"
   class="st3" />
</g>
</svg>