<svg id="Layer_1" data-name="Layer 1" xmlns="http://www.w3.org/2000/svg" xmlns:xlink="http://www.w3.org/1999/xlink" viewBox="0 0 107.22 50"><defs><style>.cls-1{fill:none;}.cls-2{clip-path:url(#clip-path);}.cls-3{clip-path:url(#clip-path-2);}.cls-4{clip-path:url(#clip-path-3);}.cls-5{fill:#e96d1f;}</style><clipPath id="clip-path"><rect class="cls-1" x="3.65" y="10.22" width="99.92" height="29.56"/></clipPath><clipPath id="clip-path-2"><rect class="cls-1" x="3.71" y="10.11" width="99.85" height="29.55"/></clipPath><clipPath id="clip-path-3"><rect class="cls-1" x="-2026.24" y="-2952" width="2430.79" height="3145.72"/></clipPath></defs><g id="g128"><g class="cls-2"><g id="g130"><g class="cls-3"><g id="g136"><g class="cls-4"><g id="g142"><g id="g148"><path id="path150" class="cls-5" d="M53.45,23.18v16H49v-16h-2.5v-4.4H49V15.22h4.44v3.56h2.22v4.4H53.45"/></g><path id="path152" class="cls-5" d="M58,39.2H62.4V18.78H58Z"/><path id="path154" class="cls-5" d="M76.63,39.2h4.43V18.78H76.63Z"/><g id="g156"><path id="path158" class="cls-5" d="M87.62,28.92a7.17,7.17,0,0,0,1.54,4.84,5.71,5.71,0,0,0,8.32,0A7,7,0,0,0,99,29a7,7,0,0,0-1.56-4.76,5.26,5.26,0,0,0-4.16-1.8,5.21,5.21,0,0,0-4.12,1.8A6.83,6.83,0,0,0,87.62,28.92Zm-4.53-.09a10.46,10.46,0,0,1,3-7.52,9.62,9.62,0,0,1,7.25-3.11,9.73,9.73,0,0,1,7.29,3.12,10.78,10.78,0,0,1,3,7.68,10.72,10.72,0,0,1-3,7.7,9.86,9.86,0,0,1-7.35,3.08A9.47,9.47,0,0,1,86,36.64a11,11,0,0,1-2.92-7.81"/></g><g id="g160"><path id="path162" class="cls-5" d="M40.35,33.78a5.26,5.26,0,0,1-4.16,1.79A5.24,5.24,0,0,1,32,33.76a7.17,7.17,0,0,1-1.54-4.84,6.83,6.83,0,0,1,1.58-4.66,5.21,5.21,0,0,1,4.12-1.8,5.28,5.28,0,0,1,4.16,1.8,6,6,0,0,1,1.24,2.36h4.62a10.53,10.53,0,0,0-2.73-5.3,9.73,9.73,0,0,0-7.29-3.12,9.62,9.62,0,0,0-7.25,3.11,10.42,10.42,0,0,0-3,7.52,10.89,10.89,0,0,0,2.92,7.8,9.44,9.44,0,0,0,7.23,3.15,9.88,9.88,0,0,0,7.35-3.08,10.37,10.37,0,0,0,2.75-5.34h-4.6a5.9,5.9,0,0,1-1.26,2.42"/></g><g id="g164"><path id="path166" class="cls-5" d="M18,33.78a5.26,5.26,0,0,1-4.16,1.79,5.24,5.24,0,0,1-4.16-1.81,7.17,7.17,0,0,1-1.54-4.84,6.83,6.83,0,0,1,1.58-4.66,5.21,5.21,0,0,1,4.12-1.8A5.26,5.26,0,0,1,18,24.26,7,7,0,0,1,19.59,29,7,7,0,0,1,18,33.78ZM24.12,29a10.78,10.78,0,0,0-3-7.67,9.72,9.72,0,0,0-7.29-3.12,9.62,9.62,0,0,0-7.25,3.11,10.46,10.46,0,0,0-3,7.52,10.93,10.93,0,0,0,2.92,7.81,9.47,9.47,0,0,0,7.23,3.14A9.79,9.79,0,0,0,19.68,38V39.2h4.44V29"/></g><g id="g168"><path id="path170" class="cls-5" d="M73.65,10.22a6,6,0,0,0-5,2.22Q67.35,14,67.35,17.9v.87H64.54v4.41h2.81v16H71.8v-16h2.59V18.77H71.8a8.62,8.62,0,0,1,.41-3.11,1.59,1.59,0,0,1,1.6-.91,2.45,2.45,0,0,1,.58.08V10.29a5,5,0,0,0-.74-.07"/></g></g></g></g></g></g></g></g></svg>