<svg id="Layer_1" data-name="Layer 1" xmlns="http://www.w3.org/2000/svg" viewBox="0 0 103.57 50"><defs><style>.cls-1{fill:#005386;fill-rule:evenodd;}</style></defs><path class="cls-1" d="M18.05,11.33c2.45-.11,5.35.41,5.89,2.14.88,2.83-3.6,7-7.51,9a3.85,3.85,0,0,1-1.78.6c-.23,0-.26-.26-.19-.42a6.91,6.91,0,0,1,1.61-1.56c4.4-3.44,5.83-6,5-7C20.54,13.44,18.31,13,16,13c-.64,0-2.29.15-2.46-.43s2.08-1.11,4.51-1.22m-5.17,13c2.1-.12,4.64.25,6.08,1.34a2.57,2.57,0,0,1,.92,2.69C19.05,31.6,16,35.55,9.12,38.58c-2.19,1-3.9,1.33-4.26,1.07s.74-2.42,1.08-3.14a56.91,56.91,0,0,1,3.79-6.62c.49-.76,1.25-2.08,1.93-2s-.1,1.49-.57,2.38c-.8,1.49-3,5.63-2.26,5.88,1.59.55,9.09-5.15,8-8.33C16.3,26.38,13,26.24,11,26.24c-.93,0-3,.22-3.09-.5s3.1-1.32,5-1.43"/><path class="cls-1" d="M29.09,20.82c1.26.23,2.28.4,2.52.94s-1.11.63-1.8.65c-3.32.06-5.32.13-5.42,1.26-.12,1.44,1.42,2.9,2.95,4.95,1.39,1.87,3,3.71,2.52,5.43-.57,2.14-3.19,2.59-5.69,2.59a30.87,30.87,0,0,1-5.62-.57c-1.18-.23-1-.82-.69-1a22.65,22.65,0,0,1,3.77-.3c1.16-.06,4.51-.06,5-.92.64-1.05-.93-2.85-2.37-4.73-1.79-2.35-3.77-4.78-2.72-6.55,1.35-2.3,5.3-2.14,7.52-1.74m51.65,6.43c2.65,0,3.68-.91,4.1-3L85.47,21c0-.22-.09-.29-.25-.29H83.93l-.35,1.89-.2,1-.17.87a2,2,0,0,1-2.31,1.72c-1.44,0-1.82-.52-1.6-1.72l.08-.39.3-1.48L80,20.67H78.74a.33.33,0,0,0-.36.29l-.63,3.27c-.44,2.31.71,3,3,3ZM35.53,30.8c-.19.91.51,1.35,1.95,2.24s1.94,1.05,1.79,1.56S38.74,35,38,35h-2.8a.49.49,0,0,0-.56.41l-.11.58h3.53c1.62,0,2.63-.1,3-1.09a1.35,1.35,0,0,0-.26-1.48,4,4,0,0,0-1-.72c-2-1.14-2.55-1.28-2.42-1.83.07-.31.29-.32,1.05-.32h2.37a.49.49,0,0,0,.56-.42l.11-.59h-3c-1.7,0-2.72,0-3,1.23Zm15.58,0c-.19.91.52,1.35,2,2.24S55,34.09,54.85,34.6s-.53.44-1.23.44H50.81a.48.48,0,0,0-.55.41l-.12.58h3.54c1.62,0,2.63-.1,3-1.09a1.35,1.35,0,0,0-.26-1.48,3.86,3.86,0,0,0-1-.72c-2-1.14-2.54-1.28-2.42-1.83.08-.31.29-.32,1-.32h2.37a.49.49,0,0,0,.56-.42l.12-.59h-3c-1.7,0-2.72,0-3,1.23Zm39.5,0c-.2.91.51,1.35,2,2.24s1.93,1.05,1.79,1.56-.53.44-1.24.44h-2.8a.49.49,0,0,0-.56.41l-.11.58h3.53c1.62,0,2.63-.1,3-1.09a1.35,1.35,0,0,0-.26-1.48,4,4,0,0,0-1-.72c-2-1.14-2.55-1.28-2.42-1.83.07-.31.29-.32,1.05-.32h2.37a.48.48,0,0,0,.55-.42l.12-.59h-3c-1.69,0-2.71,0-3,1.23ZM67.28,26A1.33,1.33,0,0,0,67,24.54a4.26,4.26,0,0,0-1-.73c-2-1.14-2.54-1.27-2.42-1.82.08-.31.29-.32,1.05-.32H67a.49.49,0,0,0,.56-.42l.12-.6h-3c-1.7,0-2.72,0-3,1.23-.19.91.52,1.34,2,2.24s1.93,1.05,1.78,1.56-.53.43-1.23.43h-2.8a.5.5,0,0,0-.57.42l-.1.58h3.53c1.62,0,2.63-.1,3-1.09Zm-7.52,0a1.35,1.35,0,0,0-.26-1.48,4,4,0,0,0-1-.73c-2-1.14-2.55-1.27-2.42-1.82.06-.31.28-.32,1-.32h2.37a.49.49,0,0,0,.56-.42l.12-.6h-3c-1.7,0-2.72,0-3,1.23-.19.91.52,1.34,2,2.24s1.93,1.05,1.78,1.56-.52.43-1.23.43H53.9a.51.51,0,0,0-.57.42l-.11.58h3.54c1.62,0,2.63-.1,3-1.09Zm32.86-5.35c-.32,0-.49.11-.54.35l-.13.65h2.53l-1,5.44h1.13a.51.51,0,0,0,.57-.46l1-5h2.12c.29,0,.4-.13.45-.4l.12-.6Zm-55.2,1.79a.3.3,0,0,0-.3.22l-.86,4.43h3.81c2.13,0,3.61-.8,4.07-3.26.35-1.84-.45-3.18-2.62-3.18H36.91l0,.08c-.11.43,0,.91.68.91h3.35c1.61,0,1.84.81,1.52,2.23s-.87,2.11-2.08,2.22H38.07l.7-3.65Zm54.3,4c.06-.28,0-.39-.3-.39H88l1-5.22a.19.19,0,0,0-.2-.22H87.41l-1.25,6.44H91.6ZM81.44,29.59H80L77.16,32.1l-1.85-2.51H73.86c-.24,0-.37.15-.42.42l-1.17,6h1.24a.42.42,0,0,0,.45-.37l.87-4.51,1.42,2a.4.4,0,0,0,.34.2h.64a.62.62,0,0,0,.42-.2l2.21-2L79,35.66c0,.24,0,.37.3.37h1.24l1.17-6C81.75,29.74,81.68,29.59,81.44,29.59ZM66,30l-1.16,6H70.8l.13-.65c0-.26,0-.35-.32-.35h-4L67,33.3h3.49a.18.18,0,0,0,.19-.15l.13-.68a.12.12,0,0,0-.13-.16H67.19l.34-1.72h3.81c.18,0,.36,0,.41-.24l.14-.76H66.52A.46.46,0,0,0,66,30Zm17.66,0-1.17,6h5.94l.13-.65c0-.26,0-.35-.31-.35h-4l.33-1.73h3.5a.17.17,0,0,0,.18-.15l.14-.68a.13.13,0,0,0-.13-.16H84.85l.33-1.72H89c.18,0,.36,0,.41-.24l.14-.76H84.18a.46.46,0,0,0-.5.42ZM48,29.81l-.57,2.93c-1,.31-3.58.86-3.18-1.21l.38-1.94H43.29a.3.3,0,0,0-.3.22l-.35,1.77c-.65,3.36,2.53,2.9,4.59,2.27L46.81,36h1.13a.52.52,0,0,0,.58-.46l1.16-6H48.3a.29.29,0,0,0-.28.22Zm17,.38.12-.6H59c-.32,0-.5.11-.55.35l-.12.65h2.53l-1,5.44H60.9a.52.52,0,0,0,.57-.46l1-5h2.11c.3,0,.41-.13.46-.4ZM47.27,23.37c.25-1.25,1-1.7,2.28-1.7s1.74.51,1.51,1.7l-.07.39c0,.14-.09.48-.45.48H47.1l.17-.86Zm-1.94,3.74h1.22l.35-1.88h3.79l-.35,1.88h1.22a.32.32,0,0,0,.35-.29l.63-3.25c.47-2.46-.92-3-2.8-3-2.25,0-3.53.57-4,3l-.63,3.25c-.05.22.08.29.24.29Zm25.59-3.74c.24-1.25,1-1.7,2.27-1.7s1.75.51,1.52,1.7l-.07.39c0,.14-.09.48-.45.48H70.75l.17-.86ZM69,27.11h1.21l.36-1.88h3.79L74,27.11H75.2a.34.34,0,0,0,.36-.29l.63-3.25c.46-2.46-.93-3-2.81-3-2.24,0-3.52.57-4,3l-.63,3.25c0,.22.09.29.25.29Z"/></svg>