<svg id="Layer_1" data-name="Layer 1" xmlns="http://www.w3.org/2000/svg" viewBox="0 0 141.83 50"><defs><style>.cls-1{fill:#3780ff;}.cls-2{fill:#38b137;}.cls-3{fill:#fa3913;}.cls-4{fill:#fcbd06;}</style></defs><path class="cls-1" d="M18.94,2.49h1.23A16.72,16.72,0,0,1,31.62,7.33c-1.11,1.13-2.24,2.22-3.33,3.35a12.51,12.51,0,0,0-21,7.55,12.88,12.88,0,0,0,2.8,10,12.4,12.4,0,0,0,9,4.44,12,12,0,0,0,9-3.08,9.79,9.79,0,0,0,3-6.38c-3.84,0-7.69,0-11.53,0V18.39H35.72c.83,5.11-.37,10.87-4.26,14.53a15.82,15.82,0,0,1-9.83,4.42,18,18,0,0,1-10.35-2A17.79,17.79,0,0,1,3,25.89a17,17,0,0,1-.11-11.55A17.62,17.62,0,0,1,9.27,5.89,18.17,18.17,0,0,1,18.94,2.49Z"/><path class="cls-2" d="M111.73,3.69h5V36.74c-1.65,0-3.31,0-5,0,0-11,0-22,0-33Z"/><path class="cls-3" d="M46.73,15.15a11.62,11.62,0,0,1,8.89,1.9A10.83,10.83,0,0,1,60,24,11.32,11.32,0,0,1,39.81,32.9a11.58,11.58,0,0,1-1.52-10.51,11,11,0,0,1,8.44-7.24m.7,4.4a6.22,6.22,0,0,0-3.24,2.05,7.33,7.33,0,0,0,.37,9.56,6.13,6.13,0,0,0,5.51,1.71,6.23,6.23,0,0,0,4.3-3.17A7.31,7.31,0,0,0,53.12,21a6.23,6.23,0,0,0-5.69-1.45Z"/><path class="cls-4" d="M71.26,15.15a11.52,11.52,0,0,1,9.93,2.75,11.49,11.49,0,0,1,1.09,15.37A11.31,11.31,0,0,1,73,37.41a11.18,11.18,0,0,1-8.66-4.51,11.67,11.67,0,0,1-1.45-10.74,11,11,0,0,1,8.37-7m.7,4.4a6.31,6.31,0,0,0-3.24,2A7.36,7.36,0,0,0,69,31.05a6.19,6.19,0,0,0,5.65,1.82,6.33,6.33,0,0,0,4.3-3.17A7.34,7.34,0,0,0,77.63,21,6.2,6.2,0,0,0,72,19.55Z"/><path class="cls-1" d="M92.07,16.49a9.43,9.43,0,0,1,9.07-.69,8.65,8.65,0,0,1,2.36,1.73c0-.62,0-1.27,0-1.92,1.55,0,3.1,0,4.67,0V36c0,3.08-.81,6.34-3,8.59-2.43,2.48-6.15,3.24-9.51,2.73a10.77,10.77,0,0,1-8.1-6.46c1.39-.67,2.85-1.2,4.28-1.82A6.38,6.38,0,0,0,96.35,43a6,6,0,0,0,5.78-1.85c1.44-1.76,1.44-4.16,1.37-6.32a8.19,8.19,0,0,1-3.78,2.32,10.19,10.19,0,0,1-9.23-2.38,11.39,11.39,0,0,1,1.58-18.24m4.79,3a6.09,6.09,0,0,0-3.64,2.11,7.39,7.39,0,0,0,0,9.28A6.08,6.08,0,0,0,98.45,33,5.9,5.9,0,0,0,102.87,30a7.83,7.83,0,0,0-.78-8.75,5.72,5.72,0,0,0-5.23-1.83Z"/><path class="cls-3" d="M122.63,17.67a10.45,10.45,0,0,1,10.63-2.1c3.37,1.27,5.53,4.48,6.61,7.79-5,2.09-10,4.15-15,6.23a6,6,0,0,0,3.2,3,6.49,6.49,0,0,0,6.1-.88,9.61,9.61,0,0,0,1.72-1.83c1.27.86,2.54,1.69,3.82,2.54a11.33,11.33,0,0,1-17.89,1.14,11.87,11.87,0,0,1,.85-15.9M125.11,22A6.62,6.62,0,0,0,124,25.84q5-2.09,10.07-4.19a4.19,4.19,0,0,0-3.26-2.29A5.94,5.94,0,0,0,125.11,22Z"/></svg>