<svg id="Layer_1" data-name="Layer 1" xmlns="http://www.w3.org/2000/svg" viewBox="0 0 96 50"><defs><style>.cls-1{fill:#1f70c1;}</style></defs><path class="cls-1" d="M1.79,6.52V9.05h18V6.52Zm20.54,0V9.05H48a9.72,9.72,0,0,0-6.08-2.53ZM53,6.52V9.05H68.5l-.92-2.53Zm26.63,0L78.7,9.05H94.07V6.52ZM1.79,11.44V14h18V11.44Zm20.54,0V14H50.94A6.71,6.71,0,0,0,50,11.44Zm30.66,0V14H70.2l-.85-2.52Zm24.79,0L76.93,14H94.07V11.44ZM7,16.35v2.54h7.79V16.35Zm20.54,0v2.54h7.79V16.35Zm15.37,0v2.54h7.79a8.72,8.72,0,0,0,.49-2.54Zm15.29,0v2.54H72l-.92-2.54Zm17.92,0-.92,2.54H89V16.35ZM7,21.28v2.53h7.79V21.28Zm20.54,0v2.53H47.4a8.57,8.57,0,0,0,2.19-2.53Zm30.66,0v2.53H66V22.4l.5,1.41H80.72l.53-1.41v1.41H89V21.28H74.41l-.77,2.14-.78-2.14ZM7,26.19v2.53h7.79V26.19Zm20.54,0v2.53H49.59a8.71,8.71,0,0,0-2.19-2.53Zm30.66,0v2.53H66V26.19Zm9.21,0,.94,2.53H79l.89-2.53Zm13.88,0v2.53H89V26.19ZM7,31.11v2.53h7.79V31.11Zm20.54,0v2.53h7.79V31.11Zm15.37,0v2.53h8.28a8.71,8.71,0,0,0-.49-2.53Zm15.29,0v2.53H66V31.11Zm11,0,.91,2.53h7.17l.92-2.53Zm12.11,0v2.53H89V31.11ZM1.93,36v2.53h18V36Zm20.4,0v2.53H50A6.74,6.74,0,0,0,50.94,36Zm30.8,0v2.53H66V36Zm17.78,0,.94,2.53H75.5L76.38,36Zm10.34,0v2.53h13V36ZM1.93,41v2.53h18V41Zm20.4,0v2.53H41.88A9.72,9.72,0,0,0,48,41Zm30.8,0v2.53H66V41Zm19.56,0,.9,2.53h.16L74.66,41Zm8.56,0v2.53h13V41Z"/></svg>