<svg id="Layer_1" data-name="Layer 1" xmlns="http://www.w3.org/2000/svg" viewBox="0 0 52.98 50"><defs><style>.cls-1{fill:#b83a2d;}.cls-1,.cls-2{fill-rule:evenodd;}.cls-2{fill:#fff;}.cls-3{fill:#414042;}</style></defs><path class="cls-1" d="M49.28,49.14H.89C.83,48.91.83.94.89.72H49.28C49.34,1,49.34,48.92,49.28,49.14ZM32.33,31c.46-.06.92-.09,1.37-.18a5.23,5.23,0,0,0,2.66-1.36,5.24,5.24,0,0,0-1.54-8.5,6.26,6.26,0,0,0-4.39-.21A5,5,0,0,0,28,22.34a5.15,5.15,0,0,0-1.1,4.17,4.84,4.84,0,0,0,2.34,3.57A6.3,6.3,0,0,0,32.33,31ZM12.85,21.41V21c0-.3,0-.32-.32-.32h-2.4c-.28,0-.3,0-.3.3v9.4c0,.28,0,.31.3.31h2.45c.38,0,.38,0,.38-.38V25.85a5.48,5.48,0,0,1,.12-1.34,1.53,1.53,0,0,1,1-1.22,2.26,2.26,0,0,1,1.21,0,1.07,1.07,0,0,1,.71.55,2.47,2.47,0,0,1,.22.59,6.7,6.7,0,0,1,.1,1.09c0,1.6,0,3.2,0,4.8,0,.07,0,.14,0,.21a.15.15,0,0,0,.17.17h2.78c.11,0,.18-.06.18-.18v-.2c0-.83,0-1.65,0-2.48,0-1.1,0-2.21,0-3.32a6.37,6.37,0,0,0-.33-2,2.84,2.84,0,0,0-2.25-2,5.81,5.81,0,0,0-2.49,0,2.67,2.67,0,0,0-1.43.78Zm8.2,3h0v6c0,.29,0,.32.32.32h2.52c.27,0,.3,0,.3-.29v-7a.15.15,0,0,1,.15-.15h1.83c.27,0,.3,0,.3-.29v-2c0-.2,0-.23-.25-.24a1.33,1.33,0,0,0-.2,0H24.43c-.23,0-.25,0-.25-.25,0-.47,0-.94,0-1.4a4.48,4.48,0,0,1,.08-.64,1,1,0,0,1,.85-.8,2.88,2.88,0,0,1,1.27.09c.24.08.28,0,.29-.21l.12-2.11c0-.24,0-.28-.26-.32a7.37,7.37,0,0,0-.93-.11,6.56,6.56,0,0,0-2.38.21A2.73,2.73,0,0,0,21.31,17a5.24,5.24,0,0,0-.26,1.66C21,20.54,21.05,22.46,21.05,24.38Zm21.16-2.95c0-.11,0-.15,0-.2s0-.22,0-.33,0-.22-.24-.23h-2.5c-.42,0-.42,0-.42.4q0,4.62,0,9.22v.2a.16.16,0,0,0,.17.18h2.61c.36,0,.37,0,.37-.37v-4a7.33,7.33,0,0,1,.14-1.55,2.1,2.1,0,0,1,2-1.8,4.33,4.33,0,0,1,1.52.12c.21.05.26,0,.26-.17,0-.77,0-1.54,0-2.3,0-.19,0-.23-.22-.24s-.45,0-.67,0a6,6,0,0,0-1.92.35A3.13,3.13,0,0,0,42.21,21.43ZM8.26,25.67h0V20.85a.17.17,0,0,0-.18-.18H5.5c-.38,0-.38,0-.38.38v9.29c0,.33,0,.35.35.35H8c.26,0,.29,0,.29-.29Zm0-10.34L8,15.42,5.31,17.28a.37.37,0,0,0-.19.36v1.17c0,.25,0,.28.28.29H8c.26,0,.29,0,.29-.31V15.56C8.26,15.5,8.24,15.44,8.23,15.33Z"/><path class="cls-2" d="M32.33,31a6.3,6.3,0,0,1-3.14-.88,4.84,4.84,0,0,1-2.34-3.57A5.15,5.15,0,0,1,28,22.34a5,5,0,0,1,2.48-1.63,6.26,6.26,0,0,1,4.39.21,5.24,5.24,0,0,1,1.54,8.5,5.23,5.23,0,0,1-2.66,1.36C33.25,30.87,32.79,30.9,32.33,31Zm2.43-5.29v-.23l0-.3a2.18,2.18,0,0,0-1.4-1.78,2.82,2.82,0,0,0-1.88,0,2,2,0,0,0-1.35,1.32,3,3,0,0,0,0,2.08A2,2,0,0,0,31.34,28a2.89,2.89,0,0,0,1.88.05,2.08,2.08,0,0,0,1.33-1.21A2.67,2.67,0,0,0,34.76,25.67Z"/><path class="cls-2" d="M12.85,21.41l.11-.06a2.67,2.67,0,0,1,1.43-.78,5.81,5.81,0,0,1,2.49,0,2.84,2.84,0,0,1,2.25,2,6.37,6.37,0,0,1,.33,2c0,1.11,0,2.22,0,3.32,0,.83,0,1.65,0,2.48v.2c0,.12-.07.17-.18.18H16.51a.15.15,0,0,1-.17-.17c0-.07,0-.14,0-.21,0-1.6,0-3.2,0-4.8a6.7,6.7,0,0,0-.1-1.09,2.47,2.47,0,0,0-.22-.59,1.07,1.07,0,0,0-.71-.55,2.26,2.26,0,0,0-1.21,0,1.53,1.53,0,0,0-1,1.22A5.48,5.48,0,0,0,13,25.85V30.3c0,.38,0,.38-.38.38H10.13c-.28,0-.3,0-.3-.31V21c0-.28,0-.3.3-.3h2.4c.3,0,.31,0,.32.32Z"/><path class="cls-2" d="M21.05,24.38c0-1.92,0-3.84,0-5.77A5.24,5.24,0,0,1,21.31,17a2.73,2.73,0,0,1,1.91-1.82,6.56,6.56,0,0,1,2.38-.21,7.37,7.37,0,0,1,.93.11c.25,0,.27.08.26.32l-.12,2.11c0,.26-.05.29-.29.21a2.88,2.88,0,0,0-1.27-.09,1,1,0,0,0-.85.8,4.48,4.48,0,0,0-.08.64c0,.46,0,.93,0,1.4,0,.23,0,.25.25.25H26a1.33,1.33,0,0,1,.2,0c.21,0,.24,0,.25.24v2c0,.26,0,.29-.3.29H24.33a.15.15,0,0,0-.15.15v7.05c0,.26,0,.29-.3.29H21.36c-.3,0-.32,0-.32-.32v-6Z"/><path class="cls-2" d="M42.21,21.43a3.13,3.13,0,0,1,1.09-.66,6,6,0,0,1,1.92-.35c.22,0,.44,0,.67,0s.22.05.22.24c0,.76,0,1.53,0,2.3,0,.19,0,.22-.26.17A4.33,4.33,0,0,0,44.33,23a2.1,2.1,0,0,0-2,1.8,7.33,7.33,0,0,0-.14,1.55v4c0,.36,0,.37-.37.37H39.21a.16.16,0,0,1-.17-.18v-.2q0-4.61,0-9.22c0-.4,0-.4.42-.4H42c.19,0,.23,0,.24.23s0,.22,0,.33S42.2,21.32,42.21,21.43Z"/><path class="cls-2" d="M8.26,25.67v4.72c0,.26,0,.29-.29.29H5.47c-.34,0-.35,0-.35-.35V21.05c0-.38,0-.38.38-.38H8.08a.17.17,0,0,1,.18.18v4.82Z"/><path class="cls-2" d="M8.23,15.33c0,.11,0,.17,0,.23v3.23c0,.27,0,.3-.29.31H5.4c-.25,0-.28,0-.28-.29V17.64a.37.37,0,0,1,.19-.36L8,15.42Z"/><path class="cls-1" d="M34.76,25.67a2.67,2.67,0,0,1-.21,1.15A2.08,2.08,0,0,1,33.22,28,2.89,2.89,0,0,1,31.34,28a2,2,0,0,1-1.23-1.25,3,3,0,0,1,0-2.08,2,2,0,0,1,1.35-1.32,2.82,2.82,0,0,1,1.88,0,2.18,2.18,0,0,1,1.4,1.78l0,.3Z"/><path class="cls-3" d="M50.13,48.07h-.3V48h.73v.11h-.3v.87h-.13Z"/><path class="cls-3" d="M51.5,48.51a3,3,0,0,1,0-.42h0c0,.11-.07.23-.12.37l-.18.48h-.09l-.16-.47c0-.14-.09-.27-.12-.38h0c0,.12,0,.28,0,.43l0,.42h-.12l.06-1h.17l.16.47a3,3,0,0,1,.1.33h0c0-.09.06-.2.1-.33l.18-.47h.16l.06,1h-.13Z"/></svg>