<svg id="Layer_1" data-name="Layer 1" xmlns="http://www.w3.org/2000/svg" xmlns:xlink="http://www.w3.org/1999/xlink" viewBox="0 0 158.17 50"><defs><style>.cls-1{fill:none;}.cls-2{clip-path:url(#clip-path);}.cls-3{fill:#ffcd39;}.cls-4{fill:#107db9;}.cls-5{fill:#0fa45b;}.cls-6{fill:#cd2a40;}.cls-7{clip-path:url(#clip-path-2);}</style><clipPath id="clip-path"><rect class="cls-1" x="143.38" y="12.19" width="11.34" height="22.15"/></clipPath><clipPath id="clip-path-2"><rect class="cls-1" x="3.45" y="19.21" width="139.93" height="19.26"/></clipPath></defs><g id="surface1"><g class="cls-2"><path class="cls-3" d="M147.68,12.28c8.85,6.14,5.14,20.32-4.25,21.85,12,0,16-16.43,4.25-21.85"/></g><path class="cls-4" d="M138.28,12.19c10.48-1.54,14.81,11.38,10.21,17.34,7.59-7.59,1.53-21.14-10.21-17.34"/><path class="cls-5" d="M132.14,18.42c5.15-7.68,15.9-3,17,4.79,1.27-9.49-11.38-14.82-17-4.79"/><path class="cls-6" d="M131.87,24.2c1.27-7.95,11.56-8.76,15.36-3.16-3.08-7.95-15.18-7-15.36,3.16"/><g class="cls-7"><path d="M135.94,27.63a3.44,3.44,0,0,1,.54-1.44,2.59,2.59,0,0,1,1.08-.91,3.62,3.62,0,0,1,1.36-.27,3.18,3.18,0,0,1,1.26.27,2.8,2.8,0,0,1,.9.91,2.58,2.58,0,0,1,.36,1.53Zm-2.17,1.27a7.74,7.74,0,0,0,.36,2.16,5.47,5.47,0,0,0,1.08,1.72A5.31,5.31,0,0,0,136.93,34a6.28,6.28,0,0,0,2.26.45,3.07,3.07,0,0,0,1.35-.18,8.16,8.16,0,0,0,1.09-.36,6.53,6.53,0,0,0,.81-.45,5.33,5.33,0,0,0,.54-.36l.18-.18-.81-1.45-.18.09c-.18.1-.27.19-.45.28a4.06,4.06,0,0,1-.64.36,2.86,2.86,0,0,1-.81.27,3.37,3.37,0,0,1-1,.09,3.66,3.66,0,0,1-1.36-.27,3.11,3.11,0,0,1-1.08-.63,3.57,3.57,0,0,1-.81-1.09,6.35,6.35,0,0,1-.37-1.53h7.59v-.91a6,6,0,0,0-.27-1.89,4.94,4.94,0,0,0-.81-1.54,3.62,3.62,0,0,0-1.45-1.08,4.33,4.33,0,0,0-2-.36,5.3,5.3,0,0,0-2.08.36A5.15,5.15,0,0,0,135,24.65,5.47,5.47,0,0,0,134,26.37C133.86,27.27,133.77,28.08,133.77,28.9ZM122,34.13h2v-5.6c0-.27.09-.45.09-.63a3.38,3.38,0,0,1,.73-1.35,3,3,0,0,1,1.17-.91,2.61,2.61,0,0,1,1.45-.27,2.41,2.41,0,0,1,1,.18,1.19,1.19,0,0,1,.63.55,1.45,1.45,0,0,1,.27.81c0,.27.09.63.09,1.08v6.23h2V27.54a4.08,4.08,0,0,0-.9-3,3.56,3.56,0,0,0-2.71-1,4.26,4.26,0,0,0-1.54.27,4.85,4.85,0,0,0-1.17.63l-.81.81a3.21,3.21,0,0,0-.46.82V24h-1.89Zm-5.15,0h2V23.66h-2Zm0-12.55h2V19.5h-2ZM109,32.24a2.88,2.88,0,0,1-2.71-1.72,4.19,4.19,0,0,1-.36-1.9,4.17,4.17,0,0,1,.36-1.89,2.61,2.61,0,0,1,1-1.18,2.79,2.79,0,0,1,1.53-.45,2.53,2.53,0,0,1,1.18.18,1.87,1.87,0,0,1,.9.54,3.26,3.26,0,0,1,.63,1.09,4.54,4.54,0,0,1,.27,1.71,4.56,4.56,0,0,1-.27,1.72,3.11,3.11,0,0,1-.63,1.08,1.81,1.81,0,0,1-.9.55A1.85,1.85,0,0,1,109,32.24ZM105.59,36,105,37.66c.36.18.72.27,1.08.45a5.28,5.28,0,0,0,1.27.27,5.94,5.94,0,0,0,1.26.09,4.29,4.29,0,0,0,1.54-.18,4,4,0,0,0,1.44-.54,5.82,5.82,0,0,0,1.17-.91,3.3,3.3,0,0,0,.82-1.35,5.47,5.47,0,0,0,.27-1.81V23.75h-1.9V25.1a.28.28,0,0,0-.09-.18c-.09-.09-.18-.27-.36-.36a3.81,3.81,0,0,0-.63-.45,2.7,2.7,0,0,0-.9-.36,5.6,5.6,0,0,0-1.36-.18,4.25,4.25,0,0,0-1.9.36A4.33,4.33,0,0,0,105.23,25a4.77,4.77,0,0,0-.9,1.63,7.67,7.67,0,0,0-.27,2.07,8.38,8.38,0,0,0,.27,2.17,6.28,6.28,0,0,0,.9,1.72,3.39,3.39,0,0,0,1.44,1.08,4.66,4.66,0,0,0,2,.45,4.23,4.23,0,0,0,1.9-.45,2.93,2.93,0,0,0,1.17-1.17V34a3,3,0,0,1-.27,1.36,3.52,3.52,0,0,1-.72.9,3,3,0,0,1-1.09.54,3.06,3.06,0,0,1-1.26.18,4,4,0,0,1-1.08-.09c-.36-.09-.64-.18-.91-.27a4.39,4.39,0,0,1-.63-.27C105.68,36,105.59,36,105.59,36Zm-13.37-1.9h2v-5.6c0-.27.09-.45.09-.63A3.25,3.25,0,0,1,95,26.55a3.05,3.05,0,0,1,1.18-.91,2.59,2.59,0,0,1,1.44-.27,2.46,2.46,0,0,1,1,.18,1.19,1.19,0,0,1,.63.55,1.45,1.45,0,0,1,.27.81c0,.27.09.63.09,1.08v6.23h2V27.54a4,4,0,0,0-.91-3,3.54,3.54,0,0,0-2.71-1,4.2,4.2,0,0,0-1.53.27,4.85,4.85,0,0,0-1.17.63l-.82.81a3.5,3.5,0,0,0-.45.82V24h-1.9Zm-11.47,0h8.86v-1.8H82.83v-4.7h5.24V25.82H82.83V21.31h6.41V19.5H80.75Zm-9.93-6.59a4.52,4.52,0,0,1,.45-1.17,5.93,5.93,0,0,1,.81-.73,2.56,2.56,0,0,1,1.18-.27,2.4,2.4,0,0,1,1.08.27,3,3,0,0,1,.73.73,2.25,2.25,0,0,1,.27,1.17ZM68.11,28.9a5.74,5.74,0,0,0,.36,2.16,5.32,5.32,0,0,0,1.09,1.72A4.8,4.8,0,0,0,71.36,34a6.43,6.43,0,0,0,2.35.45,3.81,3.81,0,0,0,1.45-.18c.45-.09.81-.27,1.17-.36a8.36,8.36,0,0,0,.9-.45,5.33,5.33,0,0,0,.54-.36l.19-.18L77,31l-.18.09a2,2,0,0,1-.45.27,3.89,3.89,0,0,1-.63.37l-.82.27a3.37,3.37,0,0,1-1,.09,3.87,3.87,0,0,1-1.08-.18,2.11,2.11,0,0,1-1-.55,3.52,3.52,0,0,1-.72-.9,5.82,5.82,0,0,1-.36-1.17H78v-1a7,7,0,0,0-.28-2,5.65,5.65,0,0,0-.9-1.63,4.33,4.33,0,0,0-1.44-1.08,4.65,4.65,0,0,0-2-.36,5.49,5.49,0,0,0-2.17.45,6.85,6.85,0,0,0-1.71,1.08,6.5,6.5,0,0,0-1.09,1.72A10.61,10.61,0,0,0,68.11,28.9ZM61,31.7a2.5,2.5,0,0,1-1.45-.46,2.65,2.65,0,0,1-.9-1.08,4.72,4.72,0,0,1-.27-1.63A4.2,4.2,0,0,1,58.63,27a1.81,1.81,0,0,1,.81-1,2.12,2.12,0,0,1,1.36-.37,1.78,1.78,0,0,1,1,.18,4.17,4.17,0,0,1,.81.46,1.87,1.87,0,0,1,.54.9,5.89,5.89,0,0,1,0,2.89,2.15,2.15,0,0,1-.54,1,2.29,2.29,0,0,1-.81.55C61.52,31.61,61.25,31.7,61,31.7Zm-3.53,3.79-.81,2.08a5.34,5.34,0,0,0,1.09.45,6.31,6.31,0,0,0,1.26.27,6.81,6.81,0,0,0,1.35.09A5,5,0,0,0,62,38.2a4.43,4.43,0,0,0,1.53-.54,4.32,4.32,0,0,0,1.27-1,3.39,3.39,0,0,0,.81-1.35,6,6,0,0,0,.27-1.9V23.57H63.41v1.08h-.09l-.09-.18-.36-.36c-.18-.09-.36-.27-.54-.36a9.34,9.34,0,0,0-.9-.36,4.57,4.57,0,0,0-1.18-.18,4.29,4.29,0,0,0-2,.45,4.37,4.37,0,0,0-1.45,1.08,5.65,5.65,0,0,0-.9,1.63,8.11,8.11,0,0,0,0,4.15,6.28,6.28,0,0,0,.9,1.72,3.64,3.64,0,0,0,1.45,1.17,4.58,4.58,0,0,0,2,.45,3.81,3.81,0,0,0,1.81-.36,3.3,3.3,0,0,0,1.17-1.08v1.26A2.53,2.53,0,0,1,63,34.86a5,5,0,0,1-.63.81,2.82,2.82,0,0,1-.9.45,4.8,4.8,0,0,1-1.18.09,4,4,0,0,1-1.08-.09c-.36-.09-.63-.18-.9-.27a5.15,5.15,0,0,1-.64-.27C57.45,35.58,57.45,35.49,57.45,35.49ZM47.07,31a1,1,0,0,1,.27-.72A1.61,1.61,0,0,1,48,29.8a2.86,2.86,0,0,1,.81-.27,3.13,3.13,0,0,1,.91-.09H51v.27a4.64,4.64,0,0,1-.18,1,2.51,2.51,0,0,1-.54.91c-.27.27-.45.54-.81.63a1.85,1.85,0,0,1-1,.27,2.66,2.66,0,0,1-.9-.18.81.81,0,0,1-.54-.54A2.43,2.43,0,0,0,47.07,31Zm-2.62.09a3,3,0,0,0,.27,1.36,3.1,3.1,0,0,0,.81,1.08,3.31,3.31,0,0,0,1.09.63A3.61,3.61,0,0,0,48,34.4a5.48,5.48,0,0,0,1.27-.18,2.82,2.82,0,0,0,.9-.45,3.91,3.91,0,0,0,.63-.54c.18-.18.27-.36.36-.45a.28.28,0,0,0,.09-.18v1.62h2.44V27.63a4.45,4.45,0,0,0-.54-2.26,3.37,3.37,0,0,0-1.54-1.44,6.46,6.46,0,0,0-3.7-.45c-.45.09-.81.18-1.17.27a3.64,3.64,0,0,0-.82.36c-.27.09-.45.27-.54.27a.28.28,0,0,1-.18.09l1,1.9a1.07,1.07,0,0,1,.28-.18,4.79,4.79,0,0,1,.63-.37,9.34,9.34,0,0,1,.9-.36,4.52,4.52,0,0,1,1.08-.18,2.3,2.3,0,0,1,1.09.18,1.37,1.37,0,0,1,.72.55,1.92,1.92,0,0,1,.27,1.08v.18H49.69a8.09,8.09,0,0,0-1.36.18,7.5,7.5,0,0,0-1.35.36,8.32,8.32,0,0,0-1.27.63,3.25,3.25,0,0,0-.9,1A3.79,3.79,0,0,0,44.45,31.06ZM32.62,34.13h2.62V28.62a2.12,2.12,0,0,1,.18-.72A3,3,0,0,1,36,26.82,4.77,4.77,0,0,1,37,26a2.11,2.11,0,0,1,1.27-.28A1.84,1.84,0,0,1,39.3,26a1.4,1.4,0,0,1,.54.72,2.12,2.12,0,0,1,.09,1.08V34h2.62V27.27A5.3,5.3,0,0,0,42.1,25a3.05,3.05,0,0,0-1.26-1.35,4.37,4.37,0,0,0-2-.45,3.82,3.82,0,0,0-1.45.27,3,3,0,0,0-1.08.54c-.27.27-.54.45-.81.72a8.3,8.3,0,0,0-.45.72V23.39H32.53ZM23.41,31a1,1,0,0,1,.27-.72,1.61,1.61,0,0,1,.63-.45,2.86,2.86,0,0,1,.81-.27,3.1,3.1,0,0,1,.91-.09h1.35v.27a4.64,4.64,0,0,1-.18,1,1.94,1.94,0,0,1-.54.91c-.27.27-.45.54-.82.63a1.81,1.81,0,0,1-1,.27,2.66,2.66,0,0,1-.9-.18.81.81,0,0,1-.54-.54Zm-2.71.09A3,3,0,0,0,21,32.42a3.1,3.1,0,0,0,.81,1.08,3.37,3.37,0,0,0,1.08.63,3.7,3.7,0,0,0,1.36.27,5.31,5.31,0,0,0,1.26-.18,3,3,0,0,0,.91-.45,3.91,3.91,0,0,0,.63-.54c.18-.18.27-.36.36-.45a.28.28,0,0,0,.09-.18v1.62h2.44V27.63a4.45,4.45,0,0,0-.54-2.26,3.42,3.42,0,0,0-1.54-1.44,6.46,6.46,0,0,0-3.7-.45c-.45.09-.81.18-1.18.27a3.53,3.53,0,0,0-.81.36c-.27.09-.45.27-.54.27a.28.28,0,0,1-.18.09l1,1.9a1.11,1.11,0,0,1,.27-.18,4.37,4.37,0,0,1,.64-.37,9.34,9.34,0,0,1,.9-.36,4.52,4.52,0,0,1,1.08-.18,2.32,2.32,0,0,1,1.09.18,1.37,1.37,0,0,1,.72.55,1.92,1.92,0,0,1,.27,1.08v.18H25.94a8,8,0,0,0-1.36.18,5.92,5.92,0,0,0-1.35.36,7.89,7.89,0,0,0-1.27.63,3.25,3.25,0,0,0-.9,1A13.42,13.42,0,0,0,20.7,31.06ZM3.45,34.13H6.16l.63-8.21V23.57a.7.7,0,0,0,.09.27c.09.18.09.36.18.54a6.2,6.2,0,0,0,.27.72,6.2,6.2,0,0,0,.27.72L10,31.51H12.3l2.35-5.69c.09-.27.18-.45.27-.72a6.2,6.2,0,0,1,.27-.72,1.87,1.87,0,0,0,.18-.54.39.39,0,0,1,.09-.27v2.35l.63,8.21h2.62L17.54,19.41h-2.8l-2.89,7.23c-.09.27-.19.45-.28.72s-.18.45-.27.72a3.75,3.75,0,0,1-.18.54c0,.19-.09.19-.09.28a.76.76,0,0,0-.09-.28c0-.18-.09-.27-.18-.54s-.18-.45-.27-.72-.18-.45-.27-.72L7.33,19.41H4.62L3.45,34.13"/></g></g></svg>