<svg id="Layer_1" data-name="Layer 1" xmlns="http://www.w3.org/2000/svg" viewBox="0 0 195.32 50"><defs><style>.cls-1{fill:#737374;}.cls-2{fill:#ee5225;}.cls-3{fill:#80ba42;}.cls-4{fill:#319ed8;}.cls-5{fill:#fbb615;}</style></defs><path class="cls-1" d="M68.55,28.13l-1.13,3.24h0a27.93,27.93,0,0,0-1.07-3.2L60.27,12.65H54.33V37.26h3.93V18.79c0-.65-.11-1.17-.12-1.58h.09c.2.93.4,1.64.55,2.11l7.24,18h2.75L76,19.17a19.36,19.36,0,0,0,.49-2h.09c-.09,1.8-.18,3.45-.19,4.43V37.32h4.18V12.71h-5.7L68.55,28.13"/><polyline class="cls-1" points="84.46 37.32 88.55 37.32 88.55 23.97 88.55 19.64 84.46 19.64 84.46 30.47 84.46 37.32"/><path class="cls-1" d="M86.55,12.13a2.44,2.44,0,0,0-1.74.69,2.37,2.37,0,0,0-.07,3.36l.07.08a2.61,2.61,0,0,0,3.5,0A2.24,2.24,0,0,0,89,14.55a2.42,2.42,0,0,0-2.42-2.42h-.06"/><path class="cls-1" d="M103,19.45a12.53,12.53,0,0,0-2.29-.24,10.15,10.15,0,0,0-5,1.21,8,8,0,0,0-3.27,3.44,11,11,0,0,0-1.13,5.08,9.56,9.56,0,0,0,1.09,4.56,8,8,0,0,0,3.07,3.14A8.9,8.9,0,0,0,100,37.76a9.59,9.59,0,0,0,4.92-1.19h0V32.76l-.14.07a7.68,7.68,0,0,1-2,1.06,6,6,0,0,1-2,.39A5,5,0,0,1,97,32.76a5.94,5.94,0,0,1-1.45-4.21A6.32,6.32,0,0,1,97,24.2a5,5,0,0,1,3.82-1.6,6.49,6.49,0,0,1,3.9,1.37l.17.13v-4h0a7.35,7.35,0,0,0-1.88-.65"/><path class="cls-1" d="M116.46,19.34a4.22,4.22,0,0,0-2.74,1,5.75,5.75,0,0,0-1.56,2.38h0V19.64h-4.08V37.32h4.08v-9a6.47,6.47,0,0,1,1-3.75,3.16,3.16,0,0,1,2.65-1.45,5.07,5.07,0,0,1,1.22.18,3.28,3.28,0,0,1,.95.39l.18.13V19.59h0a4,4,0,0,0-1.61-.25"/><path class="cls-1" d="M130.81,32.83a4.14,4.14,0,0,1-3.43,1.45,4.34,4.34,0,0,1-3.51-1.45,6.48,6.48,0,0,1-1.27-4.25,6.75,6.75,0,0,1,1.27-4.35,4.27,4.27,0,0,1,3.48-1.53,4.16,4.16,0,0,1,3.38,1.45A6.54,6.54,0,0,1,132,28.49a7,7,0,0,1-1.17,4.34m-3.25-13.62a8.92,8.92,0,0,0-6.76,2.55,9.58,9.58,0,0,0-2.43,6.93,9.15,9.15,0,0,0,2.37,6.62,8.62,8.62,0,0,0,6.4,2.43,8.71,8.71,0,0,0,6.64-2.56,9.62,9.62,0,0,0,2.43-6.86,9.38,9.38,0,0,0-2.29-6.68,8.38,8.38,0,0,0-6.36-2.43"/><path class="cls-1" d="M145.29,26.94a8.71,8.71,0,0,1-2.45-1.29,1.8,1.8,0,0,1-.49-1.36A1.44,1.44,0,0,1,143,23a2.69,2.69,0,0,1,1.75-.51,7.13,7.13,0,0,1,2.1.32,7,7,0,0,1,1.84.87l.16.12V20h0a8.7,8.7,0,0,0-1.87-.54,10.69,10.69,0,0,0-2-.22,7.43,7.43,0,0,0-4.79,1.45,4.84,4.84,0,0,0-1.87,3.92,5.39,5.39,0,0,0,.41,2.21,4.27,4.27,0,0,0,1.23,1.63,10.71,10.71,0,0,0,2.52,1.45,18.05,18.05,0,0,1,2.08,1,2.89,2.89,0,0,1,.93.77,1.81,1.81,0,0,1,.25,1c0,1.19-.87,1.77-2.67,1.77a7.29,7.29,0,0,1-2.26-.42,8.07,8.07,0,0,1-2.31-1.2l-.18-.12v4.06h0a10.18,10.18,0,0,0,2.2.68,11.52,11.52,0,0,0,2.34.29,7.91,7.91,0,0,0,5.06-1.52,4.93,4.93,0,0,0,1.88-4,4.65,4.65,0,0,0-1-3,8.58,8.58,0,0,0-3.44-2.25"/><path class="cls-1" d="M164,32.83a4.13,4.13,0,0,1-3.43,1.45A4.35,4.35,0,0,1,157,32.83a6.49,6.49,0,0,1-1.28-4.25A6.7,6.7,0,0,1,157,24.23a4.69,4.69,0,0,1,6.63-.32l.25.25a6.67,6.67,0,0,1,1.23,4.34A7.2,7.2,0,0,1,164,32.85m-3.26-13.63a9,9,0,0,0-6.76,2.55,9.64,9.64,0,0,0-2.43,6.94,9,9,0,0,0,2.39,6.61,8.52,8.52,0,0,0,6.38,2.44,8.68,8.68,0,0,0,6.63-2.57,9.57,9.57,0,0,0,2.45-6.86,9.35,9.35,0,0,0-2.3-6.67,8.39,8.39,0,0,0-6.36-2.44"/><path class="cls-1" d="M191.12,23V19.64H187V14.36h-.14L183,15.57h-.07v4h-6.14V17.34a3.56,3.56,0,0,1,.68-2.36,2.38,2.38,0,0,1,1.89-.78,4.3,4.3,0,0,1,1.8.4h.16V11.12h-.07a6.49,6.49,0,0,0-2.31-.32,6.59,6.59,0,0,0-3.25.79,5.58,5.58,0,0,0-2.23,2.26,6.66,6.66,0,0,0-.8,3.3V19.6h-2.89V23h2.89V37.28h4.13V23h6.18v9.08c0,3.75,1.72,5.64,5.14,5.64a8.14,8.14,0,0,0,1.77-.2,5.12,5.12,0,0,0,1.27-.42h0V33.66l-.17.11a2.32,2.32,0,0,1-.83.38,3.82,3.82,0,0,1-.82.15,2.22,2.22,0,0,1-1.76-.66,3.5,3.5,0,0,1-.56-2.27V23h4.14"/><polyline class="cls-2" points="20.96 23.97 1.75 23.97 1.75 4.41 20.96 4.41 20.96 23.97"/><polyline class="cls-3" points="42.17 23.97 22.97 23.97 22.97 4.41 42.17 4.41 42.17 23.97"/><polyline class="cls-4" points="20.96 45.59 1.75 45.59 1.75 26.01 20.96 26.01 20.96 45.59"/><polyline class="cls-5" points="42.17 45.59 22.97 45.59 22.97 26.01 42.17 26.01 42.17 45.59"/></svg>