<svg id="Layer_1" data-name="Layer 1" xmlns="http://www.w3.org/2000/svg" xmlns:xlink="http://www.w3.org/1999/xlink" viewBox="0 0 107.22 50"><defs><style>.cls-1{fill:none;}.cls-2{clip-path:url(#clip-path);}.cls-3{fill:#00a1df;}.cls-4{clip-path:url(#clip-path-2);}.cls-5{clip-path:url(#clip-path-3);}</style><clipPath id="clip-path"><rect class="cls-1" x="1.43" y="9.31" width="106.37" height="31.39"/></clipPath><clipPath id="clip-path-2"><rect class="cls-1" x="-117.37" y="10.22" width="99.92" height="29.56"/></clipPath><clipPath id="clip-path-3"><rect class="cls-1" x="-117.31" y="10.11" width="99.85" height="29.55"/></clipPath></defs><g class="cls-2"><path class="cls-3" d="M17.18,39.48A14.39,14.39,0,1,1,31.56,25.09,14.37,14.37,0,0,1,17.18,39.48Zm0-30.17A15.69,15.69,0,1,0,32.94,25,15.74,15.74,0,0,0,17.17,9.31Z"/></g><path class="cls-3" d="M13.18,32a7.2,7.2,0,0,1-4-6.56,7.37,7.37,0,0,1,1.24-4.14l5.18,7.73h3.14l5.18-7.73a7.4,7.4,0,0,1,1.25,4.14,7.29,7.29,0,0,1-3.56,6.33l1,3.83A11.8,11.8,0,0,0,23.21,15l-6,9.29-6-9.33a11.8,11.8,0,0,0,1,20.88ZM50.64,18.38h-2l-3.79,8.25L41,18.38h-2V31.64h2V22.78l3.12,6.47h1.5l3.05-6.47v8.86h2ZM58.2,28a1.88,1.88,0,0,1-2,2.1,1.83,1.83,0,0,1-1.9-2.1V22.2H52.44v6.05a3.47,3.47,0,0,0,1,2.67,3.32,3.32,0,0,0,2.33.85,3.35,3.35,0,0,0,2.51-1.06v1H60.1V22.22H58.2Zm5.62,1V18.38h-1.9V29a2.41,2.41,0,0,0,2.59,2.61h1.18V30h-.84c-.77,0-1-.37-1-1.09Zm4.31-2.78a3,3,0,0,1,.25-1.28,2,2,0,0,1,1.88-1.19,1.94,1.94,0,0,1,1.86,1.19,2.81,2.81,0,0,1,.26,1.28Zm2.13-4.06c-2.42,0-4,1.77-4,4.83,0,3.59,1.88,4.84,4.25,4.84A4.39,4.39,0,0,0,74,30.29l-1.22-1.14a2.84,2.84,0,0,1-2.29,1,2.33,2.33,0,0,1-2.41-2.64h6.13v-.84c0-2.69-1.46-4.55-4-4.55Zm13.38,3.05a4.51,4.51,0,0,0-2.48-1l-1.5-.22a3.05,3.05,0,0,1-1.49-.61,1.62,1.62,0,0,1-.5-1.24c0-1.17.85-2.06,2.41-2.06A3.9,3.9,0,0,1,83,21l1.28-1.27a5.64,5.64,0,0,0-4.12-1.5c-2.76,0-4.43,1.58-4.43,3.89a3.33,3.33,0,0,0,1,2.54,4.44,4.44,0,0,0,2.51,1.05l1.56.23a2.24,2.24,0,0,1,1.46.56,1.8,1.8,0,0,1,.52,1.38c0,1.28-1,2-2.74,2a4.4,4.4,0,0,1-3.38-1.26L75.26,30A6,6,0,0,0,80,31.76c2.77,0,4.76-1.46,4.76-3.9a3.56,3.56,0,0,0-1.08-2.72Zm7.49,4.37a1.93,1.93,0,0,1-1.4.55,1.88,1.88,0,0,1-1.38-.55,3.63,3.63,0,0,1-.65-2.59,3.69,3.69,0,0,1,.65-2.59,1.9,1.9,0,0,1,1.38-.55,1.92,1.92,0,0,1,1.4.55,3.67,3.67,0,0,1,.65,2.59A3.7,3.7,0,0,1,91.13,29.51Zm-1.4-7.42a3.8,3.8,0,0,0-2.81,1.12,5,5,0,0,0-1.12,3.71,5,5,0,0,0,1.12,3.73,3.76,3.76,0,0,0,2.81,1.11,3.87,3.87,0,0,0,2.84-1.11,5,5,0,0,0,1.11-3.73,5,5,0,0,0-1.11-3.71A3.88,3.88,0,0,0,89.73,22.09Zm5.87-1.17v1.45H94.52v1.46H95.6v7.82h1.9V23.83h1.88V22.37H97.5V21a1,1,0,0,1,1-1.09h.84V18.29h-1.2a2.46,2.46,0,0,0-2.58,2.63Zm7.94-1.42h-1.9v2.86h-1.08v1.46h1.08V29a2.46,2.46,0,0,0,2.59,2.63h1.14V30h-.79a1,1,0,0,1-1-1.09V23.82h1.83V22.35h-1.83Z"/></svg>