<svg id="Layer_1" data-name="Layer 1" xmlns="http://www.w3.org/2000/svg" viewBox="0 0 203.23 50"><defs><style>.cls-1{fill:#ea1b22;}</style></defs><g id="layer1"><g id="g16337"><path id="path16197" class="cls-1" d="M84.14,30.94H96.72l-6.65-10.7L77.86,39.59H72.3L87.15,16.35a3.52,3.52,0,0,1,2.92-1.51,3.43,3.43,0,0,1,2.85,1.47l14.91,23.28h-5.55l-2.63-4.32H86.92Zm57.72,4.33V15.07h-4.72V37.24a2.32,2.32,0,0,0,.69,1.65,2.41,2.41,0,0,0,1.72.7h21.5l2.78-4.32Zm-78-3.62a8.29,8.29,0,1,0,0-16.58H43.22V39.59h4.71V19.4h15.6a4,4,0,0,1,0,7.94l-13.29,0L64.32,39.59h6.85L61.7,31.65ZM14.2,39.59a12.26,12.26,0,1,1,0-24.52H28.45a12.26,12.26,0,1,1,0,24.52Zm13.93-4.32a7.94,7.94,0,1,0,0-15.87H14.52a7.94,7.94,0,1,0,0,15.87Zm89.54,4.32a12.26,12.26,0,1,1,0-24.52H134.6l-2.76,4.33H118a7.94,7.94,0,1,0,0,15.87h17l-2.78,4.32Zm57.67-4.32a7.93,7.93,0,0,1-7.63-5.78h20.15l2.78-4.32H167.71a7.94,7.94,0,0,1,7.63-5.77h13.83l2.8-4.33H175a12.26,12.26,0,1,0,0,24.52h14.54l2.78-4.32h-17"/><path id="path16199" class="cls-1" d="M194.49,17.68a2.17,2.17,0,1,1,2.16,2.17A2.15,2.15,0,0,1,194.49,17.68Zm2.16,2.77a2.76,2.76,0,1,0-2.74-2.75A2.75,2.75,0,0,0,196.65,20.45Zm-.26-4.4a1.92,1.92,0,0,1,.8.1.87.87,0,0,1,.61.86,1,1,0,0,1-.41.78l-.14.08.71,1.27h-.69L196.65,18h-.43v1.17h-.61V16.05Zm.22,1.41c.19,0,.39,0,.5-.19a.45.45,0,0,0-.15-.65,1.42,1.42,0,0,0-.57-.06h-.17v.9h.39"/></g></g></svg>