<svg id="Layer_1" data-name="Layer 1" xmlns="http://www.w3.org/2000/svg" viewBox="0 0 126.51 50"><defs><style>.cls-1{fill:#3d4647;}.cls-2{fill:#6ebe4b;}</style></defs><polygon class="cls-1" points="1.76 12.94 1.76 23.64 22.69 11.46 34.48 18.2 32.14 19.58 22.69 14.15 14.49 18.88 33.25 29.75 43.64 23.66 43.64 12.94 22.69 0.84 1.76 12.94"/><path class="cls-2" d="M1.76,26.34V37.08l21,12.08L43.64,37.08V26.36L22.71,38.54,10.92,31.8l2.34-1.38,9.43,5.43,8.2-4.75L12.13,20.23Z"/><path class="cls-1" d="M72.54,15.81a7.47,7.47,0,0,0-6,2.64,9.42,9.42,0,0,0-2.11,6.31,9.53,9.53,0,0,0,2.11,6.32,7.47,7.47,0,0,0,6,2.64,7.84,7.84,0,0,0,6.13-2.64,9.14,9.14,0,0,0,2.21-6.32,9.13,9.13,0,0,0-2.21-6.31,7.84,7.84,0,0,0-6.13-2.64m-8,.94C66.47,14,69.28,12.61,73,12.61a10.53,10.53,0,0,1,8.24,3.52,12.32,12.32,0,0,1,3.16,8.61,12.37,12.37,0,0,1-3.16,8.63,10.82,10.82,0,0,1-8.48,3.55,9.31,9.31,0,0,1-8.2-4.2V45.86H61V13h3.53v3.77Z"/><polygon class="cls-1" points="91.15 36.53 91.15 16.09 86.36 16.09 86.36 12.98 91.15 12.98 91.15 4.55 94.68 4.55 94.68 12.98 100.11 12.98 100.11 16.09 94.68 16.09 94.68 36.53 91.15 36.53"/><path class="cls-1" d="M114.38,33.72a6.57,6.57,0,0,0,4-1.27,7.31,7.31,0,0,0,2.55-3.3h3.83a10.79,10.79,0,0,1-4,5.6,11.91,11.91,0,0,1-7.15,2.17,11,11,0,0,1-8.45-3.53A12.22,12.22,0,0,1,102,24.76a12.26,12.26,0,0,1,3.15-8.63,11,11,0,0,1,8.45-3.52,11.86,11.86,0,0,1,7.15,2.17,10.77,10.77,0,0,1,4,5.62h-3.81a7.31,7.31,0,0,0-2.55-3.3,6.66,6.66,0,0,0-4-1.27,9.34,9.34,0,0,0-3.84.71,7.86,7.86,0,0,0-2.66,1.93,9,9,0,0,0-2.32,6.31,9,9,0,0,0,2.32,6.32,8.25,8.25,0,0,0,6.48,2.62"/></svg>