<svg id="Layer_1" data-name="Layer 1" xmlns="http://www.w3.org/2000/svg" xmlns:xlink="http://www.w3.org/1999/xlink" viewBox="0 0 141.83 50"><defs><style>.cls-1{fill:#cd163f;}.cls-2{fill:url(#linear-gradient);}</style><linearGradient id="linear-gradient" x1="6.69" y1="434.42" x2="23.6" y2="405.14" gradientTransform="translate(0 -396)" gradientUnits="userSpaceOnUse"><stop offset="0.28" stop-color="#cd163f"/><stop offset="0.9" stop-color="#f58025"/></linearGradient></defs><path class="cls-1" d="M75.88,29.19c-3.13,0-5,1.65-5,4.4s1.87,4.38,5,4.38,5-1.63,5-4.38-1.87-4.4-5-4.4Zm0,6.35c-.92,0-1.54-.79-1.54-2s.62-2,1.54-2,1.53.78,1.53,2-.58,2-1.53,2Zm39.5,1a1.2,1.2,0,0,0,1.2,1.22h2.34V29.41h-3.54v7.14Zm0-9.89h3.54v1.73h-3.54Zm10,2.53c-3.13,0-5,1.65-5,4.4s1.86,4.38,5,4.38,5-1.63,5-4.38-1.88-4.4-5-4.4Zm0,6.35c-.91,0-1.53-.79-1.53-2s.62-2,1.53-2,1.54.78,1.54,2-.58,2-1.54,2ZM59,15.92c-3.13,0-5,1.64-5,4.4s1.86,4.38,5,4.38,5-1.63,5-4.38-1.87-4.4-5-4.4Zm0,6.35c-.91,0-1.53-.79-1.53-2s.62-2,1.53-2,1.54.78,1.54,2S60,22.27,59,22.27Zm49.54.09c-.38,0-2,.09-3.36.09s-1.95-.15-2.23-1.08h5.67a.27.27,0,0,0,.27-.26v-.65c0-2.88-1.53-4.5-4.45-4.54-3.27,0-4.8,1.67-4.8,4.26,0,2.84,1.5,4.54,5.07,4.54,2.55,0,3.7-1,3.93-2.24,0-.05,0-.12-.1-.12Zm-4.09-4.5c1,0,1.37.77,1.37,1.73h-2.91c0-1,.32-1.73,1.54-1.73Zm9.21-4.47h-2.31a1.22,1.22,0,0,0-1.21,1.22V24.5h3.52V13.39ZM69.08,24.63a13.2,13.2,0,0,0,3.53-.27.3.3,0,0,0,.24-.31V22s-.65.07-2.19.07c-1.33,0-2.17-.69-2.17-1.8a1.8,1.8,0,0,1,2-1.82,12.63,12.63,0,0,1,2.32.18V16.58a.31.31,0,0,0-.25-.31,13.91,13.91,0,0,0-3.33-.35c-2.6.15-4.22,1.67-4.22,4.37a4.06,4.06,0,0,0,4,4.34Zm35,4.74v1.08a2.74,2.74,0,0,0-2.43-1.28c-2.65,0-4.15,1.64-4.15,4.38v0c0,2.74,1.5,4.39,4.15,4.39A2.74,2.74,0,0,0,104,36.68v.19a.9.9,0,0,0,.88.9h2.46v-8.4Zm-1.55,6.17c-.91,0-1.53-.79-1.53-2s.62-2,1.53-2,1.54.76,1.54,2S103.43,35.54,102.48,35.54Zm-6.6-19.41-1,5.47-1.1-5.47h-4l-1.1,5.47-1-5.47H84.37l-3.46,0a1.51,1.51,0,0,0-1.3.82l-2,2.86V13.36H75.5a1.21,1.21,0,0,0-1.21,1.22v9.88h3.35V20.3l2.29,3.34a1.51,1.51,0,0,0,1.3.82l3.48,0L81.32,20l3.05-3.89,2,8.36h3.74a.85.85,0,0,0,.84-.73l.71-5h.28l.72,5a.86.86,0,0,0,.83.73h3.74l2-8.37ZM59.87,33c0,1.43-.45,2.17-1.36,2.17-.56,0-1.14-.19-1.14-1.57V29.41H54v4.77c0,2.4,1.2,3.72,3.38,3.72a3.71,3.71,0,0,0,2.73-1.1v.06a.89.89,0,0,0,.89.9h2.2V29.41H59.87V33Zm33.37-3.81a3.52,3.52,0,0,0-2.87,1.42,3.07,3.07,0,0,0-2.74-1.42,3.54,3.54,0,0,0-2.6,1.1v-.9H82v8.36h3.32v-4c0-1.08.49-1.78,1.25-1.78.55,0,1,.19,1,1.52v4.29h3.34v-4c0-1.1.47-1.78,1.23-1.78.55,0,1,.19,1,1.52v4.29h3.32V32.92C96.51,30.53,95.35,29.21,93.24,29.21Zm44,0a3.65,3.65,0,0,0-2.73,1.12v-.9h-3.09v8.36h3.35v-4c0-1.11.54-1.83,1.37-1.83.56,0,1.13.19,1.13,1.57v4.29h3.34V32.92c0-2.41-1.2-3.73-3.37-3.73Zm-25.12-2.53h-3.35v9.88A1.21,1.21,0,0,0,110,37.76h2.14v-5.9h2V29.4h-2V26.66Zm6.75-13.27h-2.31a1.21,1.21,0,0,0-1.2,1.22V24.5h3.51V13.39ZM46,26.66a.88.88,0,0,0-.82.55L41,37.77h3.5l.78-2.1h4l.43,1.21h0a1.47,1.47,0,0,0,1.32.88h2.75L49.33,26.65Zm.15,6.53,1.16-3.13,1.1,3.13Zm22.14-6.52H64.72v9.88a1.21,1.21,0,0,0,1.21,1.22h2.35v-5.9h2V29.41h-2V26.67ZM52.42,20.22a2.42,2.42,0,0,0-1.56-.92v0a2.69,2.69,0,0,0,2.48-2.95c0-2.14-1.53-3-4-3h-6V24.48h3.54V20.43h1c.49,0,1,.08,1.12.58l1,2.91a.67.67,0,0,0,.65.56H53.9l-1.23-3.72a1.34,1.34,0,0,0-.25-.54Zm-4.09-2.11h-1.4V15.75h1.46c.72,0,1.41.15,1.41,1.15s-.73,1.21-1.47,1.21Z"/><path class="cls-2" d="M10.37,18.88,23.26,9.34a.24.24,0,0,0-.14-.44H12.55a4.63,4.63,0,0,0-3.26,1.35L2.56,17a4.64,4.64,0,0,0-1.35,3.26v9.52A4.64,4.64,0,0,0,2.56,33l6.72,6.73a4.67,4.67,0,0,0,3.27,1.35H21.7a.24.24,0,0,0,.1-.46L3.63,32.07a2.17,2.17,0,0,1-1.25-2V25.55A1.52,1.52,0,0,1,3,24.34L5.61,22.4V18.87h4.76Z"/><path class="cls-1" d="M22.9,22.55l-1.24,3.38h2.43Zm-10.45.14c0-1.08-.74-1.23-1.52-1.23H9.36V24h1.51c.8,0,1.58-.12,1.58-1.32Z"/><path class="cls-1" d="M32.23,17.16,26,10.9a1,1,0,0,0-1.31-.11l-12,8.11c2.28.15,3.67,1.07,3.67,3.18a2.91,2.91,0,0,1-2.68,3.19v0a2.64,2.64,0,0,1,1.68,1,1.49,1.49,0,0,1,.28.58l1,2.89,4.1-10.26a.94.94,0,0,1,.88-.6h3.6l4.79,12h-3a1.59,1.59,0,0,1-1.42-1h0L25,28.63H20.69l-.85,2.26H13.35a.72.72,0,0,1-.7-.61l-1.08-3.14c-.15-.54-.68-.63-1.21-.63h-1v4.37H5.61V23.61L3.4,25.1a.74.74,0,0,0-.32.61v4.62a.76.76,0,0,0,.45.69l20.85,8.73a1,1,0,0,0,1.14-.22l6.71-6.69A4,4,0,0,0,33.41,30V20a4,4,0,0,0-1.18-2.83Z"/></svg>