<svg id="Layer_1" data-name="Layer 1" xmlns="http://www.w3.org/2000/svg" viewBox="0 0 70.6 50"><defs><style>.cls-1{fill:#00a1e0;}.cls-2{fill:#fff;}</style></defs><path class="cls-1" d="M30,6.46A11.9,11.9,0,0,1,49,9a14.71,14.71,0,1,1,5.91,28.22A14.5,14.5,0,0,1,52,36.9a10.66,10.66,0,0,1-14,4.39,12.18,12.18,0,0,1-22.65-.55,11.16,11.16,0,0,1-2.33.24A11.45,11.45,0,0,1,7.42,19.65a13,13,0,0,1-1.09-5.22A13.16,13.16,0,0,1,30,6.46"/><path class="cls-2" d="M11.58,25.88c0,.11,0,.14,0,.15a3,3,0,0,0,.38.24,4.1,4.1,0,0,0,2,.47c1.39,0,2.25-.74,2.25-1.93v0c0-1.1-1-1.5-1.89-1.79l-.11,0c-.69-.22-1.29-.42-1.29-.87v0c0-.39.35-.68.89-.68a4.07,4.07,0,0,1,1.77.45s.13.09.18,0,.26-.69.28-.76a.13.13,0,0,0-.07-.16,4,4,0,0,0-2-.53H13.9a1.94,1.94,0,0,0-2.16,1.87v0c0,1.16,1,1.54,1.9,1.8l.15.05c.67.2,1.24.38,1.24.85v0c0,.43-.37.75-1,.75a3.32,3.32,0,0,1-1.79-.52L12,25.06s-.13-.07-.18.06l-.27.76Z"/><path class="cls-2" d="M31.93,25.88c0,.11,0,.14,0,.15a4,4,0,0,0,2.41.71c1.39,0,2.26-.74,2.26-1.93v0c0-1.1-1-1.5-1.89-1.79l-.12,0c-.69-.22-1.29-.42-1.29-.87v0c0-.39.35-.68.89-.68a4.07,4.07,0,0,1,1.77.45s.13.09.18,0,.26-.69.28-.76a.14.14,0,0,0-.06-.16,4.07,4.07,0,0,0-2-.53h-.13a2,2,0,0,0-2.17,1.87v0c0,1.16,1,1.54,1.9,1.8l.15.05c.67.2,1.25.38,1.25.85v0c0,.43-.38.75-1,.75a3.28,3.28,0,0,1-1.79-.52l-.23-.14a.12.12,0,0,0-.19.06l-.27.76Z"/><path class="cls-2" d="M45.82,23.55a2.86,2.86,0,0,1-.37,1.58,1.24,1.24,0,0,1-1.13.55,1.22,1.22,0,0,1-1.12-.55,2.86,2.86,0,0,1-.37-1.58A2.81,2.81,0,0,1,43.2,22a1.22,1.22,0,0,1,1.12-.55,1.24,1.24,0,0,1,1.13.55,2.81,2.81,0,0,1,.37,1.57M47,22.3a2.94,2.94,0,0,0-.52-1,2.53,2.53,0,0,0-.9-.67,3.2,3.2,0,0,0-2.48,0,2.53,2.53,0,0,0-.9.67,2.94,2.94,0,0,0-.52,1,4.2,4.2,0,0,0-.17,1.25,4.24,4.24,0,0,0,.17,1.25,2.67,2.67,0,0,0,.53,1,2.33,2.33,0,0,0,.89.68,3.32,3.32,0,0,0,2.48,0,2.44,2.44,0,0,0,.9-.68,2.8,2.8,0,0,0,.52-1,4.68,4.68,0,0,0,0-2.5"/><path class="cls-2" d="M56.51,25.5a.11.11,0,0,0-.15-.07,2.74,2.74,0,0,1-.53.15,4.26,4.26,0,0,1-.64.05,1.78,1.78,0,0,1-1.33-.5,2.22,2.22,0,0,1-.5-1.59A2.45,2.45,0,0,1,53.81,22a1.5,1.5,0,0,1,1.29-.57,3.56,3.56,0,0,1,1.22.18.12.12,0,0,0,.14-.08l.28-.8a.09.09,0,0,0-.07-.13,4.22,4.22,0,0,0-.77-.2,5.66,5.66,0,0,0-.87-.06,3.11,3.11,0,0,0-1.3.25,2.67,2.67,0,0,0-.93.68,2.86,2.86,0,0,0-.57,1A4.13,4.13,0,0,0,52,23.54a3.28,3.28,0,0,0,.78,2.31,2.9,2.9,0,0,0,2.29.87,4.57,4.57,0,0,0,1.64-.3.11.11,0,0,0,0-.13l-.29-.79Z"/><path class="cls-2" d="M58.54,22.9a2.32,2.32,0,0,1,.32-.92A1.25,1.25,0,0,1,60,21.41a1.2,1.2,0,0,1,1.1.57,1.75,1.75,0,0,1,.26.92Zm3.91-.82a2.55,2.55,0,0,0-.5-.92,2.25,2.25,0,0,0-.75-.56,2.79,2.79,0,0,0-1.12-.23,3.08,3.08,0,0,0-1.3.25,2.62,2.62,0,0,0-.91.69,3.09,3.09,0,0,0-.53,1,4.6,4.6,0,0,0-.17,1.25,4.17,4.17,0,0,0,.18,1.26,2.61,2.61,0,0,0,.57,1,2.55,2.55,0,0,0,1,.65,4,4,0,0,0,1.42.23,4.15,4.15,0,0,0,2-.39s.08-.07,0-.19l-.25-.72a.11.11,0,0,0-.15-.07,3.72,3.72,0,0,1-1.61.29,1.61,1.61,0,0,1-1.81-1.77h3.93s.11,0,.12-.1a4.42,4.42,0,0,0-.12-1.7Z"/><path class="cls-2" d="M27.08,22.9A2.32,2.32,0,0,1,27.4,22a1.25,1.25,0,0,1,1.12-.57,1.23,1.23,0,0,1,1.11.57,1.84,1.84,0,0,1,.25.92ZM31,22.08a2.55,2.55,0,0,0-.5-.92,2.25,2.25,0,0,0-.75-.56,2.79,2.79,0,0,0-1.12-.23,3.08,3.08,0,0,0-1.3.25,2.49,2.49,0,0,0-.9.69,2.93,2.93,0,0,0-.54,1,4.6,4.6,0,0,0-.17,1.25,4.17,4.17,0,0,0,.18,1.26,2.61,2.61,0,0,0,.57,1,2.55,2.55,0,0,0,1,.65,4,4,0,0,0,1.42.23,4.15,4.15,0,0,0,2-.39s.09-.07,0-.19l-.25-.72a.11.11,0,0,0-.15-.07,3.72,3.72,0,0,1-1.61.29,1.89,1.89,0,0,1-1.35-.46,1.84,1.84,0,0,1-.45-1.31H31s.11,0,.12-.1a4.42,4.42,0,0,0-.12-1.7Z"/><path class="cls-2" d="M18.59,25.48a.84.84,0,0,1-.22-.24.92.92,0,0,1-.12-.51A.86.86,0,0,1,18.6,24a1.79,1.79,0,0,1,1.14-.28,8.53,8.53,0,0,1,1.06.09v1.79h0a9.55,9.55,0,0,1-1.07.14,1.74,1.74,0,0,1-1.15-.23m1.57-2.76-.62,0a3.77,3.77,0,0,0-1,.12,2.74,2.74,0,0,0-.83.38,2,2,0,0,0-.57.65,2,2,0,0,0-.2.91,2.17,2.17,0,0,0,.17.89,1.65,1.65,0,0,0,.52.62,2.15,2.15,0,0,0,.8.34,4.74,4.74,0,0,0,1,.11,6.75,6.75,0,0,0,1.19-.1c.39-.06.86-.16,1-.19l.28-.07c.09,0,.09-.13.09-.13V22.64a2.23,2.23,0,0,0-.62-1.74,2.68,2.68,0,0,0-1.81-.54,6.22,6.22,0,0,0-1.05.1,3.64,3.64,0,0,0-1.21.44.12.12,0,0,0,0,.16l.27.74a.1.1,0,0,0,.13.07l.07,0a4,4,0,0,1,1.71-.4,1.58,1.58,0,0,1,1,.25c.21.17.32.41.32.94v.16c-.33-.05-.64-.07-.64-.07"/><path class="cls-2" d="M51.84,20.69a.1.1,0,0,0-.06-.14,4.57,4.57,0,0,0-.66-.11,2,2,0,0,0-1,.16,1.85,1.85,0,0,0-.67.49v-.48a.11.11,0,0,0-.11-.12h-1a.12.12,0,0,0-.11.12v5.86a.12.12,0,0,0,.12.12h1a.12.12,0,0,0,.12-.12V23.55a3.72,3.72,0,0,1,.13-1,1.46,1.46,0,0,1,.35-.57,1.22,1.22,0,0,1,.48-.3,2.15,2.15,0,0,1,.53-.07,2.39,2.39,0,0,1,.43.05.12.12,0,0,0,.14-.1c.07-.18.26-.72.3-.83"/><path class="cls-2" d="M42.15,18l-.39-.1a4,4,0,0,0-.53,0,2.22,2.22,0,0,0-1.66.6,3.21,3.21,0,0,0-.79,1.78l-.05.27h-.89a.14.14,0,0,0-.14.11l-.14.82c0,.08,0,.13.13.13h.86l-.88,4.91a5.15,5.15,0,0,1-.23,1,1.94,1.94,0,0,1-.28.56.72.72,0,0,1-.36.28,1.6,1.6,0,0,1-.46.06,1.63,1.63,0,0,1-.31,0,1,1,0,0,1-.21-.07.12.12,0,0,0-.15.06l-.29.8a.12.12,0,0,0,.06.16,2.28,2.28,0,0,0,.36.1,2.48,2.48,0,0,0,.58.06,2.8,2.8,0,0,0,1-.15,1.74,1.74,0,0,0,.73-.51,2.61,2.61,0,0,0,.51-.88,7.59,7.59,0,0,0,.34-1.32l.89-5H41.1a.14.14,0,0,0,.13-.12l.15-.82c0-.07,0-.12-.13-.12H40a4.82,4.82,0,0,1,.2-.89,1.19,1.19,0,0,1,.28-.42.86.86,0,0,1,.33-.2,1.33,1.33,0,0,1,.42-.06,1.51,1.51,0,0,1,.32,0l.2.05c.13,0,.15,0,.17-.06l.3-.83a.1.1,0,0,0-.07-.13"/><path class="cls-2" d="M24.6,26.47a.11.11,0,0,1-.11.12h-1a.11.11,0,0,1-.11-.12V18.09a.11.11,0,0,1,.11-.12h1a.11.11,0,0,1,.11.12v8.38Z"/></svg>