<svg id="Layer_1" data-name="Layer 1" xmlns="http://www.w3.org/2000/svg" xmlns:xlink="http://www.w3.org/1999/xlink" viewBox="0 0 103.53 50"><defs><style>.cls-1,.cls-2{fill-rule:evenodd;}.cls-1{fill:url(#linear-gradient);}.cls-2{fill:#fff;}.cls-3{fill:#225fbc;}</style><linearGradient id="linear-gradient" x1="51.77" y1="49" x2="51.77" y2="1.13" gradientUnits="userSpaceOnUse"><stop offset="0" stop-color="#225fbc"/><stop offset="1" stop-color="#1fb2f0"/></linearGradient></defs><polyline class="cls-1" points="3.39 48.93 52.28 48.93 100.15 1.06 3.39 1.06 3.39 48.93"/><path class="cls-2" d="M60.81,10.06H51.28V32.7L43,10.06H34.71L27.61,29c-.75-4.77-5.69-6.42-9.58-7.66-2.57-.82-5.29-2-5.26-3.37,0-1.1,1.46-2.12,4.31-2a15.71,15.71,0,0,1,7,1.88l3.32-5.76A25.76,25.76,0,0,0,16.57,9.55h0C12.49,9.55,9.11,10.87,7,13a8.08,8.08,0,0,0-2.28,5.56A7.48,7.48,0,0,0,8,25.24a22.17,22.17,0,0,0,6.48,3c2.64.82,4.8,1.53,4.77,3.05a2.19,2.19,0,0,1-.62,1.49,4.2,4.2,0,0,1-3.07,1,13.18,13.18,0,0,1-7.89-2.25L4.74,37.29a22,22,0,0,0,10.78,2.87H16a13.07,13.07,0,0,0,8.2-2.75l.34-.3-.95,2.55h8.65l1.45-4.42a15.79,15.79,0,0,0,5.09.81,16.27,16.27,0,0,0,5-.76l1.4,4.37H59.27V30.51h3.08c7.43,0,11.84-3.78,11.84-10.13C74.19,13.31,69.91,10.06,60.81,10.06Zm-22,19.38a8.5,8.5,0,0,1-3.06-.54l3-9.52h.07l3,9.55A8.78,8.78,0,0,1,38.8,29.44ZM61.37,24h-2.1V16.29h2.1c2.8,0,5,.93,5,3.8S64.17,24,61.37,24"/><path class="cls-3" d="M64,45.82a2.52,2.52,0,1,1,2.53,2.6A2.51,2.51,0,0,1,64,45.82Zm2.53,3.12a3.11,3.11,0,1,0-3.16-3.12A3.11,3.11,0,0,0,66.52,48.94Zm-.66-2.87h.62l.94,1.55H68L67,46a.92.92,0,0,0,.93-1c0-.71-.42-1-1.26-1H65.32v3.58h.54Zm0-.46V44.5h.74c.37,0,.77.08.77.53s-.41.58-.86.58Z"/></svg>