<svg id="Layer_1" data-name="Layer 1" xmlns="http://www.w3.org/2000/svg" viewBox="0 0 198.77 50"><defs><style>.cls-1,.cls-3{fill:#293f41;}.cls-1,.cls-2{fill-rule:evenodd;}.cls-2{fill:#82b6a1;}</style></defs><path class="cls-1" d="M48,19.51a8.76,8.76,0,0,0-5.42,1.92V19.62h-5V38.9h5.18V26.61a6,6,0,0,1,4.62-2.36,5.57,5.57,0,0,1,2,.33v-5A6.06,6.06,0,0,0,48,19.51M3.08,33A7.83,7.83,0,0,0,8.38,35c1.35,0,2.48-.67,2.48-1.57,0-2.93-9.24-1.92-9.24-8.12,0-3.72,3.6-6,7.32-6a12.18,12.18,0,0,1,6.54,1.91l-2.37,3.72a6.77,6.77,0,0,0-3.72-1.35c-1.46,0-2.59.56-2.59,1.58,0,2.48,9.25,1.46,9.25,8.23,0,3.72-3.61,6-7.67,6A12.84,12.84,0,0,1,.71,36.76Zm32.35-3.95c0-5.41-3.72-9.8-9-9.8-5.75,0-9.36,4.73-9.36,10,0,6.09,4.28,10,10,10A10.51,10.51,0,0,0,35,35.86l-2.93-2.93a6.82,6.82,0,0,1-4.85,2.25A5.07,5.07,0,0,1,22,30.56h13.3c0-.45.11-.9.11-1.47M22.24,26.84a4.13,4.13,0,0,1,4.06-3.38,3.92,3.92,0,0,1,3.84,3.38ZM61.7,31.46,67,19.62h5.29L63.5,38.9H59.89L51.1,19.62h5.41Zm15-20.85a3.37,3.37,0,0,1,3.38,3.27,3.38,3.38,0,1,1-3.38-3.27m-2.59,9h5.18V38.9H74.1ZM100.47,35a10.27,10.27,0,1,1-8.56-15.78A10.54,10.54,0,0,1,100,23l-3.6,3.26A5.52,5.52,0,0,0,92,24a5.2,5.2,0,0,0-5.18,5.3,5.09,5.09,0,0,0,5.29,5.3A5.54,5.54,0,0,0,96.75,32Zm18.72.91a10.35,10.35,0,0,1-7.89,3.49c-5.75,0-10-3.94-10-10,0-5.41,3.61-10,9.36-10,5.3,0,9,4.5,9,9.8a5.61,5.61,0,0,1-.12,1.47h-13.3a5.08,5.08,0,0,0,5.19,4.62,6.86,6.86,0,0,0,4.85-2.25Zm-4.85-9a3.81,3.81,0,0,0-3.83-3.38,4,4,0,0,0-4.06,3.38Zm7.33,12.06V19.62h5V21.2A8.12,8.12,0,0,1,132,19.29a8.59,8.59,0,0,1,6.65,3.15c1.24,1.47,2,3.5,2,6.77V39h-5.19V28.75c0-1.91-.45-2.93-1.13-3.6A4.06,4.06,0,0,0,131.47,24a5.93,5.93,0,0,0-4.62,2.37V38.9Z"/><path class="cls-2" d="M153.91,19.29a11.29,11.29,0,0,0-11.28,11.16,11.78,11.78,0,0,0,3.5,8.34,2.22,2.22,0,0,0,2.93.11,7.61,7.61,0,0,1,4.85-1.58,7.83,7.83,0,0,1,4.84,1.58,2.23,2.23,0,0,0,2.93-.23,11.23,11.23,0,0,0-7.77-19.38m-.12,16.9a5.51,5.51,0,0,1-5.63-5.63,5.44,5.44,0,0,1,5.63-5.64,5.64,5.64,0,1,1,0,11.27"/><path class="cls-1" d="M175.21,38.9h-3.83l-7.67-19.28h5.19l4.17,11.05,4.17-11h4.28l4.06,11.05,4.17-11h5.19L187.27,38.9h-3.83L179.38,28Z"/><path class="cls-3" d="M192.12,36.53v.34h-.68v2H191v-2h-.68v-.34ZM193.7,38l.9-1.47h.34V38.9h-.45V37.55l-.68,1h-.34l-.56-1V38.9h-.45V36.53h.33Z"/></svg>