<svg id="Layer_1" data-name="Layer 1" xmlns="http://www.w3.org/2000/svg" viewBox="0 0 103.57 50"><defs><style>.cls-1,.cls-2,.cls-3{fill-rule:evenodd;}.cls-2{fill:#ee3524;}.cls-3{fill:#231f20;}</style></defs><path class="cls-1" d="M36.54,21a3.81,3.81,0,0,0-1.35-.8,4.32,4.32,0,0,0-1.51-.28,4.59,4.59,0,0,0-1.22.16,3.32,3.32,0,0,0-1.08.49,2.57,2.57,0,0,0-.78.86,2.44,2.44,0,0,0-.3,1.25,2.49,2.49,0,0,0,.19,1,2.26,2.26,0,0,0,.51.71,2.52,2.52,0,0,0,.72.48,6.19,6.19,0,0,0,.81.32l.78.26a2.67,2.67,0,0,1,.56.26,1.22,1.22,0,0,1,.35.32.64.64,0,0,1,.13.42,1.06,1.06,0,0,1-.1.45.84.84,0,0,1-.27.29,1.19,1.19,0,0,1-.38.17,2.4,2.4,0,0,1-.46.05,2.24,2.24,0,0,1-1-.27,2.61,2.61,0,0,1-.85-.67l-1.38,1.42a3.8,3.8,0,0,0,1.46.94,5,5,0,0,0,1.81.33,4.28,4.28,0,0,0,1.24-.18,3.11,3.11,0,0,0,1.08-.53,2.61,2.61,0,0,0,.74-.91,2.84,2.84,0,0,0,.28-1.31,2.16,2.16,0,0,0-.26-1.1,2.44,2.44,0,0,0-.65-.74,3.27,3.27,0,0,0-.88-.48l-.92-.33-.56-.19a3.29,3.29,0,0,1-.42-.21.75.75,0,0,1-.27-.26.62.62,0,0,1-.1-.37.71.71,0,0,1,.12-.43,1.06,1.06,0,0,1,.29-.27,1.09,1.09,0,0,1,.39-.15,3,3,0,0,1,.42,0,2.09,2.09,0,0,1,1.56.75Zm2.57,7.94h2.12V20.1H39.11Zm11.48-7V20.1h-7v1.81H46v7h2.11v-7Zm8.41,7V27.08H54.94V25.25h3.62v-1.7H54.94V21.89h3.83V20.1H52.9v8.79Zm10.06-1.21-1.47-1.4a2,2,0,0,1-.75.65,2.29,2.29,0,0,1-1.1.25,2.48,2.48,0,0,1-1-.2,2.26,2.26,0,0,1-.78-.55,2.47,2.47,0,0,1-.51-.85,3,3,0,0,1-.19-1.1,2.87,2.87,0,0,1,.19-1.07,2.44,2.44,0,0,1,.51-.85,2.49,2.49,0,0,1,.8-.57,2.38,2.38,0,0,1,1-.2,2.42,2.42,0,0,1,1,.2,1.79,1.79,0,0,1,.78.6L69,21.15a3.48,3.48,0,0,0-1.45-1,5.18,5.18,0,0,0-1.82-.33,5.42,5.42,0,0,0-1.86.32,4.4,4.4,0,0,0-1.5.93,4.2,4.2,0,0,0-1,1.46A4.89,4.89,0,0,0,61,24.48a4.82,4.82,0,0,0,.36,1.89,4.26,4.26,0,0,0,1,1.47,4.43,4.43,0,0,0,1.49,1,5.14,5.14,0,0,0,1.87.33,4.66,4.66,0,0,0,2-.39,4.34,4.34,0,0,0,1.43-1.06Zm10.42-5.13a4.14,4.14,0,0,0-1-1.45A4.5,4.5,0,0,0,77,20.18a5.77,5.77,0,0,0-3.79,0,4.56,4.56,0,0,0-1.5.92,4.14,4.14,0,0,0-1,1.45,5,5,0,0,0-.35,1.91,5.15,5.15,0,0,0,.35,1.91,4.31,4.31,0,0,0,1,1.47,4.48,4.48,0,0,0,1.5,1,5.61,5.61,0,0,0,3.79,0,4.43,4.43,0,0,0,1.51-1,4.31,4.31,0,0,0,1-1.47,5.15,5.15,0,0,0,.35-1.91A5,5,0,0,0,79.48,22.55Zm-2.09,3a2.45,2.45,0,0,1-.52.86,2.57,2.57,0,0,1-.78.57,2.61,2.61,0,0,1-1,.2,2.56,2.56,0,0,1-1-.2,2.45,2.45,0,0,1-1.29-1.43,3.18,3.18,0,0,1-.19-1.1,3.12,3.12,0,0,1,.18-1.07,2.44,2.44,0,0,1,.51-.85,2.58,2.58,0,0,1,.79-.56,2.4,2.4,0,0,1,1-.21,2.45,2.45,0,0,1,1,.21,2.32,2.32,0,0,1,.79.56,2.41,2.41,0,0,1,.51.85,2.9,2.9,0,0,1,.19,1.07,3,3,0,0,1-.19,1.1Zm11.9,3.33L87,25.13a2.55,2.55,0,0,0,1.33-.87,2.36,2.36,0,0,0,.48-1.5,2.57,2.57,0,0,0-.28-1.27,2.3,2.3,0,0,0-.76-.82,3.23,3.23,0,0,0-1.07-.44,5.71,5.71,0,0,0-1.23-.13H82.15v8.79h2.06V25.4h.72l1.9,3.49ZM86.6,23.34a1,1,0,0,1-.37.32,1.55,1.55,0,0,1-.5.16,3.08,3.08,0,0,1-.53,0h-1V21.81h1.13a2.85,2.85,0,0,1,.49,0,1.32,1.32,0,0,1,.45.14.89.89,0,0,1,.34.3.87.87,0,0,1,.13.5,1,1,0,0,1-.14.55Zm11,5.55V27.08H93.53V25.25h3.63v-1.7H93.53V21.89h3.84V20.1H91.5v8.79Z"/><path class="cls-2" d="M12.75,29.88a6.43,6.43,0,0,0,2.35-.76A5.62,5.62,0,0,0,18,24.27v-.18h2.48a7.33,7.33,0,0,0-1.34-3.41l-2.53,1.64a4,4,0,0,1,.29,3.91,7.33,7.33,0,0,1-4.16,3.65"/><path class="cls-2" d="M20.52,24.47H18.38a6.06,6.06,0,0,1-3.09,5,7,7,0,0,1-3.45.88A7.85,7.85,0,0,1,9,29.81a6.76,6.76,0,0,0,3.61,1.07h0a6.33,6.33,0,0,0,5.55-3.3l.1-.17,1.43.92a7.27,7.27,0,0,0,.8-3.33,4.58,4.58,0,0,0,0-.53"/><path class="cls-2" d="M12.67,31.26h0a7.64,7.64,0,0,1-6-3.13,7.26,7.26,0,0,0,12.92.53L18.45,28a6.69,6.69,0,0,1-5.78,3.31"/><path class="cls-2" d="M13.25,14.36A10.64,10.64,0,1,0,23.81,25,10.6,10.6,0,0,0,13.25,14.36m0,18.38A7.74,7.74,0,1,1,20.93,25a7.71,7.71,0,0,1-7.68,7.74"/><path class="cls-3" d="M99.22,21.33a.88.88,0,0,0,1.15.45.9.9,0,0,0,.45-.45,1,1,0,0,0,.06-.34.82.82,0,0,0-.25-.61.77.77,0,0,0-.28-.19.75.75,0,0,0-.33-.07.8.8,0,0,0-.34.07.9.9,0,0,0-.46.46.86.86,0,0,0,0,.68Zm.13-.63a.76.76,0,0,1,.38-.39.76.76,0,0,1,1,.39.72.72,0,0,1,.06.29.67.67,0,0,1-.06.28.78.78,0,0,1-.16.24.66.66,0,0,1-.51.21.68.68,0,0,1-.52-.21.75.75,0,0,1-.15-.24.67.67,0,0,1-.06-.28.72.72,0,0,1,.06-.29Zm.33.78h.18v-.41H100l.23.41h.21l-.26-.43a.32.32,0,0,0,.16-.09.28.28,0,0,0,.06-.18.31.31,0,0,0,0-.13.24.24,0,0,0-.08-.09l-.11,0h-.48Zm.18-.56v-.27H100a.34.34,0,0,1,.14,0,.11.11,0,0,1,.06.11.11.11,0,0,1-.07.12l-.14,0Z"/></svg>